<svg width="14" height="9" viewBox="0 0 14 9" fill="none" xmlns="http://www.w3.org/2000/svg">
<path d="M13.7074 1.20697C13.5199 1.0195 13.2656 0.914185 13.0004 0.914185C12.7352 0.914185 12.4809 1.0195 12.2934 1.20697L7.70741 5.79297C7.51728 5.97546 7.26395 6.07736 7.00041 6.07736C6.73687 6.07736 6.48354 5.97546 6.29341 5.79297L1.70741 1.20697C1.5188 1.02481 1.2662 0.924018 1.00401 0.926297C0.741809 0.928575 0.490997 1.03374 0.305589 1.21915C0.120181 1.40456 0.0150115 1.65537 0.0127331 1.91757C0.0104547 2.17977 0.111249 2.43237 0.293408 2.62097L4.87841 7.20697C5.15699 7.4856 5.48773 7.70662 5.85174 7.85742C6.21575 8.00822 6.6059 8.08583 6.99991 8.08583C7.39392 8.08583 7.78407 8.00822 8.14808 7.85742C8.51208 7.70662 8.84282 7.4856 9.12141 7.20697L13.7074 2.62097C13.8949 2.43344 14.0002 2.17913 14.0002 1.91397C14.0002 1.64881 13.8949 1.3945 13.7074 1.20697Z" fill="white"/>
</svg>
