<svg width="264" height="164" viewBox="0 25 264 164" fill="none" xmlns="http://www.w3.org/2000/svg">
<path d="M244.729 155.243C244.729 155.243 236.758 141.228 190.479 144.874C190.479 144.874 145.29 145.03 151.983 166.196C157.678 184.209 183.19 186.081 197.849 185.628C206.332 185.241 214.704 183.869 222.793 181.539C235.883 177.615 248.9 168.918 244.729 155.243Z" fill="#FFC336"/>
<path opacity="0.4" d="M244.729 155.243C244.729 155.243 236.758 141.228 190.479 144.874C190.479 144.874 145.29 145.03 151.983 166.196C157.678 184.209 183.19 186.081 197.849 185.628C206.332 185.241 214.704 183.869 222.793 181.539C235.883 177.615 248.9 168.918 244.729 155.243Z" fill="black"/>
<path d="M244.109 154.199C244.109 154.199 236 134.66 189.679 138.271C189.679 138.271 143.621 143.377 152.25 163.925C158.159 178.002 182.403 179.489 197.061 179.035C204.753 178.809 215.811 177.634 223.129 175.439C236.235 171.521 247.611 164.321 244.109 154.199Z" fill="#FFC336"/>
<path opacity="0.2" d="M199.446 173.006C219.667 171.417 235.314 163.756 234.393 155.895C233.472 148.035 216.333 142.951 196.111 144.541C175.889 146.13 160.243 153.791 161.163 161.652C162.084 169.512 179.224 174.596 199.446 173.006Z" fill="white"/>
<path d="M222.738 158.747L216.23 159.263L216.034 157.59L222.361 157.104L221.974 153.83L215.211 154.362L214.907 151.792L180.563 154.492L180.766 156.225L173.978 156.537L174.422 160.322L181.26 159.785L181.384 160.844L174.743 161.366L175.168 164.992L182.955 164.407C182.955 164.407 183.233 167.303 192.403 167.293C199.388 167.286 201.259 163.262 201.259 163.262C201.259 163.262 203.148 165.218 208.177 165.404C211.316 165.447 214.337 164.433 216.747 162.526L223.126 162.028L222.738 158.747ZM192.423 163.403C187.244 163.409 187.43 157.932 187.43 157.932L195.936 157.26C195.936 157.26 197.603 163.404 192.423 163.403V163.403ZM206.337 161.839C201.432 161.755 202.486 157.012 202.486 157.012L209.822 156.432C209.822 156.432 211.979 161.953 206.327 161.852L206.337 161.839Z" fill="#FFC336"/>
<path opacity="0.4" d="M222.738 158.747L216.23 159.263L216.034 157.59L222.361 157.104L221.974 153.83L215.211 154.362L214.907 151.792L180.563 154.492L180.766 156.225L173.978 156.537L174.422 160.322L181.26 159.785L181.384 160.844L174.743 161.366L175.168 164.992L182.955 164.407C182.955 164.407 183.233 167.303 192.403 167.293C199.388 167.286 201.259 163.262 201.259 163.262C201.259 163.262 203.148 165.218 208.177 165.404C211.316 165.447 214.337 164.433 216.747 162.526L223.126 162.028L222.738 158.747ZM192.423 163.403C187.244 163.409 187.43 157.932 187.43 157.932L195.936 157.26C195.936 157.26 197.603 163.404 192.423 163.403V163.403ZM206.337 161.839C201.432 161.755 202.486 157.012 202.486 157.012L209.822 156.432C209.822 156.432 211.979 161.953 206.327 161.852L206.337 161.839Z" fill="black"/>
<path d="M221.577 156.165L215.069 156.673L214.873 155.008L221.187 154.511L220.795 151.227L214.029 151.762L213.729 149.196L179.389 151.891L179.592 153.625L172.796 153.938L173.24 157.722L180.078 157.185L180.202 158.245L173.565 158.763L173.994 162.392L181.789 161.779C181.789 161.779 182.063 164.672 191.229 164.666C198.214 164.659 200.085 160.635 200.085 160.635C200.085 160.635 201.975 162.591 207.004 162.777C210.143 162.819 213.164 161.806 215.577 159.903L221.955 159.397L221.577 156.165ZM191.262 160.821C186.082 160.819 186.265 155.346 186.265 155.346L194.798 154.676C194.798 154.676 196.438 160.819 191.262 160.821ZM205.172 159.254C200.266 159.169 201.321 154.426 201.321 154.426L208.668 153.876C208.668 153.876 210.797 159.354 205.162 159.266L205.172 159.254Z" fill="#FFC336"/>
<path d="M242.919 152.257C242.866 152.322 241.923 151.178 239.964 149.418C237.183 146.955 234.068 144.898 230.718 143.311C228.412 142.21 226.027 141.291 223.587 140.564C220.783 139.738 217.927 139.125 215.045 138.729C208.963 137.836 202.18 137.804 195.117 138.088C180.982 138.554 168.516 142.272 160.673 146.835C156.763 149.136 154.148 151.817 152.906 154.011L152.455 154.776L152.125 155.49C152.021 155.712 151.93 155.918 151.84 156.104C151.751 156.291 151.715 156.473 151.653 156.635C151.564 156.968 151.439 157.289 151.278 157.592C151.314 157.246 151.386 156.907 151.493 156.578C151.535 156.415 151.575 156.228 151.646 156.02C151.718 155.812 151.81 155.614 151.898 155.385C151.986 155.157 152.083 154.901 152.198 154.64C152.313 154.379 152.47 154.118 152.625 153.835C153.801 151.538 156.41 148.736 160.356 146.321C168.229 141.558 180.792 137.721 195.056 137.245C202.146 136.955 208.962 137.042 215.138 137.958C218.057 138.375 220.947 139.02 223.78 139.888C226.249 140.651 228.656 141.615 230.977 142.771C234.35 144.425 237.461 146.584 240.196 149.17C240.686 149.621 241.085 150.052 241.436 150.429C241.736 150.738 242.021 151.061 242.29 151.397C242.527 151.663 242.738 151.951 242.919 152.257V152.257Z" fill="#FAFAFA"/>
<path opacity="0.4" d="M161.148 160.483C161.148 160.483 160.856 145.193 195.746 142.019C230.636 138.844 234.393 155.895 234.393 155.895C234.393 155.895 231.243 141.807 195.137 144.549C163.699 146.94 161.148 160.483 161.148 160.483Z" fill="black"/>
<path d="M221.219 151.575C220.592 151.728 219.945 151.803 219.294 151.799C218.053 151.881 216.258 151.972 214.046 152.07L213.729 152.083L213.717 151.752L213.677 149.509L214.101 149.858C210.579 150.165 206.281 150.518 201.64 150.864C195.588 151.309 190.124 151.662 186.144 151.895C184.156 152.005 182.547 152.078 181.429 152.124C180.856 152.182 180.275 152.165 179.701 152.073C180.251 151.905 180.824 151.807 181.404 151.782C182.508 151.65 184.102 151.483 186.07 151.293C190.022 150.922 195.493 150.465 201.54 150.016C206.181 149.671 210.483 149.374 214.015 149.158L214.404 149.135L214.402 149.51L214.332 151.792L214 151.478C216.217 151.46 218.016 151.46 219.264 151.48C219.914 151.437 220.57 151.468 221.219 151.575V151.575Z" fill="#FAFAFA"/>
<path d="M205.835 159.484C205.852 159.593 205.62 159.745 205.168 159.777C204.59 159.818 204.006 159.715 203.469 159.475C202.928 159.243 202.45 158.882 202.077 158.427C201.801 158.071 201.73 157.793 201.814 157.726C202.005 157.588 202.724 158.261 203.785 158.709C204.846 159.157 205.803 159.246 205.835 159.484Z" fill="#FAFAFA"/>
<path d="M189.773 160.705C189.767 160.816 189.563 160.908 189.204 160.921C188.757 160.894 188.32 160.754 187.935 160.515C187.549 160.276 187.228 159.945 187 159.555C186.838 159.251 186.827 159.022 186.924 158.965C187.129 158.854 187.642 159.371 188.364 159.807C189.086 160.243 189.759 160.454 189.773 160.705Z" fill="#FAFAFA"/>
<path d="M207.66 172.66C207.708 172.878 204.713 173.556 200.912 173.641C197.111 173.726 194.043 173.203 194.06 172.984C194.077 172.765 197.125 172.896 200.86 172.805C204.595 172.714 207.63 172.437 207.66 172.66Z" fill="#FAFAFA"/>
<path d="M162.426 178.916C162.412 178.852 162.406 178.787 162.408 178.723L162.384 178.198C162.381 177.743 162.38 177.113 162.412 176.434C162.383 175.59 162.444 174.748 162.593 173.922C162.725 174.761 162.759 175.608 162.693 176.447C162.652 177.802 162.552 178.944 162.426 178.916Z" fill="#263238"/>
<path d="M156.173 173.777C156.159 173.725 156.153 173.672 156.154 173.618L156.134 173.185C156.126 172.822 156.132 172.321 156.132 171.76C156.1 171.08 156.156 170.401 156.298 169.742C156.436 170.413 156.474 171.097 156.413 171.772C156.394 172.885 156.303 173.809 156.173 173.777Z" fill="#263238"/>
<path d="M168.617 181.856C168.505 180.929 168.487 179.998 168.563 179.075C168.546 178.149 168.623 177.226 168.793 176.322C168.9 177.248 168.916 178.177 168.842 179.099C168.859 180.027 168.784 180.95 168.617 181.856V181.856Z" fill="#263238"/>
<path d="M175.011 183.737C174.897 182.748 174.881 181.754 174.962 180.769C174.945 179.777 175.022 178.789 175.191 177.817C175.303 178.806 175.319 179.8 175.24 180.785C175.254 181.777 175.177 182.765 175.011 183.737V183.737Z" fill="#263238"/>
<path d="M182.364 184.778C182.252 183.788 182.234 182.793 182.311 181.807C182.295 180.814 182.374 179.826 182.548 178.855C182.654 179.845 182.67 180.84 182.593 181.827C182.609 182.819 182.532 183.807 182.364 184.778V184.778Z" fill="#263238"/>
<path d="M189.363 185.229C189.249 184.239 189.232 183.244 189.31 182.257C189.294 181.266 189.372 180.279 189.544 179.309C189.653 180.298 189.669 181.292 189.593 182.277C189.608 183.269 189.531 184.258 189.363 185.229V185.229Z" fill="#263238"/>
<path d="M196.363 185.68C196.249 184.689 196.232 183.694 196.31 182.708C196.294 181.717 196.372 180.73 196.544 179.76C196.653 180.749 196.669 181.743 196.593 182.728C196.606 183.72 196.53 184.708 196.363 185.68V185.68Z" fill="#263238"/>
<path d="M203.4 184.935C203.288 183.946 203.271 182.952 203.351 181.967C203.333 180.976 203.411 179.989 203.585 179.019C203.694 180.008 203.71 181.002 203.634 181.987C203.646 182.978 203.568 183.965 203.4 184.935V184.935Z" fill="#263238"/>
<path d="M210.436 184.027C210.329 183.038 210.313 182.044 210.387 181.059C210.369 180.066 210.448 179.077 210.624 178.107C210.731 179.097 210.746 180.092 210.669 181.079C210.688 182.07 210.61 183.057 210.436 184.027Z" fill="#263238"/>
<path d="M217.479 182.939C217.37 181.95 217.354 180.956 217.43 179.971C217.414 178.98 217.492 177.992 217.664 177.023C217.773 178.012 217.789 179.005 217.713 179.991C217.729 180.982 217.651 181.969 217.479 182.939V182.939Z" fill="#263238"/>
<path d="M224.261 181.206C224.142 180.213 224.12 179.214 224.195 178.224C224.192 177.241 224.281 176.263 224.463 175.304C224.572 176.293 224.588 177.287 224.512 178.272C224.517 179.259 224.434 180.241 224.261 181.206V181.206Z" fill="#263238"/>
<path d="M231.198 178.464C231.086 177.473 231.069 176.477 231.148 175.489C231.13 174.498 231.208 173.51 231.382 172.541C231.489 173.53 231.505 174.523 231.43 175.509C231.446 176.503 231.368 177.492 231.198 178.464V178.464Z" fill="#263238"/>
<path d="M237.259 174.34C237.148 173.458 237.127 172.57 237.198 171.69C237.175 170.802 237.249 169.918 237.418 169.053C237.526 169.936 237.544 170.824 237.472 171.703C237.496 172.591 237.425 173.475 237.259 174.34V174.34Z" fill="#263238"/>
<path d="M242.399 169.54C242.285 168.658 242.265 167.77 242.338 166.89C242.322 166.005 242.396 165.124 242.559 164.26C242.677 165.142 242.697 166.031 242.62 166.91C242.639 167.795 242.564 168.677 242.399 169.54V169.54Z" fill="#263238"/>
<path d="M107.793 92.185C123.395 90.9586 134.566 77.3639 132.745 61.8203C130.924 46.2768 116.8 34.6704 101.199 35.8968C85.5969 37.1231 74.4254 50.7179 76.2463 66.2614C78.0672 81.805 92.1911 93.4114 107.793 92.185Z" fill="#FFC336"/>
<path opacity="0.2" d="M107.793 92.185C123.395 90.9586 134.566 77.3639 132.745 61.8203C130.924 46.2768 116.8 34.6704 101.199 35.8968C85.5969 37.1231 74.4254 50.7179 76.2463 66.2614C78.0672 81.805 92.1911 93.4114 107.793 92.185Z" fill="white"/>
<path d="M126.523 47.0161C126.566 47.5933 126.514 48.17 126.371 48.724C126.325 49.2935 126.184 49.8479 125.953 50.3649C125.908 49.7939 125.955 49.2229 126.093 48.6733C126.141 48.0975 126.287 47.5373 126.523 47.0161V47.0161Z" fill="#263238"/>
<path d="M129.221 51.1891C129.268 51.7377 129.225 52.2869 129.093 52.8149C129.049 53.3599 128.911 53.89 128.686 54.3824C128.638 53.8339 128.682 53.2846 128.814 52.7567C128.857 52.2114 128.994 51.6812 129.221 51.1891V51.1891Z" fill="#263238"/>
<path d="M131.258 55.5248C131.311 56.0735 131.267 56.6236 131.13 57.1506C131.089 57.6967 130.953 58.2282 130.727 58.7216C130.675 58.1729 130.718 57.6227 130.855 57.0958C130.898 56.55 131.034 56.0188 131.258 55.5248Z" fill="#263238"/>
<path d="M123.06 43.3351C123.104 43.9061 123.057 44.4772 122.92 45.0267C122.874 45.5962 122.733 46.1506 122.503 46.6676C122.458 46.0966 122.505 45.5255 122.642 44.976C122.687 44.4064 122.829 43.8518 123.06 43.3351V43.3351Z" fill="#263238"/>
<path d="M119.333 40.5265C119.379 41.0967 119.331 41.6671 119.19 42.2146C119.14 42.7835 119 43.3375 118.772 43.8555C118.722 43.2835 118.768 42.7107 118.907 42.1604C118.96 41.5935 119.103 41.0419 119.333 40.5265V40.5265Z" fill="#263238"/>
<path d="M115.174 38.3743C115.224 38.936 115.183 39.4988 115.055 40.0414C115.014 40.5993 114.879 41.143 114.657 41.6502C114.605 41.09 114.644 40.5284 114.772 39.9872C114.815 39.4279 114.951 38.883 115.174 38.3743V38.3743Z" fill="#263238"/>
<path d="M111.055 36.7538C111.103 37.325 111.056 37.8966 110.915 38.4455C110.866 39.0144 110.725 39.5683 110.498 40.0864C110.45 39.5128 110.497 38.9388 110.636 38.3872C110.687 37.8209 110.828 37.2695 111.055 36.7538V36.7538Z" fill="#263238"/>
<path d="M106.539 35.9094C106.589 36.4806 106.542 37.0524 106.4 37.601C106.354 38.1705 106.213 38.7249 105.982 39.242C105.939 38.6726 105.985 38.1032 106.118 37.5544C106.166 36.9836 106.309 36.428 106.539 35.9094V35.9094Z" fill="#263238"/>
<path d="M102.1 35.7847C102.142 36.3572 102.094 36.9293 101.957 37.4804C101.911 38.0482 101.771 38.6012 101.543 39.1172C101.498 38.5462 101.545 37.9751 101.682 37.4256C101.728 36.8561 101.87 36.3017 102.1 35.7847V35.7847Z" fill="#263238"/>
<path d="M98.1348 36.2339C98.1771 36.8064 98.129 37.3786 97.9922 37.9296C97.9464 38.4974 97.8066 39.0504 97.5782 39.5664C97.5332 38.9954 97.5802 38.4244 97.7174 37.8748C97.7636 37.3054 97.9047 36.7509 98.1348 36.2339V36.2339Z" fill="#263238"/>
<path d="M93.9912 37.5565C94.0364 38.1503 93.9896 38.744 93.8524 39.3169C93.8022 39.9058 93.6571 40.4794 93.4227 41.0161C93.3809 40.4242 93.4306 39.8329 93.57 39.2627C93.6168 38.6718 93.759 38.0958 93.9912 37.5565V37.5565Z" fill="#263238"/>
<path d="M89.9541 39.3214C89.998 39.9118 89.9495 40.5019 89.8101 41.0707C89.7538 41.6584 89.609 42.2311 89.3804 42.7699C89.3339 42.1794 89.3825 41.5889 89.5244 41.0206C89.5735 40.4315 89.7186 39.8577 89.9541 39.3214V39.3214Z" fill="#263238"/>
<path d="M86.2295 41.7343C86.2764 42.318 86.2561 42.9027 86.1691 43.477C86.1809 44.0714 86.0834 44.659 85.8815 45.2108C85.8119 44.6246 85.8188 44.0347 85.9021 43.456C85.889 42.8613 86.0005 42.275 86.2295 41.7343Z" fill="#263238"/>
<path d="M82.7959 44.9874C82.8264 45.6541 82.7595 46.3181 82.5974 46.9587C82.535 47.6119 82.3813 48.25 82.1409 48.8548C82.1055 48.1956 82.1667 47.5384 82.3226 46.9039C82.3896 46.2431 82.5488 45.5981 82.7959 44.9874V44.9874Z" fill="#263238"/>
<path d="M79.2031 50.2237C79.2379 50.9276 79.1796 51.6295 79.0298 52.3114C78.9742 53.0118 78.8238 53.6982 78.5826 54.352C78.5479 53.6472 78.6047 52.9443 78.7516 52.2607C78.81 51.5615 78.9618 50.8765 79.2031 50.2237V50.2237Z" fill="#263238"/>
<path d="M93.2553 93.1381C107.749 99.6828 124.407 93.516 130.462 79.3642C136.517 65.2124 129.676 48.4345 115.182 41.8899C100.688 35.3452 84.0301 41.512 77.9752 55.6638C71.9204 69.8156 78.7615 86.5934 93.2553 93.1381Z" fill="#FFC336"/>
<path opacity="0.2" d="M92.6096 84.2604C102.595 91.1753 115.905 89.1442 122.339 79.7238C128.773 70.3033 125.894 57.0608 115.909 50.1458C105.924 43.2309 92.6143 45.262 86.1802 54.6824C79.7462 64.1029 82.6247 77.3454 92.6096 84.2604Z" fill="white"/>
<path d="M92.6675 84.1848C87.9587 80.9334 84.6465 76.0322 83.4363 70.5246C82.2261 65.0171 83.2134 59.3384 86.188 54.6977C86.0605 54.8529 85.933 55.0081 85.8352 55.1877C82.6684 59.8246 81.5355 65.5903 82.6857 71.2163C83.2552 74.002 84.3681 76.6695 85.9608 79.0666C87.5535 81.4638 89.5948 83.5435 91.9682 85.187C94.3417 86.8306 97.0007 88.0059 99.7935 88.6457C102.586 89.2855 105.458 89.3774 108.245 88.9161C111.032 88.4547 113.68 87.4492 116.037 85.957C118.394 84.4647 120.414 82.5149 121.982 80.2189C122.109 80.0638 122.203 79.8807 122.31 79.7157C119.073 84.1695 114.165 87.1282 108.629 87.9628C103.093 88.7974 97.3671 87.442 92.6675 84.1848V84.1848Z" fill="#FAFAFA"/>
<path opacity="0.3" d="M115.868 50.2184C120.576 53.4727 123.885 58.3763 125.092 63.8849C126.299 69.3935 125.308 75.0719 122.329 79.7108C122.457 79.5556 122.584 79.4004 122.682 79.2209C125.849 74.5839 126.982 68.8182 125.832 63.1922C124.681 57.5663 121.342 52.5408 116.549 49.2215C111.756 45.9021 105.901 44.5607 100.272 45.4924C94.6435 46.4241 89.7023 49.5526 86.5356 54.1896C86.4081 54.3447 86.3145 54.5278 86.2073 54.6928C89.4439 50.233 94.3552 47.2697 99.8953 46.4339C105.435 45.5982 111.167 46.9561 115.868 50.2184V50.2184Z" fill="black"/>
<path d="M109.78 76.4379C111.456 73.9838 111.328 71.5531 109.992 69.668C111.8 69.7856 113.64 68.9381 114.966 66.9967C116.619 64.5787 116.393 61.9035 114.164 59.4966L116.2 56.5176L113.354 54.5488L111.462 57.3178L109.851 56.1992L111.739 53.4267L108.89 51.4619L107.003 54.2344L104.407 52.4369L102.596 51.1812L100.718 53.9339L102.529 55.1896L93.3924 68.574L91.3939 67.1917L89.5157 69.9444L91.5099 71.3232L94.1052 73.1208L91.9028 76.3459L94.7482 78.3147L96.9473 75.0937L98.5617 76.2082L96.3625 79.4292L99.2047 81.4022L101.479 78.0721C104.979 79.8673 107.868 79.2315 109.78 76.4379ZM106.124 57.6992L109.97 60.3534C112.102 61.8321 112.728 63.5362 111.53 65.2881C110.332 67.0401 108.549 67.0389 106.412 65.5567L102.044 62.5349L105.606 57.335L106.124 57.6992ZM101.456 74.174L96.8026 70.9454L96.4728 70.7154L100.197 65.266L105.18 68.717C107.508 70.3293 108.195 72.0362 106.905 73.9252C105.616 75.8141 103.784 75.7863 101.456 74.174Z" fill="#FFC336"/>
<path opacity="0.3" d="M109.78 76.4379C111.456 73.9838 111.328 71.5531 109.992 69.668C111.8 69.7856 113.64 68.9381 114.966 66.9967C116.619 64.5787 116.393 61.9035 114.164 59.4966L116.2 56.5176L113.354 54.5488L111.462 57.3178L109.851 56.1992L111.739 53.4267L108.89 51.4619L107.003 54.2344L104.407 52.4369L102.596 51.1812L100.718 53.9339L102.529 55.1896L93.3924 68.574L91.3939 67.1917L89.5157 69.9444L91.5099 71.3232L94.1052 73.1208L91.9028 76.3459L94.7482 78.3147L96.9473 75.0937L98.5617 76.2082L96.3625 79.4292L99.2047 81.4022L101.479 78.0721C104.979 79.8673 107.868 79.2315 109.78 76.4379ZM106.124 57.6992L109.97 60.3534C112.102 61.8321 112.728 63.5362 111.53 65.2881C110.332 67.0401 108.549 67.0389 106.412 65.5567L102.044 62.5349L105.606 57.335L106.124 57.6992ZM101.456 74.174L96.8026 70.9454L96.4728 70.7154L100.197 65.266L105.18 68.717C107.508 70.3293 108.195 72.0362 106.905 73.9252C105.616 75.8141 103.784 75.7863 101.456 74.174Z" fill="black"/>
<path d="M108.91 77.748C110.588 75.2898 110.457 72.8631 109.121 70.978C110.929 71.0957 112.77 70.2481 114.098 68.3026C115.748 65.8887 115.523 63.2135 113.297 60.8025L115.336 57.8195L112.49 55.8506L110.599 58.6196L108.984 57.5051L110.876 54.7361L108.026 52.7638L106.108 55.5387L103.513 53.7411L101.702 52.4855L99.8237 55.2382L101.635 56.4938L92.4981 69.8783L90.4997 68.496L88.6214 71.2487L90.6156 72.6275L93.2067 74.4215L91.0076 77.6425L93.853 79.6114L96.0522 76.3904L97.6632 77.509L95.464 80.73L98.3095 82.6988L100.581 79.3729C104.108 81.1773 106.998 80.5415 108.91 77.748ZM105.254 59.0092L109.109 61.6779C111.249 63.156 111.87 64.8567 110.668 66.6127C109.467 68.3687 107.687 68.3634 105.551 66.8813L101.183 63.8594L104.748 58.6555L105.254 59.0092ZM100.585 75.484L95.9143 72.2683L95.5845 72.0383L99.3059 66.5929L104.308 70.0195C106.636 71.6317 107.323 73.3386 106.031 75.2317C104.738 77.1248 102.917 77.0922 100.589 75.4799L100.585 75.484Z" fill="#FFC336"/>
<path d="M92.4993 69.5915C92.3169 69.4416 94.1514 66.4135 96.6253 62.7889C99.0992 59.1643 101.264 56.3394 101.447 56.4893C101.629 56.6392 99.7912 59.6714 97.3173 63.296C94.8434 66.9206 92.6918 69.7291 92.4993 69.5915Z" fill="#FAFAFA"/>
<path d="M106.982 67.8992C106.837 68.0748 105.522 67.3837 104 66.3384C102.478 65.293 101.359 64.2846 101.487 64.0951C101.614 63.9056 102.946 64.6106 104.465 65.6601C105.984 66.7096 107.109 67.7097 106.982 67.8992Z" fill="#FAFAFA"/>
<path d="M101.49 76.1654C101.346 76.341 100.03 75.6499 98.5084 74.6045C96.9865 73.5591 95.8677 72.5508 95.995 72.3612C96.1223 72.1717 97.4548 72.8767 98.9767 73.9221C100.499 74.9675 101.634 75.9554 101.49 76.1654Z" fill="#FAFAFA"/>
<path d="M22.7088 85.2417C22.7088 85.2417 32.1065 85.5076 43.2149 110.849C43.2149 110.849 55.7869 134.643 43.0679 137.053C32.2474 139.106 24.1434 126.222 20.2737 118.39C18.0993 113.816 16.4611 109.026 15.3925 104.117C13.7325 96.1651 14.5185 86.871 22.7088 85.2417Z" fill="#FFC336"/>
<path opacity="0.4" d="M22.7088 85.2417C22.7088 85.2417 32.1065 85.5076 43.2149 110.849C43.2149 110.849 55.7869 134.643 43.0679 137.053C32.2474 139.106 24.1434 126.222 20.2737 118.39C18.0993 113.816 16.4611 109.026 15.3925 104.117C13.7325 96.1651 14.5185 86.871 22.7088 85.2417Z" fill="black"/>
<path d="M23.4021 85.2639C23.4021 85.2639 35.6945 84.057 46.792 109.403C46.792 109.403 57.0726 135.043 44.1418 136.266C35.2756 137.1 27.7204 124.776 23.8507 116.944C21.8201 112.833 19.3213 106.689 18.4138 102.215C16.7292 94.2491 17.2295 86.28 23.4021 85.2639Z" fill="#FFC336"/>
<path opacity="0.2" d="M42.8182 130.96C47.1035 129.243 46.648 118.875 41.8009 107.802C36.9537 96.7298 29.5504 89.1455 25.2651 90.8626C20.9798 92.5796 21.4352 102.948 26.2824 114.02C31.1295 125.093 38.5329 132.677 42.8182 130.96Z" fill="white"/>
<path d="M41.2831 123.32L39.879 119.779C40.2463 117.991 39.9881 116.111 39.1466 114.443C37.7502 111.818 36.2177 111.304 36.2177 111.304C36.2177 111.304 37.833 109.252 36.003 105.511C33.6244 100.622 32.0263 101.217 32.0263 101.217L30.3079 96.8907L28.2984 97.6063L29.7615 101.292L29.1799 101.498L27.6739 97.7089L25.5616 98.4632L27.1735 102.175L26.1922 102.505L33.7546 121.566L35.1749 121.058L36.6612 124.81L38.4752 124.159L37.0874 120.659L38.0146 120.326L39.4024 123.827L41.2831 123.32ZM31.7022 110.036L29.8244 105.298C29.8244 105.298 32.6369 103.778 33.9851 106.548C35.3333 109.318 31.7022 110.036 31.7022 110.036ZM34.9001 117.664L33.2727 113.591C33.2727 113.591 35.4687 111.783 36.7898 114.387C38.3242 117.372 34.9001 117.664 34.9001 117.664V117.664Z" fill="#FFC336"/>
<path opacity="0.4" d="M41.2831 123.32L39.879 119.779C40.2463 117.991 39.9881 116.111 39.1466 114.443C37.7502 111.818 36.2177 111.304 36.2177 111.304C36.2177 111.304 37.833 109.252 36.003 105.511C33.6244 100.622 32.0263 101.217 32.0263 101.217L30.3079 96.8907L28.2984 97.6063L29.7615 101.292L29.1799 101.498L27.6739 97.7089L25.5616 98.4632L27.1735 102.175L26.1922 102.505L33.7546 121.566L35.1749 121.058L36.6612 124.81L38.4752 124.159L37.0874 120.659L38.0146 120.326L39.4024 123.827L41.2831 123.32ZM31.7022 110.036L29.8244 105.298C29.8244 105.298 32.6369 103.778 33.9851 106.548C35.3333 109.318 31.7022 110.036 31.7022 110.036ZM34.9001 117.664L33.2727 113.591C33.2727 113.591 35.4687 111.783 36.7898 114.387C38.3242 117.372 34.9001 117.664 34.9001 117.664V117.664Z" fill="black"/>
<path d="M42.8042 122.757L41.4001 119.216C41.7671 117.43 41.5077 115.55 40.6643 113.884C39.2679 111.259 37.7397 110.749 37.7397 110.749C37.7397 110.749 39.355 108.697 37.525 104.956C35.1497 100.062 33.5526 100.665 33.5526 100.665L31.8375 96.3347L29.8246 97.0545L31.292 100.744L30.7104 100.95L29.2078 97.1564L27.0963 97.9183L28.7082 101.63L27.7303 101.956L35.2851 121.018L36.7088 120.505L38.1993 124.261L40.0099 123.615L38.6255 120.11L39.5451 119.778L40.9808 123.393L42.8042 122.757ZM33.2275 109.476L31.3564 104.73C31.3564 104.73 34.1647 103.207 35.5205 105.977C36.8763 108.746 33.2275 109.476 33.2275 109.476V109.476ZM36.4255 117.105L34.798 113.031C34.798 113.031 36.994 111.224 38.3143 113.82C39.8462 116.817 36.4255 117.105 36.4255 117.105Z" fill="#FFC336"/>
<path d="M24.7465 85.3566C24.7465 85.3566 24.9644 85.3509 25.3889 85.4398C25.5926 85.4772 25.8395 85.5227 26.1288 85.6031C26.4181 85.6835 26.7573 85.7638 27.1288 85.8912C29.2372 86.5799 31.2325 87.5982 33.0375 88.9066C34.2904 89.8021 35.47 90.7966 36.5642 91.8799C37.8092 93.1301 38.9573 94.4716 39.998 95.8919C42.3079 99.1551 44.3079 102.617 45.9712 106.232C49.7318 113.886 51.2748 121.591 51.0064 127.089C50.8698 129.85 50.1277 132.025 49.2555 133.285C49.1347 133.432 49.0536 133.591 48.9623 133.728L48.6637 134.092C48.5109 134.287 48.3379 134.466 48.1472 134.625C48.012 134.778 47.8486 134.903 47.6653 134.995C47.5974 134.94 48.254 134.391 48.985 133.104C49.9443 131.241 50.4353 129.161 50.4174 127.036C50.531 121.657 48.9501 114.119 45.212 106.559C43.565 102.971 41.601 99.5255 39.3438 96.2642C38.3439 94.8842 37.2461 93.5751 36.0592 92.3474C35.0109 91.2723 33.8828 90.2768 32.6854 89.3697C30.9469 88.0528 29.0386 86.9798 27.0172 86.1827C25.5697 85.6089 24.7241 85.4271 24.7465 85.3566Z" fill="#FAFAFA"/>
<path opacity="0.4" d="M43.4244 130.634C43.4244 130.634 51.3516 126.497 43.1954 107.275C35.0392 88.0539 25.2742 90.8383 25.2742 90.8383C25.2742 90.8383 33.3679 88.5481 42.076 108.292C49.6475 125.5 43.4244 130.634 43.4244 130.634Z" fill="black"/>
<path d="M33.6127 135.111C33.5278 135.041 34.0855 134.63 34.786 134.228C35.1919 133.942 35.652 133.737 36.1416 133.625C35.7938 133.976 35.3851 134.263 34.9335 134.472C34.5238 134.74 34.0801 134.954 33.6127 135.111V135.111Z" fill="#263238"/>
<path d="M38.0051 136.969C37.9203 136.9 38.3575 136.54 38.9309 136.232C39.5044 135.923 39.9964 135.705 40.0263 135.764C39.7647 136.067 39.4367 136.307 39.0657 136.466C38.7425 136.688 38.3848 136.858 38.0051 136.969Z" fill="#263238"/>
<path d="M30.3979 132.675C30.7823 132.282 31.2331 131.958 31.7313 131.718C32.1752 131.403 32.6725 131.166 33.202 131.018C32.8171 131.41 32.3664 131.733 31.8687 131.974C31.4255 132.291 30.928 132.528 30.3979 132.675V132.675Z" fill="#263238"/>
<path d="M27.6292 129.859C28.0418 129.451 28.5201 129.114 29.046 128.861C29.5213 128.523 30.0519 128.266 30.6169 128.1C29.7299 128.841 28.7235 129.433 27.6359 129.851L27.6292 129.859Z" fill="#263238"/>
<path d="M25.0364 126.285C25.4491 125.877 25.9274 125.54 26.4532 125.287C26.93 124.951 27.4602 124.694 28.0241 124.526C27.6098 124.932 27.1318 125.268 26.6074 125.523C26.1313 125.861 25.6009 126.118 25.0364 126.285V126.285Z" fill="#263238"/>
<path d="M22.846 122.733C23.2586 122.326 23.7369 121.989 24.2628 121.736C24.7396 121.4 25.2698 121.143 25.8337 120.974C25.4194 121.38 24.9414 121.716 24.4169 121.972C23.9409 122.309 23.4105 122.566 22.846 122.733V122.733Z" fill="#263238"/>
<path d="M20.6478 119.189C21.0604 118.782 21.5387 118.445 22.0645 118.192C22.5414 117.856 23.0716 117.599 23.6355 117.43C22.746 118.174 21.7374 118.768 20.6478 119.189Z" fill="#263238"/>
<path d="M19.0657 115.276C19.4777 114.869 19.9544 114.531 20.4782 114.275C20.9559 113.94 21.4858 113.684 22.0492 113.514C21.6372 113.921 21.1605 114.259 20.6367 114.515C20.1591 114.849 19.6291 115.106 19.0657 115.276V115.276Z" fill="#263238"/>
<path d="M17.5554 111.319C18.4442 110.577 19.4515 109.985 20.5398 109.564C20.1271 109.972 19.6488 110.309 19.123 110.562C18.6469 110.896 18.1179 111.152 17.5554 111.319V111.319Z" fill="#263238"/>
<path d="M16.1312 107.31C16.5459 106.905 17.0238 106.568 17.5479 106.312C18.0248 105.976 18.5549 105.719 19.1189 105.551C18.7046 105.956 18.2265 106.293 17.7021 106.548C17.226 106.885 16.6956 107.143 16.1312 107.31V107.31Z" fill="#263238"/>
<path d="M15.1316 103.267C16.0203 102.525 17.0277 101.932 18.1159 101.512C17.7012 101.917 17.2233 102.253 16.6992 102.509C16.2238 102.845 15.6946 103.1 15.1316 103.267V103.267Z" fill="#263238"/>
<path d="M14.5955 98.8513C15.4842 98.1094 16.4916 97.517 17.5798 97.0964C17.1651 97.5016 16.6872 97.8381 16.163 98.094C15.6877 98.4294 15.1585 98.685 14.5955 98.8513V98.8513Z" fill="#263238"/>
<path d="M15.0107 94.5064C15.3707 94.1358 15.794 93.8313 16.2625 93.6058C16.6868 93.3037 17.1641 93.08 17.6726 92.9449C17.3149 93.3104 16.8951 93.6107 16.431 93.8332C16.0054 94.1421 15.5243 94.3701 15.0107 94.5064V94.5064Z" fill="#263238"/>
<path d="M16.0316 90.461C16.3916 90.0905 16.8149 89.7859 17.2834 89.5605C17.7062 89.2589 18.1826 89.0365 18.6902 88.9037C18.3307 89.2747 17.9073 89.5793 17.4385 89.8042C17.0165 90.1071 16.5399 90.3296 16.0316 90.461Z" fill="#263238"/>
<path d="M34.9227 105.451C34.7078 105.548 34.3729 105.307 34.0066 105.06C33.6404 104.814 33.3012 104.57 33.3159 104.336C33.3297 104.224 33.4736 104.144 33.6821 104.123C33.963 104.126 34.2395 104.214 34.4735 104.377C34.7075 104.54 34.8875 104.769 34.9888 105.033C35.0592 105.241 35.0204 105.401 34.9227 105.451Z" fill="#FAFAFA"/>
<path d="M38.2236 113.793C37.9958 113.845 37.6949 113.502 37.3248 113.157C36.9546 112.812 36.6185 112.529 36.6722 112.299C36.6977 112.19 36.8332 112.103 37.092 112.152C37.3947 112.208 37.6766 112.354 37.9003 112.57C38.1241 112.785 38.2792 113.061 38.3453 113.36C38.3864 113.612 38.3452 113.784 38.2236 113.793Z" fill="#FAFAFA"/>
<path d="M37.7461 105.431C37.7159 105.468 37.5934 105.306 37.4249 105.078L36.8314 104.071C36.5425 103.578 36.2181 103.105 35.8607 102.657C35.4515 102.123 34.9368 101.677 34.35 101.347C34.2274 101.28 34.099 101.225 33.9665 101.183C33.8599 101.149 33.7505 101.125 33.6401 101.113L33.3123 101.097L33.2095 100.841C32.2717 98.3671 31.69 96.4457 31.8975 96.3836C32.1049 96.3214 32.9908 98.1235 33.9985 100.573L33.5756 100.301C33.7872 100.299 33.9988 100.334 34.2011 100.404C34.3865 100.455 34.566 100.527 34.7361 100.618C35.4392 101.009 36.043 101.559 36.4959 102.222C36.8262 102.713 37.1035 103.237 37.323 103.784C37.4901 104.161 37.6207 104.553 37.713 104.952C37.7999 105.236 37.8017 105.415 37.7461 105.431Z" fill="#FAFAFA"/>
</svg>
