<svg width="268" height="326" viewBox="0 0 268 326" fill="none" xmlns="http://www.w3.org/2000/svg">
<g clip-path="url(#clip0_64_2389)">
<g opacity="0.6">
<path d="M35.0339 87.702C35.0339 87.702 36.5626 104.375 81.8947 120.776C81.8947 120.776 124.699 140.009 127.447 117.12C129.786 97.6419 106.461 84.9299 92.4033 79.0719C84.2143 75.799 75.7083 73.5062 67.0586 72.2401C52.9958 70.3375 36.9544 72.9798 35.0339 87.702Z" fill="#FFC336"/>
<path opacity="0.4" d="M35.0339 87.702C35.0339 87.702 36.5626 104.375 81.8947 120.776C81.8947 120.776 124.699 140.009 127.447 117.12C129.786 97.6419 106.461 84.9299 92.4033 79.0719C84.2143 75.799 75.7083 73.5062 67.0586 72.2401C52.9958 70.3375 36.9544 72.9798 35.0339 87.702Z" fill="black"/>
<path d="M35.1739 88.9553C35.1739 88.9553 34.4633 110.912 79.8205 127.364C79.8205 127.364 125.57 142.288 126.221 119.153C126.67 103.306 104.379 91.5021 90.3216 85.6441C82.9503 82.5595 71.9886 78.9281 64.1254 77.8649C50.0502 75.9494 36.2035 77.8805 35.1739 88.9553Z" fill="#FFC336"/>
<path opacity="0.2" d="M85.4808 90.3238C65.6743 83.1543 47.591 83.6889 45.0907 91.5179C42.5903 99.3469 56.6197 111.506 76.4262 118.675C96.2327 125.845 114.316 125.31 116.816 117.481C119.317 109.652 105.287 97.4933 85.4808 90.3238Z" fill="white"/>
<path d="M57.3364 93.8195L63.7118 96.123L63.1796 97.7892L56.9877 95.5352L55.95 98.7974L62.5735 101.195L61.7597 103.756L95.3979 115.932L95.9493 114.206L102.503 116.822L103.707 113.052L97.009 110.628L97.3461 109.572L103.85 111.927L105.004 108.315L97.3878 105.529C97.3878 105.529 98.3672 102.67 89.6904 98.7473C83.0816 95.7579 79.5861 98.7612 79.5861 98.7612C79.5861 98.7612 78.6382 96.1009 73.9616 93.7688C71.0118 92.3813 67.7197 92.0451 64.6229 92.815L58.3765 90.5498L57.3364 93.8195ZM88.0034 102.418C92.9041 104.633 90.3787 109.733 90.3787 109.733L82.0461 106.721C82.0461 106.721 83.1051 100.195 88.0034 102.418ZM74.173 97.9289C78.7767 100.113 75.7451 104.146 75.7451 104.146L68.5586 101.549C68.5586 101.549 68.8863 95.4013 74.1878 97.9217L74.173 97.9289Z" fill="#FFC336"/>
<path opacity="0.4" d="M57.3364 93.8195L63.7118 96.123L63.1796 97.7892L56.9877 95.5352L55.95 98.7974L62.5735 101.195L61.7597 103.756L95.3979 115.932L95.9493 114.206L102.503 116.822L103.707 113.052L97.009 110.628L97.3461 109.572L103.85 111.927L105.004 108.315L97.3878 105.529C97.3878 105.529 98.3672 102.67 89.6904 98.7473C83.0816 95.7579 79.5861 98.7612 79.5861 98.7612C79.5861 98.7612 78.6382 96.1009 73.9616 93.7688C71.0118 92.3813 67.7197 92.0451 64.6229 92.815L58.3765 90.5498L57.3364 93.8195ZM88.0034 102.418C92.9041 104.633 90.3787 109.733 90.3787 109.733L82.0461 106.721C82.0461 106.721 83.1051 100.195 88.0034 102.418ZM74.173 97.9289C78.7767 100.113 75.7451 104.146 75.7451 104.146L68.5586 101.549C68.5586 101.549 68.8863 95.4013 74.1878 97.9217L74.173 97.9289Z" fill="black"/>
<path d="M57.3268 96.7594L63.6997 99.0705L63.17 100.729L56.9857 98.4906L55.9481 101.765L62.5764 104.161L61.7602 106.716L95.3934 118.895L95.9448 117.169L102.506 119.787L103.71 116.018L97.0119 113.593L97.349 112.538L103.848 114.895L104.999 111.278L97.3638 108.514C97.3638 108.514 98.3456 105.661 89.6738 101.735C83.065 98.7458 79.5695 101.749 79.5695 101.749C79.5695 101.749 78.6216 99.0888 73.9449 96.7567C70.9942 95.3704 67.7022 95.0325 64.6038 95.7978L58.355 93.5401L57.3268 96.7594ZM87.9938 105.358C92.8921 107.581 90.3716 112.678 90.3716 112.678L82.0142 109.653C82.0142 109.653 83.098 103.14 87.9938 105.358ZM74.166 100.874C78.7696 103.058 75.738 107.091 75.738 107.091L68.5537 104.461C68.5537 104.461 68.8893 98.3668 74.1807 100.867L74.166 100.874Z" fill="#FFC336"/>
<path d="M35.4663 91.3024C35.5451 91.2637 35.9462 92.7504 37.0435 95.2546C38.618 98.7763 40.6818 102.058 43.169 104.996C44.8775 107.026 46.7388 108.918 48.7349 110.652C51.033 112.636 53.4709 114.44 56.0272 116.051C61.3961 119.504 67.7967 122.443 74.5989 125.204C88.1669 130.826 101.551 132.656 110.926 131.705C115.61 131.205 119.233 129.791 121.349 128.248L122.103 127.718L122.722 127.185C122.916 127.02 123.09 126.864 123.255 126.726C123.419 126.588 123.532 126.431 123.659 126.305C123.886 126.028 124.143 125.778 124.424 125.56C124.242 125.872 124.029 126.162 123.786 126.426C123.676 126.563 123.559 126.723 123.402 126.889C123.245 127.055 123.073 127.203 122.892 127.381C122.71 127.559 122.509 127.76 122.289 127.958C122.068 128.155 121.807 128.334 121.539 128.536C119.442 130.203 115.773 131.735 111.005 132.326C101.516 133.455 87.989 131.695 74.2944 126.028C67.465 123.261 61.0564 120.256 55.6078 116.74C53.026 115.094 50.5698 113.244 48.2624 111.209C46.2551 109.429 44.392 107.484 42.6927 105.395C40.2117 102.384 38.1957 99.008 36.7182 95.3892C36.4481 94.7531 36.2552 94.1744 36.0851 93.6671C35.9335 93.2463 35.8027 92.8186 35.6932 92.3855C35.5822 92.0322 35.5062 91.6693 35.4663 91.3024Z" fill="#FAFAFA"/>
<path opacity="0.4" d="M116.329 118.593C116.329 118.593 110.048 133.179 75.6892 121.217C41.3308 109.255 45.0899 91.5188 45.0899 91.5188C45.0899 91.5188 42.0264 106.193 77.3499 119.085C108.109 130.307 116.329 118.593 116.329 118.593Z" fill="black"/>
<path d="M55.696 101.254C56.3547 101.378 56.9985 101.585 57.6129 101.868C58.8211 102.322 60.5581 103.006 62.6922 103.862L62.9974 103.985L62.8666 104.304L61.9429 106.442L61.6912 105.931C65.1539 107.15 69.371 108.66 73.9083 110.324C79.8226 112.498 85.1419 114.508 89.0051 115.994C90.933 116.743 92.4865 117.364 93.5635 117.8C94.1299 117.991 94.6718 118.257 95.1752 118.589C94.5827 118.512 93.9998 118.359 93.4402 118.134C92.3392 117.786 90.7594 117.26 88.8174 116.595C84.9208 115.252 79.5504 113.337 73.6386 111.168C69.1013 109.505 64.906 107.94 61.4722 106.629L61.095 106.485L61.2577 106.131L62.3027 104.003L62.482 104.442C60.3769 103.508 58.6763 102.737 57.5043 102.182C56.8706 101.944 56.2637 101.633 55.696 101.254Z" fill="#FAFAFA"/>
<path d="M73.6378 100.372C73.669 100.261 73.953 100.217 74.3946 100.381C74.9587 100.59 75.4668 100.938 75.8723 101.395C76.2834 101.847 76.5813 102.393 76.7392 102.983C76.847 103.439 76.7951 103.731 76.6865 103.759C76.447 103.807 76.0556 102.862 75.2443 101.984C74.433 101.106 73.5657 100.611 73.6378 100.372Z" fill="#FAFAFA"/>
<path d="M89.353 106.107C89.4065 106.004 89.639 106.004 89.9839 106.146C90.3948 106.364 90.748 106.683 91.0101 107.075C91.2722 107.466 91.4346 107.916 91.4821 108.383C91.5049 108.74 91.4178 108.961 91.3017 108.974C91.0595 108.991 90.7962 108.282 90.3003 107.56C89.8044 106.838 89.2587 106.35 89.353 106.107Z" fill="#FAFAFA"/>
<path d="M77.5643 87.1284C77.6118 86.9017 80.7357 87.5446 84.367 89.0946C87.9983 90.6445 90.6748 92.4545 90.5652 92.6545C90.4556 92.8546 87.6291 91.4235 84.0574 89.9078C80.4858 88.392 77.4969 87.3522 77.5643 87.1284Z" fill="#FAFAFA"/>
<path d="M123.027 100.612C123.013 100.678 122.991 100.742 122.962 100.802L122.758 101.309C122.567 101.74 122.297 102.337 121.976 102.965C121.641 103.776 121.223 104.546 120.728 105.263C120.962 104.413 121.293 103.598 121.716 102.833C122.335 101.568 122.92 100.531 123.027 100.612Z" fill="#263238"/>
<path d="M126.737 108.154C126.728 108.209 126.711 108.262 126.687 108.312L126.52 108.731C126.372 109.077 126.151 109.548 125.91 110.079C125.649 110.736 125.305 111.354 124.888 111.917C125.045 111.223 125.302 110.559 125.65 109.947C126.145 108.902 126.628 108.068 126.737 108.154Z" fill="#263238"/>
<path d="M118.432 95.1763C118.141 96.1002 117.758 96.9889 117.29 97.8288C116.909 98.7124 116.441 99.5517 115.893 100.334C116.188 99.4131 116.572 98.5265 117.037 97.6866C117.418 96.8021 117.886 95.9612 118.432 95.1763Z" fill="#263238"/>
<path d="M113.192 90.6549C112.875 91.6391 112.465 92.5862 111.965 93.4827C111.555 94.4283 111.059 95.3299 110.482 96.1758C110.801 95.1927 111.212 94.2458 111.709 93.3481C112.122 92.4039 112.618 91.5025 113.192 90.6549Z" fill="#263238"/>
<path d="M106.685 86.5163C106.366 87.5007 105.957 88.4492 105.461 89.3492C105.051 90.2952 104.552 91.1961 103.971 92.0396C104.295 91.0571 104.707 90.1097 105.203 89.2094C105.613 88.2644 106.11 87.3628 106.685 86.5163Z" fill="#263238"/>
<path d="M100.258 83.0882C99.9408 84.0735 99.5307 85.0222 99.0331 85.9211C98.6238 86.8658 98.1265 87.7659 97.5479 88.6091C97.8691 87.627 98.2799 86.6803 98.7748 85.7813C99.1855 84.8362 99.6819 83.9347 100.258 83.0882Z" fill="#263238"/>
<path d="M93.8308 79.6597C93.514 80.645 93.104 81.5937 92.6064 82.4926C92.197 83.4373 91.6997 84.3374 91.1211 85.1806C91.4424 84.1985 91.8531 83.2518 92.348 82.3528C92.7604 81.4086 93.2567 80.5072 93.8308 79.6597Z" fill="#263238"/>
<path d="M86.8567 77.3458C86.5389 78.3293 86.128 79.2763 85.6298 80.1736C85.2221 81.1191 84.7246 82.0193 84.1445 82.8615C84.4658 81.8794 84.8766 80.9327 85.3714 80.0338C85.7849 79.0912 86.282 78.1916 86.8567 77.3458Z" fill="#263238"/>
<path d="M79.8128 75.1874C79.4895 76.1686 79.0788 77.1151 78.5859 78.0152C78.1773 78.9621 77.6782 79.8632 77.0957 80.7056C77.4198 79.723 77.8321 78.7757 78.3275 77.8754C78.7353 76.9298 79.2327 76.0296 79.8128 75.1874Z" fill="#263238"/>
<path d="M72.6858 73.1958C72.3646 74.1779 71.9538 75.1246 71.4589 76.0236C71.0496 76.9683 70.5523 77.8684 69.9736 78.7116C70.2949 77.7294 70.7057 76.7828 71.2005 75.8838C71.6099 74.9391 72.1072 74.039 72.6858 73.1958Z" fill="#263238"/>
<path d="M65.5279 71.9259C65.2145 72.9162 64.807 73.8701 64.3111 74.7742C63.8931 75.7056 63.3891 76.5918 62.8057 77.4213C63.1269 76.4391 63.5377 75.4924 64.0326 74.5935C64.4503 73.6577 64.9508 72.7649 65.5279 71.9259Z" fill="#263238"/>
<path d="M57.7918 71.5435C57.4722 72.5292 57.0605 73.4786 56.5624 74.3788C56.1547 75.3244 55.6572 76.2246 55.0771 77.0668C55.4005 76.0855 55.8112 75.1391 56.304 74.239C56.7157 73.2926 57.2137 72.3902 57.7918 71.5435Z" fill="#263238"/>
<path d="M50.2901 72.8441C50.0169 73.7263 49.6555 74.5749 49.2115 75.3765C48.8524 76.2263 48.4033 77.0311 47.8721 77.7767C48.1481 76.8953 48.512 76.0477 48.9581 75.247C49.3153 74.3969 49.7619 73.5914 50.2901 72.8441Z" fill="#263238"/>
<path d="M43.3717 75.1802C43.1008 76.0633 42.7393 76.9121 42.293 77.7126C41.928 78.5563 41.4801 79.3578 40.9561 80.1052C41.2227 79.2204 41.5844 78.3711 42.0347 77.5728C42.3967 76.7275 42.8447 75.9256 43.3717 75.1802Z" fill="#263238"/>
<path d="M137.498 206.069C122.217 200.538 105.821 208.604 100.876 224.085C95.9321 239.566 104.312 256.601 119.593 262.132C134.875 267.664 151.271 259.598 156.215 244.116C161.159 228.635 152.779 211.601 137.498 206.069Z" fill="#FFC336"/>
<path opacity="0.2" d="M137.498 206.069C122.217 200.538 105.821 208.604 100.876 224.085C95.9321 239.566 104.312 256.601 119.593 262.132C134.875 267.664 151.271 259.598 156.215 244.116C161.159 228.635 152.779 211.601 137.498 206.069Z" fill="white"/>
<path d="M100.412 240.755C100.62 240.191 100.916 239.667 101.289 239.205C101.577 238.686 101.948 238.222 102.387 237.832C102.185 238.391 101.896 238.911 101.53 239.372C101.237 239.896 100.859 240.363 100.412 240.755Z" fill="#263238"/>
<path d="M99.6504 235.651C99.8405 235.112 100.117 234.611 100.469 234.168C100.744 233.672 101.101 233.23 101.526 232.86C101.335 233.4 101.059 233.901 100.707 234.343C100.433 234.84 100.075 235.283 99.6504 235.651Z" fill="#263238"/>
<path d="M99.583 230.677C99.7683 230.135 100.045 229.633 100.401 229.194C100.674 228.695 101.031 228.251 101.456 227.881C101.27 228.422 100.994 228.924 100.638 229.364C100.363 229.861 100.006 230.305 99.583 230.677Z" fill="#263238"/>
<path d="M102.109 245.722C102.312 245.162 102.601 244.642 102.967 244.181C103.255 243.663 103.626 243.199 104.065 242.808C103.863 243.368 103.573 243.888 103.208 244.349C102.921 244.868 102.549 245.332 102.109 245.722Z" fill="#263238"/>
<path d="M104.428 249.976C104.628 249.417 104.919 248.898 105.287 248.441C105.578 247.924 105.949 247.46 106.386 247.068C106.188 247.63 105.899 248.152 105.531 248.613C105.238 249.127 104.866 249.587 104.428 249.976Z" fill="#263238"/>
<path d="M107.438 253.795C107.632 253.242 107.912 252.727 108.266 252.269C108.544 251.759 108.904 251.303 109.333 250.919C109.142 251.471 108.864 251.985 108.51 252.442C108.23 252.952 107.868 253.41 107.438 253.795Z" fill="#263238"/>
<path d="M110.64 257.094C110.839 256.534 111.129 256.013 111.497 255.554C111.787 255.037 112.158 254.574 112.595 254.181C112.395 254.744 112.104 255.267 111.736 255.729C111.445 256.243 111.075 256.704 110.64 257.094Z" fill="#263238"/>
<path d="M114.549 259.83C114.747 259.268 115.037 258.748 115.406 258.29C115.694 257.771 116.065 257.307 116.505 256.917C116.302 257.474 116.014 257.993 115.652 258.454C115.362 258.974 114.989 259.438 114.549 259.83Z" fill="#263238"/>
<path d="M118.693 261.852C118.899 261.292 119.19 260.771 119.555 260.309C119.842 259.792 120.212 259.329 120.649 258.939C120.447 259.498 120.157 260.018 119.792 260.479C119.504 260.997 119.133 261.461 118.693 261.852Z" fill="#263238"/>
<path d="M122.637 263.127C122.842 262.568 123.133 262.047 123.499 261.585C123.786 261.067 124.155 260.604 124.592 260.214C124.39 260.774 124.101 261.294 123.735 261.755C123.447 262.273 123.076 262.737 122.637 263.127Z" fill="#263238"/>
<path d="M127.122 263.653C127.334 263.073 127.633 262.531 128.008 262.048C128.308 261.513 128.692 261.032 129.144 260.625C128.929 261.203 128.629 261.741 128.252 262.221C127.955 262.759 127.573 263.243 127.122 263.653Z" fill="#263238"/>
<path d="M131.697 263.716C131.909 263.139 132.208 262.602 132.584 262.123C132.889 261.592 133.272 261.112 133.719 260.701C133.51 261.279 133.21 261.817 132.832 262.293C132.533 262.829 132.15 263.31 131.697 263.716Z" fill="#263238"/>
<path d="M136.254 263.031C136.46 262.459 136.73 261.915 137.058 261.409C137.302 260.842 137.646 260.328 138.074 259.892C137.889 260.477 137.629 261.032 137.302 261.543C137.059 262.111 136.702 262.618 136.254 263.031Z" fill="#263238"/>
<path d="M140.896 261.427C141.154 260.784 141.502 260.184 141.93 259.648C142.269 259.057 142.688 258.519 143.175 258.05C142.925 258.689 142.586 259.284 142.166 259.818C141.819 260.414 141.392 260.956 140.896 261.427Z" fill="#263238"/>
<path d="M146.54 258.016C146.809 257.335 147.165 256.696 147.599 256.116C147.952 255.477 148.389 254.892 148.897 254.378C148.628 255.059 148.273 255.699 147.841 256.283C147.486 256.919 147.048 257.502 146.54 258.016Z" fill="#263238"/>
<path d="M151.656 211.403C140.756 198.997 122.356 197.685 110.561 208.472C98.7646 219.26 98.0389 238.061 108.939 250.467C119.84 262.873 138.239 264.185 150.035 253.398C161.831 242.61 162.557 223.809 151.656 211.403Z" fill="#FFC336"/>
<path opacity="0.2" d="M148.459 220.076C141.981 209.254 128.522 205.466 118.397 211.616C108.272 217.766 105.314 231.525 111.792 242.347C118.269 253.169 131.729 256.957 141.854 250.807C151.979 244.657 154.936 230.898 148.459 220.076Z" fill="white"/>
<path d="M148.373 220.122C151.431 225.217 152.462 231.273 151.244 237.001C150.027 242.728 146.658 247.676 141.854 250.789C142.041 250.697 142.228 250.605 142.398 250.477C147.381 247.45 150.926 242.483 152.251 236.668C152.907 233.79 152.999 230.79 152.52 227.839C152.042 224.889 151.003 222.047 149.464 219.474C147.924 216.902 145.913 214.65 143.546 212.847C141.179 211.044 138.503 209.726 135.669 208.967C132.835 208.208 129.9 208.023 127.031 208.424C124.162 208.824 121.415 209.802 118.948 211.301C118.76 211.393 118.593 211.526 118.421 211.636C123.393 208.812 129.304 208.119 134.897 209.704C140.49 211.289 145.325 215.026 148.373 220.122Z" fill="#FAFAFA"/>
<path opacity="0.3" d="M111.862 242.296C108.806 237.199 107.779 231.142 109 225.415C110.222 219.687 113.595 214.742 118.401 211.632C118.214 211.724 118.026 211.816 117.857 211.944C112.873 214.972 109.329 219.939 108.004 225.753C106.679 231.567 107.681 237.752 110.791 242.947C113.901 248.142 118.863 251.922 124.586 253.454C130.309 254.987 136.323 254.148 141.307 251.12C141.494 251.028 141.661 250.895 141.833 250.785C136.86 253.615 130.944 254.311 125.346 252.726C119.748 251.14 114.91 247.398 111.862 242.296Z" fill="black"/>
<path d="M128.865 220.11C126.228 221.712 125.306 224.066 125.762 226.422C124.102 225.535 121.998 225.547 119.912 226.815C117.311 228.393 116.377 231.019 117.453 234.252L114.25 236.196L116.097 239.279L119.074 237.471L120.117 239.22L117.143 241.033L118.995 244.113L121.969 242.3L123.653 245.113L124.827 247.077L127.784 245.28L126.61 243.315L140.991 234.576L142.288 236.74L145.245 234.942L143.951 232.783L142.267 229.97L145.733 227.864L143.886 224.782L140.425 226.885L139.376 225.138L142.838 223.035L140.996 219.95L137.417 222.124C134.876 218.925 131.871 218.288 128.865 220.11ZM124.286 239.4L121.787 235.24C120.404 232.927 120.544 231.047 122.428 229.904C124.313 228.761 125.999 229.527 127.384 231.845L130.219 236.577L124.62 239.967L124.286 239.4ZM135.767 225.821L138.783 230.87L138.996 231.229L133.136 234.785L129.905 229.385C128.394 226.862 128.477 224.953 130.506 223.719C132.536 222.486 134.256 223.298 135.767 225.821Z" fill="#FFC336"/>
<path opacity="0.3" d="M128.865 220.11C126.228 221.712 125.306 224.066 125.762 226.422C124.102 225.535 121.998 225.547 119.912 226.815C117.311 228.393 116.377 231.019 117.453 234.252L114.25 236.196L116.097 239.279L119.074 237.471L120.117 239.22L117.143 241.033L118.995 244.113L121.969 242.3L123.653 245.113L124.827 247.077L127.784 245.28L126.61 243.315L140.991 234.576L142.288 236.74L145.245 234.942L143.951 232.783L142.267 229.97L145.733 227.864L143.886 224.782L140.425 226.885L139.376 225.138L142.838 223.035L140.996 219.95L137.417 222.124C134.876 218.925 131.871 218.288 128.865 220.11ZM124.286 239.4L121.787 235.24C120.404 232.927 120.544 231.047 122.428 229.904C124.313 228.761 125.999 229.527 127.384 231.845L130.219 236.577L124.62 239.967L124.286 239.4ZM135.767 225.821L138.783 230.87L138.996 231.229L133.136 234.785L129.905 229.385C128.394 226.862 128.477 224.953 130.506 223.719C132.536 222.486 134.256 223.298 135.767 225.821Z" fill="black"/>
<path d="M130.25 219.244C127.607 220.849 126.691 223.2 127.146 225.556C125.487 224.669 123.382 224.681 121.291 225.951C118.696 227.527 117.761 230.154 118.833 233.389L115.625 235.335L117.472 238.418L120.448 236.61L121.497 238.357L118.52 240.164L120.37 243.252L123.374 241.45L125.057 244.263L126.231 246.227L129.188 244.429L128.014 242.465L142.396 233.725L143.693 235.89L146.65 234.092L145.355 231.933L143.674 229.125L147.135 227.022L145.288 223.939L141.827 226.042L140.783 224.293L144.245 222.19L142.398 219.108L138.824 221.279C136.261 218.06 133.256 217.422 130.25 219.244ZM125.67 238.534L123.169 234.357C121.779 232.041 121.921 230.166 123.81 229.021C125.7 227.875 127.38 228.644 128.766 230.962L131.601 235.693L125.997 239.085L125.67 238.534ZM137.151 224.955L140.19 230L140.403 230.359L134.548 233.913L131.287 228.527C129.776 226.003 129.859 224.094 131.893 222.858C133.928 221.622 135.636 222.434 137.146 224.958L137.151 224.955Z" fill="#FFC336"/>
<path d="M142.272 233.996C142.38 234.216 139.347 236.293 135.452 238.66C131.558 241.027 128.299 242.77 128.191 242.55C128.083 242.33 131.121 240.251 135.015 237.884C138.91 235.517 142.149 233.783 142.272 233.996Z" fill="#FAFAFA"/>
<path d="M127.85 229.385C128.061 229.281 129.009 230.499 130 232.14C130.991 233.782 131.617 235.215 131.415 235.34C131.213 235.465 130.256 234.226 129.269 232.582C128.283 230.939 127.648 229.51 127.85 229.385Z" fill="#FAFAFA"/>
<path d="M136.589 223.923C136.801 223.819 137.749 225.037 138.74 226.678C139.731 228.319 140.356 229.753 140.155 229.878C139.953 230.002 138.995 228.764 138.004 227.123C137.013 225.481 136.363 224.06 136.589 223.923Z" fill="#FAFAFA"/>
<path d="M214.989 249.127C214.989 249.127 206.215 244.845 206.578 216.114C206.578 216.114 204.893 188.218 217.955 191.395C229.07 194.093 231.208 209.755 231.509 218.821C231.604 224.079 231.099 229.312 230.004 234.413C228.163 242.646 223.434 251.099 214.989 249.127Z" fill="#FFC336"/>
<path opacity="0.4" d="M214.989 249.127C214.989 249.127 206.215 244.845 206.578 216.114C206.578 216.114 204.893 188.218 217.955 191.395C229.07 194.093 231.208 209.755 231.509 218.821C231.604 224.079 231.099 229.312 230.004 234.413C228.163 242.646 223.434 251.099 214.989 249.127Z" fill="black"/>
<path d="M214.343 248.809C214.343 248.809 202.2 244.678 202.575 215.947C202.575 215.947 203.848 187.289 216.602 191.679C225.345 194.692 227.205 209.588 227.506 218.655C227.663 223.414 227.391 230.296 226.33 234.917C224.507 243.173 220.616 250.495 214.343 248.809Z" fill="#FFC336"/>
<path opacity="0.2" d="M215.579 197.264C210.79 197.05 206.774 207.051 206.609 219.602C206.444 232.153 210.193 242.501 214.983 242.715C219.772 242.929 223.788 232.928 223.953 220.377C224.117 207.826 220.368 197.478 215.579 197.264Z" fill="white"/>
<path d="M213.754 205.148L213.563 209.099C212.449 210.632 211.886 212.522 211.967 214.46C212.162 217.542 213.391 218.685 213.391 218.685C213.391 218.685 210.983 219.933 211.109 224.255C211.262 229.9 213.029 230.022 213.029 230.022L212.798 234.851L215.006 235.036L215.203 230.923L215.841 230.977L215.64 235.207L217.961 235.399L218.029 231.197L219.098 231.307L220.122 210.035L218.56 209.908L218.764 205.721L216.769 205.558L216.58 209.464L215.561 209.381L215.75 205.475L213.754 205.148ZM217.117 221.821L216.861 227.107C216.861 227.107 213.549 227.338 213.462 224.14C213.375 220.942 217.117 221.821 217.117 221.821ZM217.365 213.235L217.157 217.785C217.157 217.785 214.304 218.553 214.172 215.523C214.001 212.042 217.365 213.235 217.365 213.235Z" fill="#FFC336"/>
<path opacity="0.4" d="M213.754 205.148L213.563 209.099C212.449 210.632 211.886 212.522 211.967 214.46C212.162 217.542 213.391 218.685 213.391 218.685C213.391 218.685 210.983 219.933 211.109 224.255C211.262 229.9 213.029 230.022 213.029 230.022L212.798 234.851L215.006 235.036L215.203 230.923L215.841 230.977L215.64 235.207L217.961 235.399L218.029 231.197L219.098 231.307L220.122 210.035L218.56 209.908L218.764 205.721L216.769 205.558L216.58 209.464L215.561 209.381L215.75 205.475L213.754 205.148ZM217.117 221.821L216.861 227.107C216.861 227.107 213.549 227.338 213.462 224.14C213.375 220.942 217.117 221.821 217.117 221.821ZM217.365 213.235L217.157 217.785C217.157 217.785 214.304 218.553 214.172 215.523C214.001 212.042 217.365 213.235 217.365 213.235Z" fill="black"/>
<path d="M212.073 205.028L211.882 208.979C210.769 210.511 210.208 212.4 210.291 214.338C210.486 217.419 211.713 218.557 211.713 218.557C211.713 218.557 209.305 219.805 209.431 224.128C209.579 229.775 211.348 229.889 211.348 229.889L211.113 234.721L213.325 234.903L213.52 230.785L214.158 230.839L213.952 235.071L216.276 235.256L216.344 231.054L217.408 231.166L218.439 209.898L216.872 209.772L217.073 205.581L215.084 205.415L214.89 209.324L213.878 209.243L214.07 205.209L212.073 205.028ZM215.434 221.696L215.168 226.987C215.168 226.987 211.859 227.223 211.765 224.022C211.67 220.821 215.434 221.696 215.434 221.696ZM215.682 213.109L215.474 217.66C215.474 217.66 212.622 218.428 212.487 215.406C212.323 211.915 215.682 213.109 215.682 213.109Z" fill="#FFC336"/>
<path d="M213.11 248.144C213.11 248.144 212.902 248.056 212.538 247.79C212.362 247.667 212.148 247.518 211.909 247.318C211.67 247.118 211.383 246.897 211.087 246.617C209.388 245.061 207.938 243.243 206.792 241.231C205.991 239.847 205.302 238.4 204.731 236.906C204.09 235.19 203.58 233.429 203.205 231.639C202.42 227.562 202.013 223.43 201.99 219.298C201.716 210.447 203.562 202.498 206.174 197.413C207.487 194.86 209.121 193.122 210.487 192.304C210.664 192.217 210.809 192.101 210.954 192.011L211.392 191.795C211.621 191.676 211.861 191.581 212.11 191.512C212.303 191.426 212.511 191.377 212.724 191.369C212.764 191.451 211.908 191.687 210.665 192.592C208.958 193.942 207.602 195.699 206.708 197.716C204.293 202.755 202.555 210.562 202.849 219.314C202.867 223.414 203.247 227.515 203.983 231.568C204.337 233.302 204.814 235.011 205.41 236.681C205.94 238.147 206.58 239.573 207.323 240.944C208.403 242.935 209.747 244.768 211.317 246.389C212.44 247.553 213.162 248.087 213.11 248.144Z" fill="#FAFAFA"/>
<path opacity="0.4" d="M214.866 197.313C214.866 197.313 205.594 197.826 205.064 219.502C204.534 241.179 214.963 242.734 214.963 242.734C214.963 242.734 206.326 241.429 206.558 219.021C206.778 199.499 214.866 197.313 214.866 197.313Z" fill="black"/>
<path d="M226.065 197.287C226.115 197.389 225.412 197.538 224.577 197.619C224.07 197.715 223.547 197.712 223.036 197.608C223.516 197.425 224.025 197.329 224.542 197.324C225.044 197.247 225.556 197.234 226.065 197.287Z" fill="#263238"/>
<path d="M222.708 193.645C222.758 193.748 222.191 193.9 221.516 193.946C220.842 193.992 220.283 193.987 220.28 193.919C220.657 193.744 221.07 193.658 221.489 193.667C221.89 193.595 222.301 193.588 222.708 193.645Z" fill="#263238"/>
<path d="M228.061 200.97C227.528 201.176 226.963 201.289 226.389 201.302C225.834 201.41 225.262 201.421 224.698 201.334C225.23 201.128 225.795 201.015 226.369 201.001C226.924 200.892 227.496 200.881 228.061 200.97Z" fill="#263238"/>
<path d="M229.471 204.82C228.906 205.029 228.309 205.142 227.704 205.156C227.109 205.272 226.497 205.288 225.891 205.202C227.048 204.881 228.254 204.754 229.461 204.825L229.471 204.82Z" fill="#263238"/>
<path d="M230.39 209.312C229.825 209.521 229.228 209.634 228.623 209.648C228.027 209.761 227.416 209.777 226.81 209.694C227.376 209.488 227.972 209.375 228.578 209.358C229.173 209.244 229.785 209.228 230.39 209.312Z" fill="#263238"/>
<path d="M230.939 213.611C230.374 213.819 229.777 213.933 229.171 213.947C228.576 214.06 227.965 214.075 227.359 213.993C227.925 213.787 228.521 213.674 229.127 213.657C229.722 213.542 230.334 213.527 230.939 213.611Z" fill="#263238"/>
<path d="M231.498 217.905C230.933 218.114 230.336 218.227 229.73 218.241C229.135 218.354 228.523 218.37 227.918 218.287C229.078 217.965 230.286 217.836 231.498 217.905Z" fill="#263238"/>
<path d="M231.316 222.285C230.752 222.493 230.156 222.608 229.551 222.625C228.956 222.737 228.344 222.753 227.739 222.672C228.303 222.463 228.899 222.348 229.504 222.331C230.099 222.219 230.71 222.204 231.316 222.285Z" fill="#263238"/>
<path d="M231.047 226.674C229.889 226.995 228.682 227.123 227.472 227.054C228.037 226.846 228.634 226.732 229.24 226.718C229.834 226.606 230.444 226.592 231.047 226.674Z" fill="#263238"/>
<path d="M230.674 231.077C230.108 231.283 229.512 231.396 228.907 231.413C228.312 231.526 227.7 231.542 227.094 231.459C227.66 231.253 228.257 231.14 228.862 231.124C229.457 231.009 230.069 230.993 230.674 231.077Z" fill="#263238"/>
<path d="M229.885 235.33C228.727 235.65 227.52 235.778 226.31 235.709C226.876 235.504 227.473 235.391 228.078 235.374C228.671 235.26 229.282 235.245 229.885 235.33Z" fill="#263238"/>
<path d="M228.499 239.735C227.34 240.056 226.133 240.184 224.924 240.115C225.489 239.91 226.086 239.796 226.691 239.779C227.285 239.666 227.895 239.651 228.499 239.735Z" fill="#263238"/>
<path d="M226.243 243.667C225.743 243.863 225.212 243.969 224.673 243.981C224.142 244.085 223.595 244.092 223.056 244.002C223.551 243.809 224.077 243.705 224.611 243.694C225.146 243.584 225.699 243.575 226.243 243.667Z" fill="#263238"/>
<path d="M223.542 247.054C223.042 247.251 222.511 247.357 221.972 247.369C221.442 247.473 220.896 247.479 220.359 247.387C220.859 247.19 221.39 247.084 221.929 247.072C222.458 246.967 223.005 246.961 223.542 247.054Z" fill="#263238"/>
<path d="M212.105 224.776C212.35 224.776 212.563 225.148 212.804 225.538C213.045 225.928 213.261 226.305 213.146 226.52C213.086 226.62 212.915 226.634 212.709 226.563C212.445 226.441 212.221 226.239 212.07 225.984C211.918 225.73 211.846 225.436 211.864 225.143C211.886 224.916 211.991 224.781 212.105 224.776Z" fill="#FAFAFA"/>
<path d="M212.562 215.471C212.799 215.519 212.937 215.972 213.139 216.458C213.341 216.943 213.537 217.355 213.388 217.549C213.317 217.641 213.152 217.665 212.928 217.508C212.666 217.325 212.462 217.066 212.342 216.766C212.223 216.467 212.195 216.139 212.26 215.828C212.33 215.572 212.442 215.427 212.562 215.471Z" fill="#FAFAFA"/>
<path d="M209.427 223.584C209.471 223.562 209.517 223.768 209.579 224.055L209.708 225.263C209.77 225.853 209.874 226.439 210.02 227.016C210.178 227.696 210.473 228.339 210.887 228.902C210.974 229.018 211.072 229.126 211.179 229.223C211.265 229.301 211.359 229.37 211.458 229.429L211.761 229.585L211.749 229.87C211.574 232.612 211.3 234.679 211.078 234.649C210.855 234.619 210.79 232.534 210.887 229.786L211.17 230.225C210.97 230.135 210.785 230.011 210.623 229.858C210.47 229.731 210.331 229.586 210.209 229.427C209.712 228.756 209.376 227.977 209.232 227.155C209.131 226.549 209.093 225.934 209.12 225.323C209.124 224.894 209.168 224.468 209.253 224.051C209.292 223.745 209.367 223.575 209.427 223.584Z" fill="#FAFAFA"/>
</g>
</g>
<defs>
<clipPath id="clip0_64_2389">
<rect width="285.114" height="156.936" fill="white" transform="translate(126.421 325.108) rotate(-116.195)"/>
</clipPath>
</defs>
</svg>
