<svg width="317" height="302" viewBox="0 0 317 302" fill="none" xmlns="http://www.w3.org/2000/svg">
<g opacity="0.6" clip-path="url(#clip0_64_2533)">
<path d="M278.729 172.243C278.729 172.243 270.758 158.228 224.479 161.874C224.479 161.874 179.29 162.03 185.983 183.196C191.678 201.209 217.19 203.081 231.849 202.628C240.332 202.241 248.704 200.869 256.793 198.539C269.883 194.615 282.9 185.918 278.729 172.243Z" fill="#FFC336"/>
<path opacity="0.4" d="M278.729 172.243C278.729 172.243 270.758 158.228 224.479 161.874C224.479 161.874 179.29 162.03 185.983 183.196C191.678 201.209 217.19 203.081 231.849 202.628C240.332 202.241 248.704 200.869 256.793 198.539C269.883 194.615 282.9 185.918 278.729 172.243Z" fill="black"/>
<path d="M278.109 171.199C278.109 171.199 270 151.66 223.679 155.271C223.679 155.271 177.621 160.377 186.25 180.925C192.159 195.002 216.403 196.489 231.061 196.035C238.753 195.809 249.811 194.634 257.129 192.439C270.235 188.521 281.611 181.321 278.109 171.199Z" fill="#FFC336"/>
<path opacity="0.2" d="M233.446 190.006C253.667 188.417 269.314 180.756 268.393 172.895C267.472 165.035 250.333 159.951 230.111 161.541C209.889 163.13 194.243 170.791 195.163 178.652C196.084 186.512 213.224 191.596 233.446 190.006Z" fill="white"/>
<path d="M256.738 175.747L250.23 176.263L250.034 174.59L256.361 174.104L255.974 170.83L249.211 171.362L248.907 168.792L214.563 171.492L214.766 173.225L207.978 173.537L208.422 177.322L215.26 176.785L215.384 177.844L208.743 178.366L209.168 181.992L216.955 181.407C216.955 181.407 217.233 184.303 226.403 184.293C233.388 184.286 235.259 180.262 235.259 180.262C235.259 180.262 237.148 182.218 242.177 182.404C245.316 182.447 248.337 181.433 250.747 179.526L257.126 179.028L256.738 175.747ZM226.423 180.403C221.244 180.409 221.43 174.932 221.43 174.932L229.936 174.26C229.936 174.26 231.603 180.404 226.423 180.403ZM240.337 178.839C235.432 178.755 236.486 174.012 236.486 174.012L243.822 173.432C243.822 173.432 245.979 178.953 240.327 178.852L240.337 178.839Z" fill="#FFC336"/>
<path opacity="0.4" d="M256.738 175.747L250.23 176.263L250.034 174.59L256.361 174.104L255.974 170.83L249.211 171.362L248.907 168.792L214.563 171.492L214.766 173.225L207.978 173.537L208.422 177.322L215.26 176.785L215.384 177.844L208.743 178.366L209.168 181.992L216.955 181.407C216.955 181.407 217.233 184.303 226.403 184.293C233.388 184.286 235.259 180.262 235.259 180.262C235.259 180.262 237.148 182.218 242.177 182.404C245.316 182.447 248.337 181.433 250.747 179.526L257.126 179.028L256.738 175.747ZM226.423 180.403C221.244 180.409 221.43 174.932 221.43 174.932L229.936 174.26C229.936 174.26 231.603 180.404 226.423 180.403ZM240.337 178.839C235.432 178.755 236.486 174.012 236.486 174.012L243.822 173.432C243.822 173.432 245.979 178.953 240.327 178.852L240.337 178.839Z" fill="black"/>
<path d="M255.577 173.165L249.069 173.673L248.873 172.008L255.187 171.511L254.795 168.227L248.029 168.762L247.729 166.196L213.389 168.891L213.592 170.625L206.796 170.938L207.24 174.722L214.078 174.185L214.202 175.245L207.565 175.763L207.994 179.392L215.789 178.779C215.789 178.779 216.063 181.672 225.229 181.666C232.214 181.659 234.085 177.635 234.085 177.635C234.085 177.635 235.975 179.591 241.004 179.777C244.143 179.819 247.164 178.806 249.577 176.903L255.955 176.397L255.577 173.165ZM225.262 177.821C220.082 177.819 220.265 172.346 220.265 172.346L228.798 171.676C228.798 171.676 230.438 177.819 225.262 177.821ZM239.172 176.254C234.266 176.169 235.321 171.426 235.321 171.426L242.668 170.876C242.668 170.876 244.797 176.354 239.162 176.266L239.172 176.254Z" fill="#FFC336"/>
<path d="M276.919 169.257C276.866 169.322 275.923 168.178 273.964 166.418C271.183 163.955 268.068 161.898 264.718 160.311C262.412 159.21 260.027 158.291 257.587 157.564C254.783 156.738 251.927 156.125 249.045 155.729C242.963 154.836 236.18 154.804 229.117 155.088C214.982 155.554 202.516 159.272 194.673 163.835C190.763 166.136 188.148 168.817 186.906 171.011L186.455 171.776L186.125 172.49C186.021 172.712 185.93 172.918 185.84 173.104C185.751 173.291 185.715 173.473 185.653 173.635C185.564 173.968 185.439 174.289 185.278 174.592C185.314 174.246 185.386 173.907 185.493 173.578C185.535 173.415 185.575 173.228 185.646 173.02C185.718 172.812 185.81 172.614 185.898 172.385C185.986 172.157 186.083 171.901 186.198 171.64C186.313 171.379 186.47 171.118 186.625 170.835C187.801 168.538 190.41 165.736 194.356 163.321C202.229 158.558 214.792 154.721 229.056 154.245C236.146 153.955 242.962 154.042 249.138 154.958C252.057 155.375 254.947 156.02 257.78 156.888C260.249 157.651 262.656 158.615 264.977 159.771C268.35 161.425 271.461 163.584 274.196 166.17C274.686 166.621 275.085 167.052 275.436 167.429C275.736 167.738 276.021 168.061 276.29 168.397C276.527 168.663 276.738 168.951 276.919 169.257Z" fill="#FAFAFA"/>
<path opacity="0.4" d="M195.148 177.483C195.148 177.483 194.856 162.193 229.746 159.019C264.636 155.844 268.393 172.895 268.393 172.895C268.393 172.895 265.243 158.807 229.137 161.549C197.699 163.94 195.148 177.483 195.148 177.483Z" fill="black"/>
<path d="M255.219 168.575C254.592 168.728 253.945 168.803 253.294 168.799C252.053 168.881 250.258 168.972 248.046 169.07L247.729 169.083L247.717 168.752L247.677 166.509L248.101 166.858C244.579 167.165 240.281 167.518 235.64 167.864C229.588 168.309 224.124 168.662 220.144 168.895C218.156 169.005 216.547 169.078 215.429 169.124C214.856 169.182 214.275 169.165 213.701 169.073C214.251 168.905 214.824 168.807 215.404 168.782C216.508 168.65 218.102 168.483 220.07 168.293C224.022 167.922 229.493 167.465 235.54 167.016C240.181 166.671 244.483 166.374 248.015 166.158L248.404 166.135L248.402 166.51L248.332 168.792L248 168.478C250.217 168.46 252.016 168.46 253.264 168.48C253.914 168.437 254.57 168.468 255.219 168.575Z" fill="#FAFAFA"/>
<path d="M239.835 176.484C239.852 176.593 239.62 176.745 239.168 176.777C238.59 176.818 238.006 176.715 237.469 176.475C236.928 176.243 236.45 175.882 236.077 175.427C235.801 175.071 235.73 174.793 235.814 174.726C236.005 174.588 236.724 175.261 237.785 175.709C238.846 176.157 239.803 176.246 239.835 176.484Z" fill="#FAFAFA"/>
<path d="M223.773 177.705C223.767 177.816 223.563 177.908 223.204 177.921C222.757 177.894 222.32 177.754 221.935 177.515C221.549 177.276 221.228 176.945 221 176.555C220.838 176.251 220.827 176.022 220.924 175.965C221.129 175.854 221.642 176.371 222.364 176.807C223.086 177.243 223.759 177.454 223.773 177.705Z" fill="#FAFAFA"/>
<path d="M241.66 189.66C241.708 189.878 238.713 190.556 234.912 190.641C231.111 190.726 228.043 190.203 228.06 189.984C228.077 189.765 231.125 189.896 234.86 189.805C238.595 189.714 241.63 189.437 241.66 189.66Z" fill="#FAFAFA"/>
<path d="M196.426 195.916C196.412 195.852 196.406 195.787 196.408 195.723L196.384 195.198C196.381 194.743 196.38 194.113 196.412 193.434C196.383 192.59 196.444 191.748 196.593 190.922C196.725 191.761 196.759 192.608 196.693 193.447C196.652 194.802 196.552 195.944 196.426 195.916Z" fill="#263238"/>
<path d="M190.173 190.777C190.159 190.725 190.153 190.672 190.154 190.618L190.134 190.185C190.126 189.822 190.132 189.321 190.132 188.76C190.1 188.08 190.156 187.401 190.298 186.742C190.436 187.413 190.474 188.097 190.413 188.772C190.394 189.885 190.303 190.809 190.173 190.777Z" fill="#263238"/>
<path d="M202.617 198.856C202.505 197.929 202.487 196.998 202.563 196.075C202.546 195.149 202.623 194.226 202.793 193.322C202.9 194.248 202.916 195.177 202.842 196.099C202.859 197.027 202.784 197.95 202.617 198.856Z" fill="#263238"/>
<path d="M209.011 200.737C208.897 199.748 208.881 198.754 208.962 197.769C208.945 196.777 209.022 195.789 209.191 194.817C209.303 195.806 209.319 196.8 209.24 197.785C209.254 198.777 209.177 199.765 209.011 200.737Z" fill="#263238"/>
<path d="M216.364 201.778C216.252 200.788 216.234 199.793 216.311 198.807C216.295 197.814 216.374 196.826 216.548 195.855C216.654 196.845 216.67 197.84 216.593 198.827C216.609 199.819 216.532 200.807 216.364 201.778Z" fill="#263238"/>
<path d="M223.363 202.229C223.249 201.239 223.232 200.244 223.31 199.257C223.294 198.266 223.372 197.279 223.544 196.309C223.653 197.298 223.669 198.292 223.593 199.277C223.608 200.269 223.531 201.258 223.363 202.229Z" fill="#263238"/>
<path d="M230.363 202.68C230.249 201.689 230.232 200.694 230.31 199.708C230.294 198.717 230.372 197.73 230.544 196.76C230.653 197.749 230.669 198.743 230.593 199.728C230.606 200.72 230.53 201.708 230.363 202.68Z" fill="#263238"/>
<path d="M237.4 201.935C237.288 200.946 237.271 199.952 237.351 198.967C237.333 197.976 237.411 196.989 237.585 196.019C237.694 197.008 237.71 198.002 237.634 198.987C237.646 199.978 237.568 200.965 237.4 201.935Z" fill="#263238"/>
<path d="M244.436 201.027C244.329 200.038 244.313 199.044 244.387 198.059C244.369 197.066 244.448 196.077 244.624 195.107C244.731 196.097 244.746 197.092 244.669 198.079C244.688 199.07 244.61 200.057 244.436 201.027Z" fill="#263238"/>
<path d="M251.479 199.939C251.37 198.95 251.354 197.956 251.43 196.971C251.414 195.98 251.492 194.992 251.664 194.023C251.773 195.012 251.789 196.005 251.713 196.991C251.729 197.982 251.651 198.969 251.479 199.939Z" fill="#263238"/>
<path d="M258.261 198.206C258.142 197.213 258.12 196.214 258.195 195.224C258.192 194.241 258.281 193.263 258.463 192.304C258.572 193.293 258.588 194.287 258.512 195.272C258.517 196.259 258.434 197.241 258.261 198.206Z" fill="#263238"/>
<path d="M265.198 195.464C265.086 194.473 265.069 193.477 265.148 192.489C265.13 191.498 265.208 190.51 265.382 189.541C265.489 190.53 265.505 191.523 265.43 192.509C265.446 193.503 265.368 194.492 265.198 195.464Z" fill="#263238"/>
<path d="M271.259 191.34C271.148 190.458 271.127 189.57 271.198 188.69C271.175 187.802 271.249 186.918 271.418 186.053C271.526 186.936 271.544 187.824 271.472 188.703C271.496 189.591 271.425 190.475 271.259 191.34Z" fill="#263238"/>
<path d="M276.399 186.54C276.285 185.658 276.265 184.77 276.338 183.89C276.322 183.005 276.396 182.124 276.559 181.26C276.677 182.142 276.697 183.031 276.62 183.91C276.639 184.795 276.564 185.677 276.399 186.54Z" fill="#263238"/>
<path d="M141.793 109.185C157.395 107.959 168.566 94.3639 166.745 78.8203C164.924 63.2768 150.8 51.6704 135.199 52.8968C119.597 54.1231 108.425 67.7179 110.246 83.2614C112.067 98.805 126.191 110.411 141.793 109.185Z" fill="#FFC336"/>
<path opacity="0.2" d="M141.793 109.185C157.395 107.959 168.566 94.3639 166.745 78.8203C164.924 63.2768 150.8 51.6704 135.199 52.8968C119.597 54.1231 108.425 67.7179 110.246 83.2614C112.067 98.805 126.191 110.411 141.793 109.185Z" fill="white"/>
<path d="M160.523 64.0161C160.566 64.5933 160.514 65.17 160.371 65.724C160.325 66.2935 160.184 66.8479 159.953 67.3649C159.908 66.7939 159.955 66.2229 160.093 65.6733C160.141 65.0975 160.287 64.5373 160.523 64.0161Z" fill="#263238"/>
<path d="M163.221 68.1891C163.268 68.7377 163.225 69.2869 163.093 69.8149C163.049 70.3599 162.911 70.89 162.686 71.3824C162.638 70.8339 162.682 70.2846 162.814 69.7567C162.857 69.2114 162.994 68.6812 163.221 68.1891Z" fill="#263238"/>
<path d="M165.258 72.5248C165.311 73.0735 165.267 73.6236 165.13 74.1506C165.089 74.6967 164.953 75.2282 164.727 75.7216C164.675 75.1729 164.718 74.6227 164.855 74.0958C164.898 73.55 165.034 73.0188 165.258 72.5248Z" fill="#263238"/>
<path d="M157.06 60.3351C157.104 60.9061 157.057 61.4772 156.92 62.0267C156.874 62.5962 156.733 63.1506 156.503 63.6676C156.458 63.0966 156.505 62.5255 156.642 61.976C156.687 61.4064 156.829 60.8518 157.06 60.3351Z" fill="#263238"/>
<path d="M153.333 57.5265C153.379 58.0967 153.331 58.6671 153.19 59.2146C153.14 59.7835 153 60.3375 152.772 60.8555C152.722 60.2835 152.768 59.7107 152.907 59.1604C152.96 58.5935 153.103 58.0419 153.333 57.5265Z" fill="#263238"/>
<path d="M149.174 55.3743C149.224 55.936 149.183 56.4988 149.055 57.0414C149.014 57.5993 148.879 58.143 148.657 58.6502C148.605 58.09 148.644 57.5284 148.772 56.9872C148.815 56.4279 148.951 55.883 149.174 55.3743Z" fill="#263238"/>
<path d="M145.055 53.7538C145.103 54.325 145.056 54.8966 144.915 55.4455C144.866 56.0144 144.725 56.5683 144.498 57.0864C144.45 56.5128 144.497 55.9388 144.636 55.3872C144.687 54.8209 144.828 54.2695 145.055 53.7538Z" fill="#263238"/>
<path d="M140.539 52.9094C140.589 53.4806 140.542 54.0524 140.4 54.601C140.354 55.1705 140.213 55.7249 139.982 56.242C139.939 55.6726 139.985 55.1032 140.118 54.5544C140.166 53.9836 140.309 53.428 140.539 52.9094Z" fill="#263238"/>
<path d="M136.1 52.7847C136.142 53.3572 136.094 53.9293 135.957 54.4804C135.911 55.0482 135.771 55.6012 135.543 56.1172C135.498 55.5462 135.545 54.9751 135.682 54.4256C135.728 53.8561 135.87 53.3017 136.1 52.7847Z" fill="#263238"/>
<path d="M132.135 53.2339C132.177 53.8064 132.129 54.3786 131.992 54.9296C131.946 55.4974 131.807 56.0504 131.578 56.5664C131.533 55.9954 131.58 55.4244 131.717 54.8748C131.764 54.3054 131.905 53.7509 132.135 53.2339Z" fill="#263238"/>
<path d="M127.991 54.5565C128.036 55.1503 127.99 55.744 127.852 56.3169C127.802 56.9058 127.657 57.4794 127.423 58.0161C127.381 57.4242 127.431 56.8329 127.57 56.2627C127.617 55.6718 127.759 55.0958 127.991 54.5565Z" fill="#263238"/>
<path d="M123.954 56.3214C123.998 56.9118 123.949 57.5019 123.81 58.0707C123.754 58.6584 123.609 59.2311 123.38 59.7699C123.334 59.1794 123.383 58.5889 123.524 58.0206C123.573 57.4315 123.719 56.8577 123.954 56.3214Z" fill="#263238"/>
<path d="M120.229 58.7343C120.276 59.318 120.256 59.9027 120.169 60.477C120.181 61.0714 120.083 61.659 119.881 62.2108C119.812 61.6246 119.819 61.0347 119.902 60.456C119.889 59.8613 120.001 59.275 120.229 58.7343Z" fill="#263238"/>
<path d="M116.796 61.9874C116.826 62.6541 116.76 63.3181 116.597 63.9587C116.535 64.6119 116.381 65.25 116.141 65.8548C116.105 65.1956 116.167 64.5384 116.323 63.9039C116.39 63.2431 116.549 62.5981 116.796 61.9874Z" fill="#263238"/>
<path d="M113.203 67.2237C113.238 67.9276 113.18 68.6295 113.03 69.3114C112.974 70.0118 112.824 70.6982 112.583 71.352C112.548 70.6472 112.605 69.9443 112.752 69.2607C112.81 68.5615 112.962 67.8765 113.203 67.2237Z" fill="#263238"/>
<path d="M127.255 110.138C141.749 116.683 158.407 110.516 164.462 96.3642C170.517 82.2124 163.676 65.4345 149.182 58.8899C134.688 52.3452 118.03 58.512 111.975 72.6638C105.92 86.8156 112.762 103.593 127.255 110.138Z" fill="#FFC336"/>
<path opacity="0.2" d="M126.61 101.26C136.595 108.175 149.905 106.144 156.339 96.7238C162.773 87.3033 159.894 74.0608 149.909 67.1458C139.924 60.2309 126.614 62.262 120.18 71.6824C113.746 81.1029 116.625 94.3454 126.61 101.26Z" fill="white"/>
<path d="M126.667 101.185C121.959 97.9334 118.647 93.0322 117.436 87.5246C116.226 82.0171 117.213 76.3384 120.188 71.6977C120.06 71.8529 119.933 72.0081 119.835 72.1877C116.668 76.8246 115.536 82.5903 116.686 88.2163C117.255 91.002 118.368 93.6695 119.961 96.0666C121.553 98.4638 123.595 100.543 125.968 102.187C128.342 103.831 131.001 105.006 133.793 105.646C136.586 106.286 139.458 106.377 142.245 105.916C145.032 105.455 147.68 104.449 150.037 102.957C152.394 101.465 154.414 99.5149 155.982 97.2189C156.109 97.0638 156.203 96.8807 156.31 96.7157C153.073 101.169 148.165 104.128 142.629 104.963C137.093 105.797 131.367 104.442 126.667 101.185Z" fill="#FAFAFA"/>
<path opacity="0.3" d="M149.868 67.2184C154.576 70.4727 157.885 75.3763 159.092 80.8849C160.299 86.3935 159.308 92.0719 156.329 96.7108C156.457 96.5556 156.584 96.4004 156.682 96.2209C159.849 91.5839 160.982 85.8182 159.832 80.1922C158.681 74.5663 155.342 69.5408 150.549 66.2215C145.756 62.9021 139.901 61.5607 134.272 62.4924C128.644 63.4241 123.702 66.5526 120.536 71.1896C120.408 71.3447 120.314 71.5278 120.207 71.6928C123.444 67.233 128.355 64.2697 133.895 63.4339C139.435 62.5982 145.167 63.9561 149.868 67.2184Z" fill="black"/>
<path d="M143.78 93.4379C145.456 90.9838 145.328 88.5531 143.992 86.668C145.8 86.7856 147.64 85.9381 148.966 83.9967C150.619 81.5787 150.393 78.9035 148.164 76.4966L150.2 73.5176L147.354 71.5488L145.462 74.3178L143.851 73.1992L145.739 70.4267L142.89 68.4619L141.003 71.2344L138.407 69.4369L136.596 68.1812L134.718 70.9339L136.529 72.1896L127.392 85.574L125.394 84.1917L123.516 86.9444L125.51 88.3232L128.105 90.1208L125.903 93.3459L128.748 95.3147L130.947 92.0937L132.562 93.2082L130.363 96.4292L133.205 98.4022L135.479 95.0721C138.979 96.8673 141.868 96.2315 143.78 93.4379ZM140.124 74.6992L143.97 77.3534C146.102 78.8321 146.728 80.5362 145.53 82.2881C144.332 84.0401 142.549 84.0389 140.412 82.5567L136.044 79.5349L139.606 74.335L140.124 74.6992ZM135.456 91.174L130.803 87.9454L130.473 87.7154L134.197 82.266L139.18 85.717C141.508 87.3293 142.195 89.0362 140.905 90.9252C139.616 92.8141 137.784 92.7863 135.456 91.174Z" fill="#FFC336"/>
<path opacity="0.3" d="M143.78 93.4379C145.456 90.9838 145.328 88.5531 143.992 86.668C145.8 86.7856 147.64 85.9381 148.966 83.9967C150.619 81.5787 150.393 78.9035 148.164 76.4966L150.2 73.5176L147.354 71.5488L145.462 74.3178L143.851 73.1992L145.739 70.4267L142.89 68.4619L141.003 71.2344L138.407 69.4369L136.596 68.1812L134.718 70.9339L136.529 72.1896L127.392 85.574L125.394 84.1917L123.516 86.9444L125.51 88.3232L128.105 90.1208L125.903 93.3459L128.748 95.3147L130.947 92.0937L132.562 93.2082L130.363 96.4292L133.205 98.4022L135.479 95.0721C138.979 96.8673 141.868 96.2315 143.78 93.4379ZM140.124 74.6992L143.97 77.3534C146.102 78.8321 146.728 80.5362 145.53 82.2881C144.332 84.0401 142.549 84.0389 140.412 82.5567L136.044 79.5349L139.606 74.335L140.124 74.6992ZM135.456 91.174L130.803 87.9454L130.473 87.7154L134.197 82.266L139.18 85.717C141.508 87.3293 142.195 89.0362 140.905 90.9252C139.616 92.8141 137.784 92.7863 135.456 91.174Z" fill="black"/>
<path d="M142.91 94.748C144.588 92.2898 144.457 89.8631 143.121 87.978C144.929 88.0957 146.77 87.2481 148.098 85.3026C149.748 82.8887 149.523 80.2135 147.297 77.8025L149.336 74.8195L146.49 72.8506L144.599 75.6196L142.984 74.5051L144.876 71.7361L142.026 69.7638L140.108 72.5387L137.513 70.7411L135.702 69.4855L133.824 72.2382L135.635 73.4938L126.498 86.8783L124.5 85.496L122.621 88.2487L124.616 89.6275L127.207 91.4215L125.008 94.6425L127.853 96.6114L130.052 93.3904L131.663 94.509L129.464 97.73L132.309 99.6988L134.581 96.3729C138.108 98.1773 140.998 97.5415 142.91 94.748ZM139.254 76.0092L143.109 78.6779C145.249 80.156 145.87 81.8567 144.668 83.6127C143.467 85.3687 141.687 85.3634 139.551 83.8813L135.183 80.8594L138.748 75.6555L139.254 76.0092ZM134.585 92.484L129.914 89.2683L129.584 89.0383L133.306 83.5929L138.308 87.0195C140.636 88.6317 141.323 90.3386 140.031 92.2317C138.738 94.1248 136.917 94.0922 134.589 92.4799L134.585 92.484Z" fill="#FFC336"/>
<path d="M126.499 86.5915C126.317 86.4416 128.151 83.4135 130.625 79.7889C133.099 76.1643 135.264 73.3394 135.447 73.4893C135.629 73.6392 133.791 76.6714 131.317 80.296C128.843 83.9206 126.692 86.7291 126.499 86.5915Z" fill="#FAFAFA"/>
<path d="M140.982 84.8992C140.837 85.0748 139.522 84.3837 138 83.3384C136.478 82.293 135.359 81.2846 135.487 81.0951C135.614 80.9056 136.946 81.6106 138.465 82.6601C139.984 83.7096 141.109 84.7097 140.982 84.8992Z" fill="#FAFAFA"/>
<path d="M135.49 93.1654C135.346 93.341 134.03 92.6499 132.508 91.6045C130.986 90.5591 129.868 89.5508 129.995 89.3612C130.122 89.1717 131.455 89.8767 132.977 90.9221C134.499 91.9675 135.634 92.9554 135.49 93.1654Z" fill="#FAFAFA"/>
<path d="M56.7088 102.242C56.7088 102.242 66.1065 102.508 77.2149 127.849C77.2149 127.849 89.7869 151.643 77.0679 154.053C66.2474 156.106 58.1434 143.222 54.2737 135.39C52.0993 130.816 50.4611 126.026 49.3925 121.117C47.7325 113.165 48.5185 103.871 56.7088 102.242Z" fill="#FFC336"/>
<path opacity="0.4" d="M56.7088 102.242C56.7088 102.242 66.1065 102.508 77.2149 127.849C77.2149 127.849 89.7869 151.643 77.0679 154.053C66.2474 156.106 58.1434 143.222 54.2737 135.39C52.0993 130.816 50.4611 126.026 49.3925 121.117C47.7325 113.165 48.5185 103.871 56.7088 102.242Z" fill="black"/>
<path d="M57.4021 102.264C57.4021 102.264 69.6945 101.057 80.792 126.403C80.792 126.403 91.0726 152.043 78.1418 153.266C69.2756 154.1 61.7204 141.776 57.8507 133.944C55.8201 129.833 53.3213 123.689 52.4138 119.215C50.7292 111.249 51.2295 103.28 57.4021 102.264Z" fill="#FFC336"/>
<path opacity="0.2" d="M76.8182 147.96C81.1035 146.243 80.648 135.875 75.8009 124.802C70.9537 113.73 63.5504 106.146 59.2651 107.863C54.9798 109.58 55.4352 119.948 60.2824 131.02C65.1295 142.093 72.5329 149.677 76.8182 147.96Z" fill="white"/>
<path d="M75.2831 140.32L73.879 136.779C74.2463 134.991 73.9881 133.111 73.1466 131.443C71.7502 128.818 70.2177 128.304 70.2177 128.304C70.2177 128.304 71.833 126.252 70.003 122.511C67.6244 117.622 66.0263 118.217 66.0263 118.217L64.3079 113.891L62.2984 114.606L63.7615 118.292L63.1799 118.498L61.6739 114.709L59.5616 115.463L61.1735 119.175L60.1922 119.505L67.7546 138.566L69.1749 138.058L70.6612 141.81L72.4752 141.159L71.0874 137.659L72.0146 137.326L73.4024 140.827L75.2831 140.32ZM65.7022 127.036L63.8244 122.298C63.8244 122.298 66.6369 120.778 67.9851 123.548C69.3333 126.318 65.7022 127.036 65.7022 127.036ZM68.9001 134.664L67.2727 130.591C67.2727 130.591 69.4687 128.783 70.7898 131.387C72.3242 134.372 68.9001 134.664 68.9001 134.664Z" fill="#FFC336"/>
<path opacity="0.4" d="M75.2831 140.32L73.879 136.779C74.2463 134.991 73.9881 133.111 73.1466 131.443C71.7502 128.818 70.2177 128.304 70.2177 128.304C70.2177 128.304 71.833 126.252 70.003 122.511C67.6244 117.622 66.0263 118.217 66.0263 118.217L64.3079 113.891L62.2984 114.606L63.7615 118.292L63.1799 118.498L61.6739 114.709L59.5616 115.463L61.1735 119.175L60.1922 119.505L67.7546 138.566L69.1749 138.058L70.6612 141.81L72.4752 141.159L71.0874 137.659L72.0146 137.326L73.4024 140.827L75.2831 140.32ZM65.7022 127.036L63.8244 122.298C63.8244 122.298 66.6369 120.778 67.9851 123.548C69.3333 126.318 65.7022 127.036 65.7022 127.036ZM68.9001 134.664L67.2727 130.591C67.2727 130.591 69.4687 128.783 70.7898 131.387C72.3242 134.372 68.9001 134.664 68.9001 134.664Z" fill="black"/>
<path d="M76.8042 139.757L75.4001 136.216C75.7671 134.43 75.5077 132.55 74.6643 130.884C73.2679 128.259 71.7397 127.749 71.7397 127.749C71.7397 127.749 73.355 125.697 71.525 121.956C69.1497 117.062 67.5526 117.665 67.5526 117.665L65.8375 113.335L63.8246 114.054L65.292 117.744L64.7104 117.95L63.2078 114.156L61.0963 114.918L62.7082 118.63L61.7303 118.956L69.2851 138.018L70.7088 137.505L72.1993 141.261L74.0099 140.615L72.6255 137.11L73.5451 136.778L74.9808 140.393L76.8042 139.757ZM67.2275 126.476L65.3564 121.73C65.3564 121.73 68.1647 120.207 69.5205 122.977C70.8763 125.746 67.2275 126.476 67.2275 126.476ZM70.4255 134.105L68.798 130.031C68.798 130.031 70.994 128.224 72.3143 130.82C73.8462 133.817 70.4255 134.105 70.4255 134.105Z" fill="#FFC336"/>
<path d="M58.7465 102.357C58.7465 102.357 58.9644 102.351 59.3889 102.44C59.5926 102.477 59.8395 102.523 60.1288 102.603C60.4181 102.684 60.7573 102.764 61.1288 102.891C63.2372 103.58 65.2325 104.598 67.0375 105.907C68.2904 106.802 69.47 107.797 70.5642 108.88C71.8092 110.13 72.9573 111.472 73.998 112.892C76.3079 116.155 78.3079 119.617 79.9712 123.232C83.7318 130.886 85.2748 138.591 85.0064 144.089C84.8698 146.85 84.1277 149.025 83.2555 150.285C83.1347 150.432 83.0536 150.591 82.9623 150.728L82.6637 151.092C82.5109 151.287 82.3379 151.466 82.1472 151.625C82.012 151.778 81.8486 151.903 81.6653 151.995C81.5974 151.94 82.254 151.391 82.985 150.104C83.9443 148.241 84.4353 146.161 84.4174 144.036C84.531 138.657 82.9501 131.119 79.212 123.559C77.565 119.971 75.601 116.525 73.3438 113.264C72.3439 111.884 71.2461 110.575 70.0592 109.347C69.0109 108.272 67.8828 107.277 66.6854 106.37C64.9469 105.053 63.0386 103.98 61.0172 103.183C59.5697 102.609 58.7241 102.427 58.7465 102.357Z" fill="#FAFAFA"/>
<path opacity="0.4" d="M77.4244 147.634C77.4244 147.634 85.3516 143.497 77.1954 124.275C69.0392 105.054 59.2742 107.838 59.2742 107.838C59.2742 107.838 67.3679 105.548 76.076 125.292C83.6475 142.5 77.4244 147.634 77.4244 147.634Z" fill="black"/>
<path d="M67.6127 152.111C67.5278 152.041 68.0855 151.63 68.786 151.228C69.1919 150.942 69.652 150.737 70.1416 150.625C69.7938 150.976 69.3851 151.263 68.9335 151.472C68.5238 151.74 68.0801 151.954 67.6127 152.111Z" fill="#263238"/>
<path d="M72.0051 153.969C71.9203 153.9 72.3575 153.54 72.9309 153.232C73.5044 152.923 73.9964 152.705 74.0263 152.764C73.7647 153.067 73.4367 153.307 73.0657 153.466C72.7425 153.688 72.3848 153.858 72.0051 153.969Z" fill="#263238"/>
<path d="M64.3979 149.675C64.7823 149.282 65.2331 148.958 65.7313 148.718C66.1752 148.403 66.6725 148.166 67.202 148.018C66.8171 148.41 66.3664 148.733 65.8687 148.974C65.4255 149.291 64.928 149.528 64.3979 149.675Z" fill="#263238"/>
<path d="M61.6292 146.859C62.0418 146.451 62.5201 146.114 63.046 145.861C63.5213 145.523 64.0519 145.266 64.6169 145.1C63.7299 145.841 62.7235 146.433 61.6359 146.851L61.6292 146.859Z" fill="#263238"/>
<path d="M59.0364 143.285C59.4491 142.877 59.9274 142.54 60.4532 142.287C60.93 141.951 61.4602 141.694 62.0241 141.526C61.6098 141.932 61.1318 142.268 60.6074 142.523C60.1313 142.861 59.6009 143.118 59.0364 143.285Z" fill="#263238"/>
<path d="M56.846 139.733C57.2586 139.326 57.7369 138.989 58.2628 138.736C58.7396 138.4 59.2698 138.143 59.8337 137.974C59.4194 138.38 58.9414 138.716 58.4169 138.972C57.9409 139.309 57.4105 139.566 56.846 139.733Z" fill="#263238"/>
<path d="M54.6478 136.189C55.0604 135.782 55.5387 135.445 56.0645 135.192C56.5414 134.856 57.0716 134.599 57.6355 134.43C56.746 135.174 55.7374 135.768 54.6478 136.189Z" fill="#263238"/>
<path d="M53.0657 132.276C53.4777 131.869 53.9544 131.531 54.4782 131.275C54.9559 130.94 55.4858 130.684 56.0492 130.514C55.6372 130.921 55.1605 131.259 54.6367 131.515C54.1591 131.849 53.6291 132.106 53.0657 132.276Z" fill="#263238"/>
<path d="M51.5554 128.319C52.4442 127.577 53.4515 126.985 54.5398 126.564C54.1271 126.972 53.6488 127.309 53.123 127.562C52.6469 127.896 52.1179 128.152 51.5554 128.319Z" fill="#263238"/>
<path d="M50.1312 124.31C50.5459 123.905 51.0238 123.568 51.5479 123.312C52.0248 122.976 52.5549 122.719 53.1189 122.551C52.7046 122.956 52.2265 123.293 51.7021 123.548C51.226 123.885 50.6956 124.143 50.1312 124.31Z" fill="#263238"/>
<path d="M49.1316 120.267C50.0203 119.525 51.0277 118.932 52.1159 118.512C51.7012 118.917 51.2233 119.253 50.6992 119.509C50.2238 119.845 49.6946 120.1 49.1316 120.267Z" fill="#263238"/>
<path d="M48.5955 115.851C49.4842 115.109 50.4916 114.517 51.5798 114.096C51.1651 114.502 50.6872 114.838 50.163 115.094C49.6877 115.429 49.1585 115.685 48.5955 115.851Z" fill="#263238"/>
<path d="M49.0107 111.506C49.3707 111.136 49.794 110.831 50.2625 110.606C50.6868 110.304 51.1641 110.08 51.6726 109.945C51.3149 110.31 50.8951 110.611 50.431 110.833C50.0054 111.142 49.5243 111.37 49.0107 111.506Z" fill="#263238"/>
<path d="M50.0316 107.461C50.3916 107.09 50.8149 106.786 51.2834 106.56C51.7062 106.259 52.1826 106.037 52.6902 105.904C52.3307 106.275 51.9073 106.579 51.4385 106.804C51.0165 107.107 50.5399 107.33 50.0316 107.461Z" fill="#263238"/>
<path d="M68.9227 122.451C68.7078 122.548 68.3729 122.307 68.0066 122.06C67.6404 121.814 67.3012 121.57 67.3159 121.336C67.3297 121.224 67.4736 121.144 67.6821 121.123C67.963 121.126 68.2395 121.214 68.4735 121.377C68.7075 121.54 68.8875 121.769 68.9888 122.033C69.0592 122.241 69.0204 122.401 68.9227 122.451Z" fill="#FAFAFA"/>
<path d="M72.2236 130.793C71.9958 130.845 71.6949 130.502 71.3248 130.157C70.9546 129.812 70.6185 129.529 70.6722 129.299C70.6977 129.19 70.8332 129.103 71.092 129.152C71.3947 129.208 71.6766 129.354 71.9003 129.57C72.1241 129.785 72.2792 130.061 72.3453 130.36C72.3864 130.612 72.3452 130.784 72.2236 130.793Z" fill="#FAFAFA"/>
<path d="M71.7461 122.431C71.7159 122.468 71.5934 122.306 71.4249 122.078L70.8314 121.071C70.5425 120.578 70.2181 120.105 69.8607 119.657C69.4515 119.123 68.9368 118.677 68.35 118.347C68.2274 118.28 68.099 118.225 67.9665 118.183C67.8599 118.149 67.7505 118.125 67.6401 118.113L67.3123 118.097L67.2095 117.841C66.2717 115.367 65.69 113.446 65.8975 113.384C66.1049 113.321 66.9908 115.123 67.9985 117.573L67.5756 117.301C67.7872 117.299 67.9988 117.334 68.2011 117.404C68.3865 117.455 68.566 117.527 68.7361 117.618C69.4392 118.009 70.043 118.559 70.4959 119.222C70.8262 119.713 71.1035 120.237 71.323 120.784C71.4901 121.161 71.6207 121.553 71.713 121.952C71.7999 122.236 71.8017 122.415 71.7461 122.431Z" fill="#FAFAFA"/>
</g>
<defs>
<clipPath id="clip0_64_2533">
<rect width="274.556" height="163.784" fill="white" transform="translate(104.165 0.382202) rotate(39.4119)"/>
</clipPath>
</defs>
</svg>
