<svg width="24" height="17" viewBox="0 0 24 17" fill="none" xmlns="http://www.w3.org/2000/svg">
<path d="M22.6722 0.784575L22.6729 0.783863C22.7193 0.737226 22.7745 0.700219 22.8353 0.674968C22.8961 0.649717 22.9613 0.636719 23.0271 0.636719C23.093 0.636719 23.1581 0.649717 23.2189 0.674968C23.2797 0.700219 23.3349 0.737226 23.3814 0.783864L23.3825 0.785008C23.4291 0.831453 23.466 0.886628 23.4912 0.947375C23.5164 1.00812 23.5294 1.07324 23.5294 1.13901C23.5294 1.20478 23.5164 1.2699 23.4912 1.33064C23.466 1.39139 23.4291 1.44656 23.3825 1.49301L23.3821 1.49342L9.56441 15.3081C9.0942 15.7775 8.45699 16.0411 7.79263 16.0411C7.12828 16.0411 6.49106 15.7775 6.02086 15.3081L0.675154 9.96342L0.674489 9.96276C0.627852 9.91631 0.590844 9.8611 0.565593 9.8003C0.540342 9.73951 0.527344 9.67433 0.527344 9.60851C0.527344 9.54268 0.540342 9.4775 0.565593 9.41671C0.590844 9.35592 0.627852 9.30071 0.674492 9.25426L0.675883 9.25286C0.722337 9.20623 0.777543 9.16922 0.838336 9.14397C0.899126 9.11872 0.964305 9.10572 1.03013 9.10572C1.09596 9.10572 1.16114 9.11872 1.22193 9.14397C1.28272 9.16922 1.33793 9.20623 1.38438 9.25286L1.38491 9.2534L6.72838 14.6019C6.72844 14.6019 6.72849 14.602 6.72854 14.602C6.86787 14.7419 7.03344 14.8528 7.21574 14.9285C7.39812 15.0043 7.59365 15.0433 7.79113 15.0433C7.98861 15.0433 8.18415 15.0043 8.36653 14.9285C8.54878 14.8528 8.71431 14.7419 8.85362 14.6021C8.8537 14.602 8.85379 14.602 8.85388 14.6019L22.6722 0.784575Z" fill="#26A511" stroke="#26A511"/>
</svg>
