<svg width="102" height="27" viewBox="0 0 102 27" fill="none" xmlns="http://www.w3.org/2000/svg">
<path d="M0.207386 0.636363H4.50284V13.4432H4.67188L13.4716 0.636363H17.2401V21H12.9347V8.18324H12.7855L3.93608 21H0.207386V0.636363ZM19.8228 21L19.8029 17.6392H20.31C20.668 17.6392 20.9762 17.553 21.2347 17.3807C21.4999 17.2017 21.7186 16.9134 21.891 16.5156C22.0633 16.1179 22.1992 15.5909 22.2987 14.9347C22.3981 14.2718 22.4644 13.4564 22.4975 12.4886L22.7461 5.72727H34.3597V21H30.3228V9.05824H26.5543L26.3157 13.7216C26.256 15.0009 26.1003 16.1013 25.8484 17.0227C25.6031 17.9441 25.2617 18.6998 24.8242 19.2898C24.3867 19.8731 23.8597 20.304 23.2433 20.5824C22.6268 20.8608 21.9109 21 21.0955 21H19.8228ZM40.2983 10.4205H44.8622C46.884 10.4205 48.4616 10.9044 49.5952 11.8722C50.7287 12.8333 51.2955 14.1193 51.2955 15.7301C51.2955 16.7775 51.0402 17.6989 50.5298 18.4943C50.0194 19.2831 49.2836 19.8996 48.3224 20.3438C47.3613 20.7812 46.2079 21 44.8622 21H37.6435V5.72727H41.6903V17.669H44.8622C45.5715 17.669 46.1548 17.4901 46.6122 17.1321C47.0696 16.7741 47.3016 16.3168 47.3082 15.7599C47.3016 15.17 47.0696 14.6894 46.6122 14.3182C46.1548 13.9403 45.5715 13.7514 44.8622 13.7514H40.2983V10.4205ZM64.7337 11.6733V15.0043H56.7592V11.6733H64.7337ZM58.1513 5.72727V21H54.1044V5.72727H58.1513ZM67.3885 5.72727V21H63.3714V5.72727H67.3885ZM72.7429 26.7273C72.206 26.7273 71.7022 26.6842 71.2315 26.598C70.7675 26.5185 70.383 26.4157 70.0781 26.2898L71.0327 23.1278C71.5298 23.2803 71.9773 23.3632 72.375 23.3764C72.7794 23.3897 73.1274 23.2969 73.419 23.098C73.7173 22.8991 73.9593 22.5611 74.1449 22.0838L74.3935 21.4375L68.9148 5.72727H73.3693L76.5312 16.9432H76.6903L79.8821 5.72727H84.3665L78.4304 22.6506C78.1454 23.4725 77.7576 24.1884 77.267 24.7983C76.7831 25.4148 76.17 25.8887 75.4276 26.2202C74.6851 26.5582 73.7902 26.7273 72.7429 26.7273ZM86.5341 26.7273V5.72727H90.7102V8.29261H90.8991C91.0848 7.88163 91.3532 7.46401 91.7045 7.03977C92.0625 6.6089 92.5265 6.25095 93.0966 5.96591C93.6733 5.67424 94.3892 5.52841 95.2443 5.52841C96.358 5.52841 97.3854 5.82008 98.3267 6.40341C99.268 6.98011 100.02 7.8518 100.584 9.01847C101.147 10.1785 101.429 11.6335 101.429 13.3835C101.429 15.0871 101.154 16.5256 100.604 17.6989C100.06 18.8655 99.3177 19.7505 98.3764 20.3537C97.4418 20.9503 96.3944 21.2486 95.2344 21.2486C94.4124 21.2486 93.7131 21.1127 93.1364 20.8409C92.5663 20.5691 92.099 20.2277 91.7344 19.8168C91.3698 19.3991 91.0914 18.9782 90.8991 18.554H90.7699V26.7273H86.5341ZM90.6804 13.3636C90.6804 14.2718 90.8063 15.0639 91.0582 15.7401C91.3101 16.4162 91.6747 16.9432 92.152 17.321C92.6293 17.6922 93.2093 17.8778 93.892 17.8778C94.5814 17.8778 95.1648 17.6889 95.642 17.3111C96.1193 16.9266 96.4806 16.3963 96.7259 15.7202C96.9777 15.0374 97.1037 14.2519 97.1037 13.3636C97.1037 12.482 96.9811 11.7064 96.7358 11.0369C96.4905 10.3674 96.1293 9.84375 95.652 9.46591C95.1747 9.08807 94.5881 8.89915 93.892 8.89915C93.2027 8.89915 92.6193 9.08144 92.142 9.44602C91.6714 9.81061 91.3101 10.3277 91.0582 10.9972C90.8063 11.6667 90.6804 12.4555 90.6804 13.3636Z" fill="#1C1C1C"/>
</svg>
