<svg width="72" height="72" viewBox="0 0 72 72" fill="none" xmlns="http://www.w3.org/2000/svg">
<rect width="72" height="72" rx="36" fill="#FFC336"/>
<g clip-path="url(#clip0_28_3815)">
<path d="M36 0C28.8799 0 21.9197 2.11136 15.9995 6.06709C10.0793 10.0228 5.46511 15.6453 2.74035 22.2234C0.0155983 28.8015 -0.697322 36.0399 0.691746 43.0233C2.08081 50.0066 5.50948 56.4212 10.5442 61.4558C15.5789 66.4905 21.9935 69.9192 28.9768 71.3083C35.9601 72.6973 43.1985 71.9844 49.7766 69.2597C56.3548 66.5349 61.9772 61.9207 65.9329 56.0005C69.8886 50.0804 72 43.1201 72 36C71.9897 26.4554 68.1935 17.3046 61.4445 10.5556C54.6954 3.80648 45.5446 0.0103232 36 0V0ZM36 66C30.0666 66 24.2664 64.2405 19.3329 60.9441C14.3994 57.6476 10.5543 52.9623 8.28363 47.4805C6.013 41.9987 5.4189 35.9667 6.57646 30.1473C7.73401 24.3279 10.5912 18.9824 14.7868 14.7868C18.9824 10.5912 24.3279 7.734 30.1473 6.57644C35.9667 5.41889 41.9987 6.01299 47.4805 8.28362C52.9623 10.5542 57.6477 14.3994 60.9441 19.3329C64.2405 24.2664 66 30.0666 66 36C65.9913 43.9538 62.8278 51.5794 57.2036 57.2036C51.5794 62.8278 43.9538 65.9913 36 66Z" fill="white"/>
<path d="M36 30H33C32.2044 30 31.4413 30.3161 30.8787 30.8787C30.3161 31.4413 30 32.2044 30 33C30 33.7956 30.3161 34.5587 30.8787 35.1213C31.4413 35.6839 32.2044 36 33 36H36V54C36 54.7956 36.3161 55.5587 36.8787 56.1213C37.4413 56.6839 38.2044 57 39 57C39.7956 57 40.5587 56.6839 41.1213 56.1213C41.6839 55.5587 42 54.7956 42 54V36C42 34.4087 41.3679 32.8826 40.2426 31.7574C39.1174 30.6321 37.5913 30 36 30Z" fill="white"/>
<path d="M36 24C38.4853 24 40.5 21.9853 40.5 19.5C40.5 17.0147 38.4853 15 36 15C33.5147 15 31.5 17.0147 31.5 19.5C31.5 21.9853 33.5147 24 36 24Z" fill="white"/>
</g>
<defs>
<clipPath id="clip0_28_3815">
<rect width="72" height="72" fill="white"/>
</clipPath>
</defs>
</svg>
