<svg width="51" height="22" viewBox="0 0 51 22" fill="none" xmlns="http://www.w3.org/2000/svg">
<path d="M0.137074 0.636363H4.43253V13.4432H4.60156L13.4013 0.636363H17.1697V21H12.8643V8.18324H12.7152L3.86577 21H0.137074V0.636363ZM27.5479 21.2983C25.9835 21.2983 24.6379 20.9669 23.511 20.304C22.3907 19.6345 21.529 18.7064 20.9258 17.5199C20.3292 16.3333 20.0309 14.9678 20.0309 13.4233C20.0309 11.8589 20.3325 10.4867 20.9357 9.30682C21.5456 8.12026 22.4106 7.19555 23.5309 6.53267C24.6512 5.86316 25.9835 5.52841 27.5281 5.52841C28.8604 5.52841 30.0271 5.77036 31.0281 6.25426C32.029 6.73816 32.8211 7.41761 33.4045 8.29261C33.9878 9.16761 34.3093 10.1951 34.369 11.375H30.3718C30.2591 10.6127 29.9608 9.99953 29.4769 9.53551C28.9996 9.06487 28.3732 8.82955 27.5977 8.82955C26.9414 8.82955 26.368 9.00852 25.8775 9.36648C25.3936 9.7178 25.0157 10.2315 24.744 10.9077C24.4722 11.5838 24.3363 12.4025 24.3363 13.3636C24.3363 14.3381 24.4689 15.1667 24.734 15.8494C25.0058 16.5322 25.387 17.0526 25.8775 17.4105C26.368 17.7685 26.9414 17.9474 27.5977 17.9474C28.0816 17.9474 28.5157 17.848 28.9002 17.6491C29.2913 17.4503 29.6128 17.1619 29.8647 16.7841C30.1232 16.3996 30.2923 15.9389 30.3718 15.402H34.369C34.3027 16.5687 33.9845 17.5961 33.4144 18.4844C32.851 19.366 32.0721 20.0554 31.0778 20.5526C30.0835 21.0497 28.9068 21.2983 27.5479 21.2983ZM41.4361 21.2884C40.4616 21.2884 39.5933 21.1193 38.831 20.7812C38.0687 20.4366 37.4654 19.9295 37.0213 19.2599C36.5838 18.5838 36.3651 17.742 36.3651 16.7344C36.3651 15.8859 36.5208 15.1733 36.8324 14.5966C37.1439 14.0199 37.5682 13.5559 38.1051 13.2045C38.642 12.8532 39.2519 12.5881 39.9347 12.4091C40.6241 12.2301 41.3466 12.1042 42.1023 12.0312C42.9905 11.9384 43.7064 11.8523 44.25 11.7727C44.7936 11.6866 45.188 11.5606 45.4332 11.3949C45.6785 11.2292 45.8011 10.9839 45.8011 10.6591V10.5994C45.8011 9.9697 45.6023 9.48248 45.2045 9.13778C44.8134 8.79309 44.2566 8.62074 43.5341 8.62074C42.7718 8.62074 42.1652 8.78977 41.7145 9.12784C41.2637 9.45928 40.9654 9.87689 40.8196 10.3807L36.902 10.0625C37.1009 9.13447 37.492 8.33239 38.0753 7.65625C38.6586 6.97348 39.411 6.44981 40.3324 6.08523C41.2604 5.71401 42.3343 5.52841 43.554 5.52841C44.4025 5.52841 45.2145 5.62784 45.9901 5.8267C46.7723 6.02557 47.465 6.33381 48.0682 6.75142C48.678 7.16903 49.1586 7.70597 49.5099 8.36222C49.8613 9.01184 50.0369 9.79072 50.0369 10.6989V21H46.0199V18.8821H45.9006C45.6553 19.3594 45.3272 19.7803 44.9162 20.1449C44.5052 20.5028 44.0114 20.7846 43.4347 20.9901C42.858 21.1889 42.1918 21.2884 41.4361 21.2884ZM42.6491 18.3651C43.2723 18.3651 43.8224 18.2424 44.2997 17.9972C44.777 17.7453 45.1515 17.4072 45.4233 16.983C45.6951 16.5587 45.831 16.0781 45.831 15.5412V13.9205C45.6984 14.0066 45.5161 14.0862 45.2841 14.1591C45.0587 14.2254 44.8035 14.2884 44.5185 14.348C44.2334 14.401 43.9484 14.4508 43.6634 14.4972C43.3783 14.5369 43.1198 14.5734 42.8878 14.6065C42.3906 14.6795 41.9564 14.7955 41.5852 14.9545C41.214 15.1136 40.9257 15.3291 40.7202 15.6009C40.5147 15.866 40.4119 16.1974 40.4119 16.5952C40.4119 17.1719 40.6207 17.6127 41.0384 17.9176C41.4626 18.2159 41.9995 18.3651 42.6491 18.3651Z" fill="#1C1C1C"/>
</svg>
