<svg width="108" height="129" viewBox="0 0 108 129" fill="none" xmlns="http://www.w3.org/2000/svg">
<path d="M106.554 62.3731C111.484 49.3293 102.789 39.8642 89.8007 31.9959L98.3017 14.7208L87.7855 9.54767L79.5093 26.3681C76.7448 25.0074 73.8924 23.6718 71.0571 22.3461L79.3909 5.41528L68.8816 0.243611L60.3794 17.5122C58.0804 16.4388 55.823 15.3811 53.6428 14.3095L53.6681 14.2548L39.1678 7.1126L33.6438 18.3449C33.6438 18.3449 41.4816 22.0184 41.2826 22.0972C45.5407 24.1939 45.7104 27.3495 45.0645 29.6819L35.3806 49.3624C35.6735 49.5081 36.0509 49.7089 36.4559 49.9831C36.105 49.8108 35.7322 49.625 35.3439 49.4384L21.7739 77.0071C20.9281 78.2556 19.0881 80.0059 16.1098 78.5462C16.1863 78.7316 8.46708 74.7831 8.46708 74.7831L0.197341 86.3131L13.8821 93.0467C16.4271 94.3035 18.9114 95.5797 21.3646 96.8052L12.7714 114.28L23.2747 119.45L31.781 102.162C34.636 103.641 37.4152 105.037 40.1419 106.376L31.6695 123.581L42.1863 128.755L50.7715 111.315C68.9495 119 83.5139 120.636 93.2197 104.79C101.038 92.0323 97.6853 82.9737 88.8366 75.6258C96.4615 75.5213 102.961 71.9251 106.554 62.3731ZM73.4575 92.4925C67.0378 105.552 45.4119 93.0657 38.282 89.5655L49.6767 66.4172C56.804 69.9273 80.1597 78.874 73.4575 92.4925ZM84.6388 57.4248C78.7904 69.3021 60.8274 58.7411 54.8911 55.8202L65.2236 34.8257C71.1598 37.7466 90.7339 45.0349 84.6388 57.4248Z" fill="white"/>
</svg>
