<svg width="14" height="14" viewBox="0 0 14 14" fill="none" xmlns="http://www.w3.org/2000/svg">
<path d="M6.99982 6.29317L6.64626 5.93962L2.06032 1.35367C2.0603 1.35365 2.06028 1.35363 2.06026 1.35362C1.96651 1.25991 1.83937 1.20728 1.70682 1.20728C1.57429 1.20728 1.44718 1.25989 1.35342 1.35356C1.35339 1.3536 1.35335 1.35363 1.35332 1.35367M6.99982 6.29317L1.35332 1.35367M6.99982 6.29317L7.35337 5.93962L11.9393 1.35367C11.9393 1.35365 11.9394 1.35363 11.9394 1.35362C12.0331 1.25991 12.1603 1.20728 12.2928 1.20728C12.4254 1.20728 12.5526 1.25993 12.6463 1.35367C12.74 1.44742 12.7926 1.57453 12.7926 1.70706C12.7926 1.83962 12.74 1.96675 12.6463 2.06051C12.6462 2.06053 12.6462 2.06054 12.6462 2.06056L8.06026 6.64651L7.70671 7.00006L8.06026 7.35362L12.6462 11.9396C12.6462 11.9396 12.6462 11.9396 12.6463 11.9396M6.99982 6.29317L12.6463 11.9396M1.35332 1.35367C1.25965 1.44742 1.20703 1.57453 1.20703 1.70706C1.20703 1.83962 1.25967 1.96675 1.35337 2.06051M1.35332 1.35367L1.35337 2.06051M1.35337 2.06051C1.35339 2.06053 1.35341 2.06054 1.35342 2.06056L5.93937 6.64651L6.29292 7.00006L5.93937 7.35362L1.35342 11.9396C1.35341 11.9396 1.35339 11.9396 1.35337 11.9396C1.25967 12.0334 1.20703 12.1605 1.20703 12.2931C1.20703 12.4256 1.25969 12.5528 1.35342 12.6466C1.44718 12.7402 1.57428 12.7928 1.70682 12.7928C1.83938 12.7928 1.96651 12.7402 2.06026 12.6465C2.06028 12.6465 2.0603 12.6465 2.06032 12.6465L6.64626 8.06051L6.99982 7.70695L7.35337 8.06051L11.9393 12.6465C11.9393 12.6465 11.9394 12.6465 11.9394 12.6465C12.0331 12.7402 12.1603 12.7928 12.2928 12.7928C12.4254 12.7928 12.5525 12.7402 12.6462 12.6466C12.6462 12.6465 12.6463 12.6465 12.6463 12.6465M1.35337 2.06051L12.6463 12.6465M12.6463 12.6465C12.74 12.5527 12.7926 12.4256 12.7926 12.2931C12.7926 12.1605 12.74 12.0334 12.6463 11.9396M12.6463 12.6465L12.6463 11.9396" fill="#A51111" stroke="#A51111"/>
</svg>
