<svg width="114" height="129" viewBox="0 0 114 129" fill="none" xmlns="http://www.w3.org/2000/svg">
<path d="M85.0404 21.8828C77.4239 10.2019 64.6506 11.6321 50.6319 17.4694L41.708 0.40895L31.3239 5.84243L40.0135 22.4531C37.2831 23.881 34.5211 25.3946 31.7771 26.9003L23.0324 10.178L12.6536 15.6068L21.5715 32.6644C19.3478 33.8862 17.1613 35.0837 15.0092 36.2107L14.98 36.158L0.654484 43.6445L6.45882 54.7345C6.45882 54.7345 14.0512 50.5775 13.9973 50.7846C18.2036 48.5857 20.8506 50.3118 22.3518 52.2102L32.5187 71.6456C32.8093 71.4953 33.1942 71.3092 33.6546 71.1441C33.3084 71.3257 32.9382 71.5169 32.5584 71.7201L46.7976 98.9492C47.3059 100.369 47.6323 102.887 44.6956 104.429C44.8905 104.477 37.1462 108.376 37.1462 108.376L41.5696 121.858L55.084 114.789C57.6009 113.476 60.0976 112.225 62.5351 110.968L71.5653 128.221L81.9396 122.796L73.0085 105.724C75.888 104.293 78.6556 102.874 81.3461 101.464L90.2304 118.46L100.615 113.026L91.6079 95.8003C108.543 85.6663 118.462 74.8769 111.403 57.6875C105.722 43.8452 96.4316 41.2031 85.2767 44.0068C89.6941 37.791 90.6291 30.4218 85.0404 21.8828ZM89.8101 66.3775C96.5606 79.2695 73.7146 89.3518 66.68 93.0399L54.7242 70.1763C61.7652 66.4962 82.7755 52.9277 89.8101 66.3775ZM68.1082 36.6489C74.2415 48.3816 55.1122 56.6445 49.25 59.7112L38.4054 38.9766C44.2676 35.9098 61.7067 24.4145 68.1082 36.6489Z" fill="white"/>
</svg>
