<svg width="659" height="749" viewBox="0 0 659 749" fill="none" xmlns="http://www.w3.org/2000/svg">
<rect x="45.501" y="93.5" width="545" height="545" rx="272.5" stroke="#FFC336"/>
<g clip-path="url(#clip0_112_2370)">
<g opacity="0.6">
<path d="M35.0349 510.702C35.0349 510.702 36.5636 527.375 81.8957 543.776C81.8957 543.776 124.7 563.009 127.448 540.12C129.787 520.642 106.462 507.93 92.4043 502.072C84.2153 498.799 75.7093 496.506 67.0595 495.24C52.9968 493.338 36.9554 495.98 35.0349 510.702Z" fill="#FFC336"/>
<path opacity="0.4" d="M35.0349 510.702C35.0349 510.702 36.5636 527.375 81.8957 543.776C81.8957 543.776 124.7 563.009 127.448 540.12C129.787 520.642 106.462 507.93 92.4043 502.072C84.2153 498.799 75.7093 496.506 67.0595 495.24C52.9968 493.338 36.9554 495.98 35.0349 510.702Z" fill="black"/>
<path d="M35.1749 511.955C35.1749 511.955 34.4643 533.912 79.8215 550.364C79.8215 550.364 125.571 565.288 126.222 542.153C126.671 526.306 104.38 514.502 90.3226 508.644C82.9513 505.56 71.9896 501.928 64.1263 500.865C50.0511 498.949 36.2045 500.881 35.1749 511.955Z" fill="#FFC336"/>
<path opacity="0.2" d="M85.4817 513.324C65.6752 506.154 47.592 506.689 45.0917 514.518C42.5913 522.347 56.6207 534.506 76.4272 541.675C96.2337 548.845 114.317 548.31 116.817 540.481C119.318 532.652 105.288 520.493 85.4817 513.324Z" fill="white"/>
<path d="M57.3374 516.819L63.7127 519.123L63.1806 520.789L56.9887 518.535L55.951 521.797L62.5744 524.195L61.7607 526.756L95.3988 538.932L95.9503 537.206L102.504 539.822L103.708 536.052L97.0099 533.628L97.347 532.572L103.851 534.927L105.005 531.315L97.3888 528.529C97.3888 528.529 98.3681 525.67 89.6914 521.747C83.0826 518.758 79.5871 521.761 79.5871 521.761C79.5871 521.761 78.6392 519.101 73.9625 516.769C71.0128 515.381 67.7206 515.045 64.6239 515.815L58.3775 513.55L57.3374 516.819ZM88.0043 525.418C92.9051 527.633 90.3797 532.733 90.3797 532.733L82.0471 529.721C82.0471 529.721 83.1061 523.195 88.0043 525.418ZM74.174 520.929C78.7777 523.113 75.7461 527.146 75.7461 527.146L68.5595 524.549C68.5595 524.549 68.8873 518.401 74.1888 520.922L74.174 520.929Z" fill="#FFC336"/>
<path opacity="0.4" d="M57.3374 516.819L63.7127 519.123L63.1806 520.789L56.9887 518.535L55.951 521.797L62.5744 524.195L61.7607 526.756L95.3988 538.932L95.9503 537.206L102.504 539.822L103.708 536.052L97.0099 533.628L97.347 532.572L103.851 534.927L105.005 531.315L97.3888 528.529C97.3888 528.529 98.3681 525.67 89.6914 521.747C83.0826 518.758 79.5871 521.761 79.5871 521.761C79.5871 521.761 78.6392 519.101 73.9625 516.769C71.0128 515.381 67.7206 515.045 64.6239 515.815L58.3775 513.55L57.3374 516.819ZM88.0043 525.418C92.9051 527.633 90.3797 532.733 90.3797 532.733L82.0471 529.721C82.0471 529.721 83.1061 523.195 88.0043 525.418ZM74.174 520.929C78.7777 523.113 75.7461 527.146 75.7461 527.146L68.5595 524.549C68.5595 524.549 68.8873 518.401 74.1888 520.922L74.174 520.929Z" fill="black"/>
<path d="M57.3278 519.759L63.7007 522.07L63.171 523.729L56.9866 521.491L55.9491 524.765L62.5774 527.161L61.7612 529.716L95.3944 541.895L95.9458 540.169L102.507 542.787L103.711 539.018L97.0129 536.593L97.35 535.538L103.849 537.895L105 534.278L97.3647 531.514C97.3647 531.514 98.3466 528.661 89.6747 524.735C83.066 521.746 79.5704 524.749 79.5704 524.749C79.5704 524.749 78.6226 522.089 73.9459 519.757C70.9952 518.37 67.7032 518.032 64.6048 518.798L58.356 516.54L57.3278 519.759ZM87.9947 528.358C92.893 530.581 90.3726 535.678 90.3726 535.678L82.0151 532.653C82.0151 532.653 83.099 526.14 87.9947 528.358ZM74.1669 523.874C78.7706 526.058 75.739 530.091 75.739 530.091L68.5546 527.461C68.5546 527.461 68.8903 521.367 74.1817 523.867L74.1669 523.874Z" fill="#FFC336"/>
<path d="M35.4672 514.302C35.546 514.264 35.9471 515.75 37.0445 518.255C38.619 521.776 40.6828 525.058 43.1699 527.996C44.8784 530.026 46.7398 531.918 48.7359 533.652C51.034 535.636 53.4719 537.44 56.0282 539.051C61.3971 542.504 67.7977 545.443 74.5998 548.204C88.1679 553.826 101.552 555.656 110.927 554.705C115.611 554.205 119.234 552.791 121.35 551.248L122.104 550.718L122.723 550.185C122.917 550.02 123.091 549.864 123.256 549.726C123.42 549.588 123.533 549.431 123.66 549.305C123.887 549.028 124.144 548.778 124.425 548.56C124.243 548.872 124.03 549.162 123.787 549.426C123.677 549.563 123.56 549.723 123.403 549.889C123.246 550.055 123.074 550.203 122.893 550.381C122.711 550.559 122.51 550.76 122.29 550.958C122.069 551.155 121.808 551.334 121.54 551.536C119.443 553.203 115.774 554.735 111.006 555.326C101.517 556.455 87.9899 554.695 74.2953 549.028C67.4659 546.261 61.0573 543.256 55.6088 539.74C53.027 538.094 50.5708 536.244 48.2634 534.209C46.2561 532.429 44.393 530.484 42.6936 528.395C40.2126 525.384 38.1967 522.008 36.7192 518.389C36.4491 517.753 36.2562 517.174 36.0861 516.667C35.9345 516.246 35.8037 515.819 35.6942 515.386C35.5832 515.032 35.5071 514.669 35.4672 514.302Z" fill="#FAFAFA"/>
<path opacity="0.4" d="M116.33 541.593C116.33 541.593 110.049 556.179 75.6901 544.217C41.3317 532.255 45.0908 514.519 45.0908 514.519C45.0908 514.519 42.0274 529.193 77.3508 542.085C108.11 553.307 116.33 541.593 116.33 541.593Z" fill="black"/>
<path d="M55.697 524.254C56.3557 524.378 56.9995 524.585 57.6138 524.868C58.8221 525.322 60.559 526.006 62.6931 526.862L62.9984 526.985L62.8676 527.304L61.9439 529.442L61.6922 528.931C65.1549 530.15 69.3719 531.66 73.9093 533.324C79.8235 535.498 85.1429 537.508 89.0061 538.994C90.934 539.743 92.4874 540.364 93.5645 540.8C94.1309 540.991 94.6727 541.257 95.1762 541.589C94.5837 541.512 94.0008 541.359 93.4412 541.134C92.3402 540.786 90.7604 540.26 88.8184 539.595C84.9218 538.252 79.5513 536.337 73.6396 534.168C69.1022 532.505 64.907 530.94 61.4731 529.629L61.096 529.485L61.2587 529.131L62.3036 527.003L62.483 527.442C60.3779 526.508 58.6773 525.737 57.5053 525.182C56.8715 524.944 56.2647 524.633 55.697 524.254Z" fill="#FAFAFA"/>
<path d="M73.6388 523.372C73.67 523.261 73.954 523.217 74.3956 523.381C74.9597 523.59 75.4678 523.938 75.8733 524.395C76.2844 524.847 76.5823 525.393 76.7401 525.983C76.8479 526.439 76.796 526.731 76.6875 526.759C76.448 526.807 76.0566 525.862 75.2453 524.984C74.434 524.106 73.5667 523.611 73.6388 523.372Z" fill="#FAFAFA"/>
<path d="M89.354 529.107C89.4075 529.004 89.6399 529.004 89.9849 529.146C90.3958 529.364 90.749 529.683 91.0111 530.075C91.2731 530.466 91.4356 530.916 91.483 531.383C91.5059 531.74 91.4188 531.961 91.3027 531.974C91.0605 531.991 90.7972 531.282 90.3013 530.56C89.8054 529.838 89.2596 529.35 89.354 529.107Z" fill="#FAFAFA"/>
<path d="M77.5652 510.128C77.6127 509.902 80.7367 510.545 84.3679 512.095C87.9992 513.645 90.6757 515.454 90.5662 515.655C90.4566 515.855 87.6301 514.424 84.0584 512.908C80.4868 511.392 77.4979 510.352 77.5652 510.128Z" fill="#FAFAFA"/>
<path d="M123.028 523.612C123.014 523.678 122.992 523.742 122.963 523.802L122.759 524.309C122.568 524.74 122.298 525.337 121.977 525.965C121.642 526.776 121.224 527.546 120.729 528.263C120.963 527.413 121.294 526.598 121.717 525.833C122.336 524.568 122.921 523.531 123.028 523.612Z" fill="#263238"/>
<path d="M126.738 531.154C126.729 531.209 126.712 531.262 126.688 531.312L126.521 531.731C126.373 532.077 126.152 532.548 125.911 533.079C125.65 533.736 125.306 534.354 124.889 534.917C125.046 534.223 125.303 533.559 125.651 532.947C126.146 531.902 126.629 531.068 126.738 531.154Z" fill="#263238"/>
<path d="M118.433 518.176C118.142 519.1 117.759 519.989 117.291 520.829C116.91 521.712 116.442 522.552 115.894 523.334C116.189 522.413 116.573 521.526 117.038 520.687C117.419 519.802 117.887 518.961 118.433 518.176Z" fill="#263238"/>
<path d="M113.193 513.655C112.876 514.639 112.466 515.586 111.966 516.483C111.556 517.428 111.06 518.33 110.483 519.176C110.802 518.193 111.213 517.246 111.71 516.348C112.123 515.404 112.619 514.502 113.193 513.655Z" fill="#263238"/>
<path d="M106.686 509.516C106.367 510.501 105.957 511.449 105.462 512.349C105.052 513.295 104.553 514.196 103.972 515.04C104.296 514.057 104.708 513.11 105.204 512.209C105.614 511.264 106.111 510.363 106.686 509.516Z" fill="#263238"/>
<path d="M100.259 506.088C99.9417 507.073 99.5317 508.022 99.0341 508.921C98.6248 509.866 98.1275 510.766 97.5488 511.609C97.8701 510.627 98.2808 509.68 98.7757 508.781C99.1865 507.836 99.6828 506.935 100.259 506.088Z" fill="#263238"/>
<path d="M93.8317 502.66C93.515 503.645 93.1049 504.594 92.6074 505.493C92.198 506.437 91.7007 507.337 91.1221 508.181C91.4434 507.198 91.8541 506.252 92.349 505.353C92.7613 504.409 93.2576 503.507 93.8317 502.66Z" fill="#263238"/>
<path d="M86.8577 500.346C86.5398 501.329 86.129 502.276 85.6308 503.174C85.223 504.119 84.7256 505.019 84.1455 505.862C84.4668 504.879 84.8775 503.933 85.3724 503.034C85.7859 502.091 86.283 501.192 86.8577 500.346Z" fill="#263238"/>
<path d="M79.8138 498.187C79.4904 499.169 79.0798 500.115 78.5869 501.015C78.1783 501.962 77.6792 502.863 77.0967 503.706C77.4208 502.723 77.8331 501.776 78.3285 500.875C78.7363 499.93 79.2337 499.03 79.8138 498.187Z" fill="#263238"/>
<path d="M72.6868 496.196C72.3655 497.178 71.9548 498.125 71.4599 499.024C71.0506 499.968 70.5532 500.868 69.9746 501.712C70.2959 500.729 70.7066 499.783 71.2015 498.884C71.6108 497.939 72.1082 497.039 72.6868 496.196Z" fill="#263238"/>
<path d="M65.5289 494.926C65.2154 495.916 64.8079 496.87 64.3121 497.774C63.8941 498.706 63.3901 499.592 62.8066 500.421C63.1279 499.439 63.5387 498.492 64.0335 497.593C64.4513 496.658 64.9517 495.765 65.5289 494.926Z" fill="#263238"/>
<path d="M57.7927 494.543C57.4731 495.529 57.0615 496.479 56.5634 497.379C56.1556 498.324 55.6582 499.225 55.0781 500.067C55.4015 499.086 55.8121 498.139 56.305 497.239C56.7166 496.293 57.2147 495.39 57.7927 494.543Z" fill="#263238"/>
<path d="M50.291 495.844C50.0179 496.726 49.6565 497.575 49.2125 498.377C48.8533 499.226 48.4042 500.031 47.873 500.777C48.1491 499.895 48.5129 499.048 48.9591 498.247C49.3163 497.397 49.7629 496.591 50.291 495.844Z" fill="#263238"/>
<path d="M43.3726 498.18C43.1018 499.063 42.7403 499.912 42.294 500.713C41.9289 501.556 41.481 502.358 40.957 503.105C41.2236 502.22 41.5853 501.371 42.0356 500.573C42.3976 499.727 42.8457 498.926 43.3726 498.18Z" fill="#263238"/>
<path d="M137.499 629.069C122.218 623.538 105.822 631.604 100.877 647.085C95.9331 662.566 104.313 679.601 119.594 685.132C134.876 690.664 151.272 682.598 156.216 667.116C161.16 651.635 152.78 634.601 137.499 629.069Z" fill="#FFC336"/>
<path opacity="0.2" d="M137.499 629.069C122.218 623.538 105.822 631.604 100.877 647.085C95.9331 662.566 104.313 679.601 119.594 685.132C134.876 690.664 151.272 682.598 156.216 667.116C161.16 651.635 152.78 634.601 137.499 629.069Z" fill="white"/>
<path d="M100.413 663.755C100.621 663.191 100.917 662.667 101.29 662.205C101.578 661.686 101.949 661.222 102.388 660.832C102.186 661.391 101.897 661.911 101.531 662.372C101.238 662.896 100.86 663.363 100.413 663.755Z" fill="#263238"/>
<path d="M99.6514 658.651C99.8415 658.112 100.118 657.611 100.469 657.168C100.745 656.672 101.102 656.23 101.527 655.86C101.336 656.4 101.06 656.901 100.708 657.343C100.434 657.84 100.076 658.283 99.6514 658.651Z" fill="#263238"/>
<path d="M99.584 653.677C99.7693 653.135 100.046 652.633 100.402 652.194C100.675 651.695 101.032 651.251 101.457 650.881C101.271 651.422 100.994 651.924 100.638 652.364C100.364 652.861 100.007 653.305 99.584 653.677Z" fill="#263238"/>
<path d="M102.11 668.722C102.313 668.162 102.602 667.642 102.968 667.181C103.256 666.663 103.627 666.199 104.066 665.808C103.864 666.368 103.574 666.888 103.209 667.349C102.922 667.868 102.55 668.332 102.11 668.722Z" fill="#263238"/>
<path d="M104.429 672.976C104.629 672.417 104.92 671.898 105.288 671.441C105.579 670.924 105.95 670.46 106.387 670.068C106.189 670.63 105.9 671.152 105.532 671.613C105.239 672.127 104.867 672.587 104.429 672.976Z" fill="#263238"/>
<path d="M107.439 676.795C107.633 676.242 107.913 675.727 108.267 675.269C108.545 674.759 108.905 674.303 109.334 673.919C109.143 674.471 108.865 674.985 108.511 675.442C108.231 675.952 107.869 676.41 107.439 676.795Z" fill="#263238"/>
<path d="M110.641 680.094C110.84 679.534 111.13 679.013 111.498 678.554C111.788 678.037 112.159 677.574 112.596 677.181C112.396 677.744 112.105 678.267 111.737 678.729C111.446 679.243 111.076 679.704 110.641 680.094Z" fill="#263238"/>
<path d="M114.55 682.83C114.748 682.268 115.038 681.748 115.407 681.29C115.695 680.771 116.066 680.307 116.505 679.917C116.303 680.474 116.015 680.993 115.653 681.454C115.363 681.974 114.99 682.438 114.55 682.83Z" fill="#263238"/>
<path d="M118.694 684.852C118.9 684.292 119.191 683.771 119.556 683.309C119.843 682.792 120.213 682.329 120.65 681.939C120.448 682.498 120.158 683.018 119.793 683.479C119.505 683.997 119.134 684.461 118.694 684.852Z" fill="#263238"/>
<path d="M122.638 686.127C122.843 685.568 123.134 685.047 123.5 684.585C123.787 684.067 124.156 683.604 124.593 683.214C124.391 683.774 124.102 684.294 123.736 684.755C123.448 685.273 123.077 685.737 122.638 686.127Z" fill="#263238"/>
<path d="M127.123 686.653C127.335 686.073 127.634 685.531 128.009 685.048C128.309 684.513 128.693 684.032 129.145 683.625C128.93 684.203 128.63 684.741 128.253 685.221C127.956 685.759 127.574 686.243 127.123 686.653Z" fill="#263238"/>
<path d="M131.698 686.716C131.91 686.139 132.209 685.602 132.585 685.123C132.89 684.592 133.273 684.112 133.72 683.701C133.511 684.279 133.211 684.817 132.833 685.293C132.534 685.829 132.151 686.31 131.698 686.716Z" fill="#263238"/>
<path d="M136.255 686.031C136.461 685.459 136.731 684.915 137.059 684.409C137.303 683.842 137.647 683.328 138.075 682.892C137.889 683.477 137.63 684.032 137.303 684.543C137.06 685.111 136.703 685.618 136.255 686.031Z" fill="#263238"/>
<path d="M140.897 684.427C141.155 683.784 141.503 683.184 141.931 682.648C142.27 682.057 142.689 681.519 143.176 681.05C142.926 681.689 142.587 682.284 142.167 682.818C141.82 683.414 141.393 683.956 140.897 684.427Z" fill="#263238"/>
<path d="M146.541 681.016C146.81 680.335 147.166 679.696 147.6 679.116C147.953 678.477 148.39 677.892 148.898 677.378C148.629 678.059 148.274 678.699 147.842 679.283C147.487 679.919 147.049 680.502 146.541 681.016Z" fill="#263238"/>
<path d="M151.657 634.403C140.757 621.997 122.357 620.685 110.561 631.472C98.7656 642.26 98.0398 661.061 108.94 673.467C119.841 685.873 138.24 687.185 150.036 676.398C161.832 665.61 162.558 646.809 151.657 634.403Z" fill="#FFC336"/>
<path opacity="0.2" d="M148.46 643.076C141.982 632.254 128.523 628.466 118.398 634.616C108.272 640.766 105.315 654.525 111.793 665.347C118.27 676.169 131.73 679.957 141.855 673.807C151.98 667.657 154.937 653.898 148.46 643.076Z" fill="white"/>
<path d="M148.374 643.122C151.432 648.217 152.463 654.273 151.245 660.001C150.028 665.728 146.658 670.676 141.855 673.789C142.042 673.697 142.229 673.605 142.399 673.477C147.382 670.45 150.927 665.483 152.252 659.668C152.908 656.79 153 653.79 152.521 650.839C152.043 647.889 151.004 645.047 149.465 642.474C147.925 639.902 145.914 637.65 143.547 635.847C141.18 634.044 138.504 632.726 135.67 631.967C132.836 631.208 129.901 631.023 127.032 631.424C124.163 631.824 121.416 632.802 118.949 634.301C118.761 634.393 118.594 634.526 118.422 634.636C123.394 631.812 129.305 631.119 134.898 632.704C140.491 634.289 145.326 638.026 148.374 643.122Z" fill="#FAFAFA"/>
<path opacity="0.3" d="M111.863 665.296C108.807 660.199 107.78 654.142 109.001 648.415C110.223 642.687 113.595 637.742 118.402 634.632C118.215 634.724 118.027 634.816 117.858 634.944C112.874 637.972 109.33 642.939 108.005 648.753C106.68 654.567 107.682 660.752 110.792 665.947C113.902 671.142 118.864 674.922 124.587 676.454C130.309 677.987 136.324 677.148 141.308 674.12C141.495 674.028 141.662 673.895 141.834 673.785C136.861 676.615 130.945 677.311 125.347 675.726C119.749 674.14 114.911 670.398 111.863 665.296Z" fill="black"/>
<path d="M128.866 643.11C126.229 644.712 125.307 647.066 125.763 649.422C124.103 648.535 121.999 648.547 119.912 649.815C117.312 651.393 116.378 654.019 117.454 657.252L114.251 659.196L116.098 662.279L119.075 660.471L120.118 662.22L117.144 664.033L118.996 667.113L121.97 665.3L123.654 668.113L124.828 670.077L127.785 668.28L126.611 666.315L140.992 657.576L142.289 659.74L145.246 657.942L143.952 655.783L142.268 652.97L145.734 650.864L143.887 647.782L140.426 649.885L139.377 648.138L142.839 646.035L140.997 642.95L137.418 645.124C134.877 641.925 131.872 641.288 128.866 643.11ZM124.287 662.4L121.788 658.24C120.405 655.927 120.545 654.047 122.429 652.904C124.314 651.761 126 652.527 127.385 654.845L130.22 659.577L124.621 662.967L124.287 662.4ZM135.768 648.821L138.784 653.87L138.997 654.229L133.137 657.785L129.906 652.385C128.395 649.862 128.478 647.953 130.507 646.719C132.537 645.486 134.257 646.298 135.768 648.821Z" fill="#FFC336"/>
<path opacity="0.3" d="M128.866 643.11C126.229 644.712 125.307 647.066 125.763 649.422C124.103 648.535 121.999 648.547 119.912 649.815C117.312 651.393 116.378 654.019 117.454 657.252L114.251 659.196L116.098 662.279L119.075 660.471L120.118 662.22L117.144 664.033L118.996 667.113L121.97 665.3L123.654 668.113L124.828 670.077L127.785 668.28L126.611 666.315L140.992 657.576L142.289 659.74L145.246 657.942L143.952 655.783L142.268 652.97L145.734 650.864L143.887 647.782L140.426 649.885L139.377 648.138L142.839 646.035L140.997 642.95L137.418 645.124C134.877 641.925 131.872 641.288 128.866 643.11ZM124.287 662.4L121.788 658.24C120.405 655.927 120.545 654.047 122.429 652.904C124.314 651.761 126 652.527 127.385 654.845L130.22 659.577L124.621 662.967L124.287 662.4ZM135.768 648.821L138.784 653.87L138.997 654.229L133.137 657.785L129.906 652.385C128.395 649.862 128.478 647.953 130.507 646.719C132.537 645.486 134.257 646.298 135.768 648.821Z" fill="black"/>
<path d="M130.251 642.244C127.608 643.849 126.692 646.2 127.147 648.556C125.488 647.669 123.383 647.681 121.292 648.951C118.697 650.527 117.762 653.154 118.834 656.389L115.626 658.335L117.473 661.418L120.449 659.61L121.498 661.357L118.521 663.164L120.371 666.252L123.375 664.45L125.058 667.263L126.232 669.227L129.189 667.429L128.015 665.465L142.397 656.725L143.694 658.89L146.651 657.092L145.356 654.933L143.675 652.125L147.136 650.022L145.289 646.939L141.828 649.042L140.784 647.293L144.246 645.19L142.399 642.108L138.824 644.279C136.262 641.06 133.257 640.422 130.251 642.244ZM125.671 661.534L123.17 657.357C121.78 655.041 121.922 653.166 123.811 652.021C125.701 650.875 127.381 651.644 128.767 653.962L131.602 658.693L125.998 662.085L125.671 661.534ZM137.152 647.955L140.191 653L140.404 653.359L134.549 656.913L131.288 651.527C129.777 649.003 129.86 647.094 131.894 645.858C133.929 644.622 135.637 645.434 137.147 647.958L137.152 647.955Z" fill="#FFC336"/>
<path d="M142.273 656.996C142.381 657.216 139.348 659.293 135.453 661.66C131.559 664.027 128.3 665.77 128.192 665.55C128.084 665.33 131.122 663.251 135.016 660.884C138.911 658.517 142.15 656.783 142.273 656.996Z" fill="#FAFAFA"/>
<path d="M127.851 652.385C128.062 652.281 129.01 653.499 130.001 655.14C130.992 656.782 131.618 658.215 131.416 658.34C131.214 658.465 130.257 657.226 129.27 655.582C128.284 653.939 127.649 652.51 127.851 652.385Z" fill="#FAFAFA"/>
<path d="M136.59 646.923C136.802 646.819 137.75 648.037 138.741 649.678C139.732 651.319 140.357 652.753 140.156 652.878C139.954 653.002 138.996 651.764 138.005 650.123C137.014 648.481 136.364 647.06 136.59 646.923Z" fill="#FAFAFA"/>
<path d="M214.99 672.127C214.99 672.127 206.216 667.845 206.579 639.114C206.579 639.114 204.894 611.218 217.956 614.395C229.071 617.093 231.209 632.755 231.51 641.821C231.605 647.079 231.1 652.312 230.005 657.413C228.164 665.646 223.435 674.099 214.99 672.127Z" fill="#FFC336"/>
<path opacity="0.4" d="M214.99 672.127C214.99 672.127 206.216 667.845 206.579 639.114C206.579 639.114 204.894 611.218 217.956 614.395C229.071 617.093 231.209 632.755 231.51 641.821C231.605 647.079 231.1 652.312 230.005 657.413C228.164 665.646 223.435 674.099 214.99 672.127Z" fill="black"/>
<path d="M214.344 671.809C214.344 671.809 202.201 667.678 202.576 638.947C202.576 638.947 203.849 610.289 216.603 614.679C225.346 617.692 227.206 632.588 227.507 641.655C227.664 646.414 227.392 653.296 226.331 657.917C224.508 666.173 220.617 673.495 214.344 671.809Z" fill="#FFC336"/>
<path opacity="0.2" d="M215.58 620.264C210.791 620.05 206.775 630.051 206.61 642.602C206.445 655.153 210.194 665.501 214.984 665.715C219.773 665.929 223.789 655.928 223.953 643.377C224.118 630.826 220.369 620.478 215.58 620.264Z" fill="white"/>
<path d="M213.755 628.148L213.564 632.099C212.45 633.632 211.887 635.522 211.968 637.46C212.163 640.542 213.392 641.685 213.392 641.685C213.392 641.685 210.984 642.933 211.11 647.255C211.263 652.9 213.029 653.022 213.029 653.022L212.799 657.851L215.007 658.036L215.204 653.923L215.842 653.977L215.641 658.207L217.962 658.399L218.03 654.197L219.099 654.307L220.122 633.035L218.561 632.908L218.765 628.721L216.77 628.558L216.581 632.464L215.562 632.381L215.751 628.475L213.755 628.148ZM217.118 644.821L216.862 650.107C216.862 650.107 213.55 650.338 213.463 647.14C213.376 643.942 217.118 644.821 217.118 644.821ZM217.366 636.235L217.158 640.785C217.158 640.785 214.305 641.553 214.173 638.523C214.002 635.042 217.366 636.235 217.366 636.235Z" fill="#FFC336"/>
<path opacity="0.4" d="M213.755 628.148L213.564 632.099C212.45 633.632 211.887 635.522 211.968 637.46C212.163 640.542 213.392 641.685 213.392 641.685C213.392 641.685 210.984 642.933 211.11 647.255C211.263 652.9 213.029 653.022 213.029 653.022L212.799 657.851L215.007 658.036L215.204 653.923L215.842 653.977L215.641 658.207L217.962 658.399L218.03 654.197L219.099 654.307L220.122 633.035L218.561 632.908L218.765 628.721L216.77 628.558L216.581 632.464L215.562 632.381L215.751 628.475L213.755 628.148ZM217.118 644.821L216.862 650.107C216.862 650.107 213.55 650.338 213.463 647.14C213.376 643.942 217.118 644.821 217.118 644.821ZM217.366 636.235L217.158 640.785C217.158 640.785 214.305 641.553 214.173 638.523C214.002 635.042 217.366 636.235 217.366 636.235Z" fill="black"/>
<path d="M212.074 628.028L211.883 631.979C210.77 633.511 210.209 635.4 210.292 637.338C210.487 640.419 211.714 641.557 211.714 641.557C211.714 641.557 209.306 642.805 209.432 647.128C209.58 652.775 211.349 652.889 211.349 652.889L211.114 657.721L213.326 657.903L213.521 653.785L214.159 653.839L213.953 658.071L216.277 658.256L216.345 654.054L217.409 654.166L218.44 632.898L216.873 632.772L217.074 628.581L215.085 628.415L214.891 632.324L213.879 632.243L214.071 628.209L212.074 628.028ZM215.435 644.696L215.169 649.987C215.169 649.987 211.86 650.223 211.766 647.022C211.671 643.821 215.435 644.696 215.435 644.696ZM215.683 636.109L215.475 640.66C215.475 640.66 212.623 641.428 212.488 638.406C212.324 634.915 215.683 636.109 215.683 636.109Z" fill="#FFC336"/>
<path d="M213.111 671.144C213.111 671.144 212.903 671.056 212.539 670.79C212.363 670.667 212.149 670.518 211.91 670.318C211.671 670.118 211.384 669.897 211.088 669.617C209.389 668.061 207.939 666.243 206.793 664.231C205.992 662.847 205.303 661.4 204.732 659.906C204.091 658.19 203.581 656.429 203.206 654.639C202.421 650.562 202.014 646.43 201.991 642.298C201.717 633.447 203.563 625.498 206.175 620.413C207.488 617.86 209.122 616.122 210.488 615.304C210.665 615.217 210.81 615.101 210.955 615.011L211.393 614.795C211.622 614.676 211.862 614.581 212.111 614.512C212.304 614.426 212.512 614.377 212.725 614.369C212.765 614.451 211.909 614.687 210.666 615.592C208.959 616.942 207.603 618.699 206.709 620.716C204.294 625.755 202.556 633.562 202.85 642.314C202.868 646.414 203.248 650.515 203.984 654.568C204.338 656.302 204.815 658.011 205.411 659.681C205.941 661.147 206.581 662.573 207.324 663.944C208.404 665.935 209.748 667.768 211.318 669.389C212.441 670.553 213.163 671.087 213.111 671.144Z" fill="#FAFAFA"/>
<path opacity="0.4" d="M214.867 620.313C214.867 620.313 205.595 620.826 205.065 642.502C204.535 664.179 214.964 665.734 214.964 665.734C214.964 665.734 206.327 664.429 206.559 642.021C206.779 622.499 214.867 620.313 214.867 620.313Z" fill="black"/>
<path d="M226.066 620.287C226.116 620.389 225.413 620.538 224.578 620.619C224.071 620.715 223.548 620.712 223.037 620.608C223.517 620.425 224.026 620.329 224.543 620.324C225.045 620.247 225.557 620.234 226.066 620.287Z" fill="#263238"/>
<path d="M222.709 616.645C222.759 616.748 222.192 616.9 221.517 616.946C220.843 616.992 220.284 616.987 220.281 616.919C220.658 616.744 221.071 616.658 221.49 616.667C221.891 616.595 222.302 616.588 222.709 616.645Z" fill="#263238"/>
<path d="M228.062 623.97C227.529 624.176 226.964 624.289 226.39 624.302C225.835 624.41 225.263 624.421 224.699 624.334C225.231 624.128 225.796 624.015 226.37 624.001C226.925 623.892 227.497 623.881 228.062 623.97Z" fill="#263238"/>
<path d="M229.472 627.82C228.907 628.029 228.31 628.142 227.705 628.156C227.11 628.272 226.498 628.288 225.892 628.202C227.049 627.881 228.255 627.754 229.462 627.825L229.472 627.82Z" fill="#263238"/>
<path d="M230.391 632.312C229.826 632.521 229.229 632.634 228.623 632.648C228.028 632.761 227.417 632.777 226.811 632.694C227.377 632.488 227.973 632.375 228.579 632.358C229.174 632.244 229.786 632.228 230.391 632.312Z" fill="#263238"/>
<path d="M230.94 636.611C230.375 636.819 229.778 636.933 229.172 636.947C228.577 637.06 227.966 637.075 227.36 636.993C227.926 636.787 228.522 636.674 229.128 636.657C229.723 636.542 230.334 636.527 230.94 636.611Z" fill="#263238"/>
<path d="M231.499 640.905C230.934 641.114 230.337 641.227 229.731 641.241C229.136 641.354 228.524 641.37 227.919 641.287C229.079 640.965 230.287 640.836 231.499 640.905Z" fill="#263238"/>
<path d="M231.317 645.285C230.753 645.493 230.157 645.608 229.552 645.625C228.957 645.737 228.345 645.753 227.74 645.672C228.304 645.463 228.9 645.348 229.505 645.331C230.1 645.219 230.711 645.204 231.317 645.285Z" fill="#263238"/>
<path d="M231.048 649.674C229.89 649.995 228.683 650.123 227.473 650.054C228.038 649.846 228.635 649.732 229.241 649.718C229.835 649.606 230.445 649.592 231.048 649.674Z" fill="#263238"/>
<path d="M230.675 654.077C230.109 654.283 229.513 654.396 228.908 654.413C228.313 654.526 227.701 654.542 227.095 654.459C227.661 654.253 228.258 654.14 228.863 654.124C229.458 654.009 230.07 653.993 230.675 654.077Z" fill="#263238"/>
<path d="M229.886 658.33C228.728 658.65 227.521 658.778 226.311 658.709C226.877 658.504 227.474 658.391 228.079 658.374C228.672 658.26 229.282 658.245 229.886 658.33Z" fill="#263238"/>
<path d="M228.5 662.735C227.341 663.056 226.134 663.184 224.924 663.115C225.49 662.91 226.087 662.796 226.692 662.779C227.286 662.666 227.896 662.651 228.5 662.735Z" fill="#263238"/>
<path d="M226.244 666.667C225.744 666.863 225.213 666.969 224.674 666.981C224.143 667.085 223.596 667.092 223.057 667.002C223.552 666.809 224.078 666.705 224.612 666.694C225.147 666.584 225.7 666.575 226.244 666.667Z" fill="#263238"/>
<path d="M223.543 670.054C223.043 670.251 222.512 670.357 221.973 670.369C221.443 670.473 220.897 670.479 220.36 670.387C220.859 670.19 221.391 670.084 221.93 670.072C222.459 669.967 223.006 669.961 223.543 670.054Z" fill="#263238"/>
<path d="M212.106 647.776C212.351 647.776 212.564 648.148 212.805 648.538C213.046 648.928 213.262 649.305 213.147 649.52C213.086 649.62 212.916 649.634 212.71 649.563C212.445 649.441 212.222 649.239 212.071 648.984C211.919 648.73 211.847 648.436 211.864 648.143C211.887 647.916 211.992 647.781 212.106 647.776Z" fill="#FAFAFA"/>
<path d="M212.563 638.471C212.8 638.519 212.938 638.972 213.14 639.458C213.342 639.943 213.538 640.355 213.389 640.549C213.318 640.641 213.153 640.665 212.929 640.508C212.667 640.325 212.463 640.066 212.343 639.766C212.224 639.467 212.196 639.139 212.261 638.828C212.331 638.572 212.443 638.427 212.563 638.471Z" fill="#FAFAFA"/>
<path d="M209.428 646.584C209.472 646.562 209.518 646.768 209.58 647.055L209.709 648.263C209.771 648.853 209.875 649.439 210.021 650.016C210.179 650.696 210.474 651.339 210.888 651.902C210.975 652.018 211.073 652.126 211.18 652.223C211.266 652.301 211.36 652.37 211.459 652.429L211.762 652.585L211.749 652.87C211.575 655.612 211.301 657.679 211.079 657.649C210.856 657.619 210.791 655.534 210.888 652.786L211.171 653.225C210.971 653.135 210.786 653.011 210.624 652.858C210.471 652.731 210.332 652.586 210.21 652.427C209.712 651.756 209.377 650.977 209.233 650.155C209.132 649.549 209.094 648.934 209.121 648.323C209.125 647.894 209.169 647.468 209.254 647.051C209.293 646.745 209.368 646.575 209.428 646.584Z" fill="#FAFAFA"/>
</g>
</g>
<g opacity="0.6" clip-path="url(#clip1_112_2370)">
<path d="M620.73 172.243C620.73 172.243 612.759 158.228 566.48 161.874C566.48 161.874 521.291 162.03 527.984 183.196C533.679 201.209 559.191 203.081 573.849 202.628C582.333 202.241 590.705 200.869 598.794 198.539C611.884 194.615 624.901 185.918 620.73 172.243Z" fill="#FFC336"/>
<path opacity="0.4" d="M620.73 172.243C620.73 172.243 612.759 158.228 566.48 161.874C566.48 161.874 521.291 162.03 527.984 183.196C533.679 201.209 559.191 203.081 573.849 202.628C582.333 202.241 590.705 200.869 598.794 198.539C611.884 194.615 624.901 185.918 620.73 172.243Z" fill="black"/>
<path d="M620.11 171.199C620.11 171.199 612.001 151.66 565.68 155.271C565.68 155.271 519.622 160.377 528.251 180.925C534.16 195.002 558.404 196.489 573.062 196.035C580.754 195.809 591.812 194.634 599.13 192.439C612.236 188.521 623.612 181.321 620.11 171.199Z" fill="#FFC336"/>
<path opacity="0.2" d="M575.446 190.006C595.668 188.417 611.315 180.756 610.394 172.895C609.473 165.035 592.334 159.951 572.112 161.541C551.89 163.13 536.244 170.791 537.164 178.652C538.085 186.512 555.225 191.596 575.446 190.006Z" fill="white"/>
<path d="M598.739 175.747L592.231 176.263L592.035 174.59L598.362 174.104L597.975 170.83L591.212 171.362L590.908 168.792L556.564 171.492L556.767 173.225L549.979 173.537L550.423 177.322L557.261 176.785L557.385 177.844L550.744 178.366L551.169 181.992L558.956 181.407C558.956 181.407 559.234 184.303 568.404 184.293C575.389 184.286 577.26 180.262 577.26 180.262C577.26 180.262 579.149 182.218 584.178 182.404C587.317 182.447 590.338 181.433 592.748 179.526L599.127 179.028L598.739 175.747ZM568.424 180.403C563.245 180.409 563.431 174.932 563.431 174.932L571.937 174.26C571.937 174.26 573.604 180.404 568.424 180.403ZM582.338 178.839C577.433 178.755 578.487 174.012 578.487 174.012L585.823 173.432C585.823 173.432 587.98 178.953 582.328 178.852L582.338 178.839Z" fill="#FFC336"/>
<path opacity="0.4" d="M598.739 175.747L592.231 176.263L592.035 174.59L598.362 174.104L597.975 170.83L591.212 171.362L590.908 168.792L556.564 171.492L556.767 173.225L549.979 173.537L550.423 177.322L557.261 176.785L557.385 177.844L550.744 178.366L551.169 181.992L558.956 181.407C558.956 181.407 559.234 184.303 568.404 184.293C575.389 184.286 577.26 180.262 577.26 180.262C577.26 180.262 579.149 182.218 584.178 182.404C587.317 182.447 590.338 181.433 592.748 179.526L599.127 179.028L598.739 175.747ZM568.424 180.403C563.245 180.409 563.431 174.932 563.431 174.932L571.937 174.26C571.937 174.26 573.604 180.404 568.424 180.403ZM582.338 178.839C577.433 178.755 578.487 174.012 578.487 174.012L585.823 173.432C585.823 173.432 587.98 178.953 582.328 178.852L582.338 178.839Z" fill="black"/>
<path d="M597.578 173.165L591.07 173.673L590.874 172.008L597.188 171.511L596.796 168.227L590.03 168.762L589.73 166.196L555.39 168.891L555.593 170.625L548.797 170.938L549.241 174.722L556.079 174.185L556.203 175.245L549.566 175.763L549.995 179.392L557.79 178.779C557.79 178.779 558.064 181.672 567.23 181.666C574.215 181.659 576.086 177.635 576.086 177.635C576.086 177.635 577.976 179.591 583.005 179.777C586.144 179.819 589.165 178.806 591.578 176.903L597.956 176.397L597.578 173.165ZM567.263 177.821C562.083 177.819 562.266 172.346 562.266 172.346L570.799 171.676C570.799 171.676 572.439 177.819 567.263 177.821ZM581.173 176.254C576.267 176.169 577.322 171.426 577.322 171.426L584.669 170.876C584.669 170.876 586.798 176.354 581.163 176.266L581.173 176.254Z" fill="#FFC336"/>
<path d="M618.92 169.257C618.867 169.322 617.924 168.178 615.965 166.418C613.184 163.955 610.069 161.898 606.719 160.311C604.413 159.21 602.028 158.291 599.588 157.564C596.784 156.738 593.928 156.125 591.046 155.729C584.964 154.836 578.181 154.804 571.118 155.088C556.983 155.554 544.517 159.272 536.674 163.835C532.764 166.136 530.149 168.817 528.907 171.011L528.456 171.776L528.126 172.49C528.021 172.712 527.931 172.918 527.841 173.104C527.752 173.291 527.716 173.473 527.654 173.635C527.565 173.968 527.44 174.289 527.279 174.592C527.315 174.246 527.387 173.907 527.494 173.578C527.536 173.415 527.576 173.228 527.647 173.02C527.719 172.812 527.811 172.614 527.899 172.385C527.987 172.157 528.084 171.901 528.199 171.64C528.314 171.379 528.471 171.118 528.626 170.835C529.802 168.538 532.411 165.736 536.357 163.321C544.23 158.558 556.793 154.721 571.057 154.245C578.147 153.955 584.963 154.042 591.139 154.958C594.058 155.375 596.948 156.02 599.781 156.888C602.249 157.651 604.657 158.615 606.978 159.771C610.351 161.425 613.462 163.584 616.197 166.17C616.687 166.621 617.086 167.052 617.437 167.429C617.737 167.738 618.022 168.061 618.291 168.397C618.528 168.663 618.739 168.951 618.92 169.257Z" fill="#FAFAFA"/>
<path opacity="0.4" d="M537.149 177.483C537.149 177.483 536.857 162.193 571.747 159.019C606.637 155.844 610.394 172.895 610.394 172.895C610.394 172.895 607.244 158.807 571.138 161.549C539.7 163.94 537.149 177.483 537.149 177.483Z" fill="black"/>
<path d="M597.22 168.575C596.593 168.728 595.946 168.803 595.295 168.799C594.054 168.881 592.259 168.972 590.047 169.07L589.73 169.083L589.718 168.752L589.678 166.509L590.102 166.858C586.58 167.165 582.281 167.518 577.641 167.864C571.589 168.309 566.125 168.662 562.145 168.895C560.157 169.005 558.548 169.078 557.43 169.124C556.857 169.182 556.276 169.165 555.702 169.073C556.252 168.905 556.825 168.807 557.405 168.782C558.509 168.65 560.103 168.483 562.071 168.293C566.023 167.922 571.494 167.465 577.541 167.016C582.182 166.671 586.484 166.374 590.016 166.158L590.405 166.135L590.403 166.51L590.333 168.792L590.001 168.478C592.218 168.46 594.017 168.46 595.265 168.48C595.915 168.437 596.571 168.468 597.22 168.575Z" fill="#FAFAFA"/>
<path d="M581.836 176.484C581.853 176.593 581.621 176.745 581.169 176.777C580.591 176.818 580.007 176.715 579.469 176.475C578.929 176.243 578.451 175.882 578.078 175.427C577.802 175.071 577.731 174.793 577.815 174.726C578.006 174.588 578.725 175.261 579.786 175.709C580.847 176.157 581.804 176.246 581.836 176.484Z" fill="#FAFAFA"/>
<path d="M565.774 177.705C565.768 177.816 565.564 177.908 565.205 177.921C564.758 177.894 564.321 177.754 563.936 177.515C563.55 177.276 563.229 176.945 563.001 176.555C562.839 176.251 562.828 176.022 562.925 175.965C563.13 175.854 563.643 176.371 564.365 176.807C565.087 177.243 565.76 177.454 565.774 177.705Z" fill="#FAFAFA"/>
<path d="M583.661 189.66C583.709 189.878 580.714 190.556 576.913 190.641C573.112 190.726 570.044 190.203 570.061 189.984C570.077 189.765 573.126 189.896 576.861 189.805C580.596 189.714 583.631 189.437 583.661 189.66Z" fill="#FAFAFA"/>
<path d="M538.427 195.916C538.413 195.852 538.407 195.787 538.409 195.723L538.385 195.198C538.382 194.743 538.381 194.113 538.413 193.434C538.384 192.59 538.445 191.748 538.594 190.922C538.726 191.761 538.76 192.608 538.694 193.447C538.653 194.802 538.553 195.944 538.427 195.916Z" fill="#263238"/>
<path d="M532.174 190.777C532.16 190.725 532.154 190.672 532.155 190.618L532.135 190.185C532.127 189.822 532.133 189.321 532.133 188.76C532.101 188.08 532.157 187.401 532.299 186.742C532.437 187.413 532.475 188.097 532.414 188.772C532.395 189.885 532.304 190.809 532.174 190.777Z" fill="#263238"/>
<path d="M544.618 198.856C544.506 197.929 544.488 196.998 544.564 196.075C544.547 195.149 544.624 194.226 544.794 193.322C544.901 194.248 544.917 195.177 544.843 196.099C544.86 197.027 544.785 197.95 544.618 198.856Z" fill="#263238"/>
<path d="M551.012 200.737C550.898 199.748 550.882 198.754 550.963 197.769C550.946 196.777 551.023 195.789 551.192 194.817C551.304 195.806 551.32 196.8 551.241 197.785C551.255 198.777 551.178 199.765 551.012 200.737Z" fill="#263238"/>
<path d="M558.365 201.778C558.253 200.788 558.235 199.793 558.312 198.807C558.296 197.814 558.375 196.826 558.549 195.855C558.655 196.845 558.671 197.84 558.594 198.827C558.61 199.819 558.533 200.807 558.365 201.778Z" fill="#263238"/>
<path d="M565.364 202.229C565.25 201.239 565.232 200.244 565.311 199.257C565.295 198.266 565.373 197.279 565.545 196.309C565.654 197.298 565.67 198.292 565.594 199.277C565.609 200.269 565.532 201.258 565.364 202.229Z" fill="#263238"/>
<path d="M572.364 202.68C572.25 201.689 572.232 200.694 572.311 199.708C572.295 198.717 572.373 197.73 572.545 196.76C572.654 197.749 572.67 198.743 572.594 199.728C572.607 200.72 572.531 201.708 572.364 202.68Z" fill="#263238"/>
<path d="M579.401 201.935C579.289 200.946 579.272 199.952 579.352 198.967C579.334 197.976 579.412 196.989 579.586 196.019C579.695 197.008 579.711 198.002 579.635 198.987C579.647 199.978 579.569 200.965 579.401 201.935Z" fill="#263238"/>
<path d="M586.437 201.027C586.33 200.038 586.314 199.044 586.388 198.059C586.37 197.066 586.449 196.077 586.625 195.107C586.732 196.097 586.747 197.092 586.67 198.079C586.689 199.07 586.611 200.057 586.437 201.027Z" fill="#263238"/>
<path d="M593.48 199.939C593.371 198.95 593.355 197.956 593.431 196.971C593.415 195.98 593.493 194.992 593.665 194.023C593.774 195.012 593.79 196.005 593.714 196.991C593.73 197.982 593.652 198.969 593.48 199.939Z" fill="#263238"/>
<path d="M600.262 198.206C600.143 197.213 600.121 196.214 600.196 195.224C600.193 194.241 600.282 193.263 600.464 192.304C600.573 193.293 600.589 194.287 600.513 195.272C600.518 196.259 600.435 197.241 600.262 198.206Z" fill="#263238"/>
<path d="M607.199 195.464C607.087 194.473 607.07 193.477 607.149 192.489C607.131 191.498 607.209 190.51 607.383 189.541C607.489 190.53 607.506 191.523 607.431 192.509C607.447 193.503 607.369 194.492 607.199 195.464Z" fill="#263238"/>
<path d="M613.26 191.34C613.149 190.458 613.128 189.57 613.199 188.69C613.176 187.802 613.25 186.918 613.419 186.053C613.527 186.936 613.545 187.824 613.473 188.703C613.497 189.591 613.426 190.475 613.26 191.34Z" fill="#263238"/>
<path d="M618.4 186.54C618.286 185.658 618.266 184.77 618.339 183.89C618.323 183.005 618.397 182.124 618.56 181.26C618.678 182.142 618.698 183.031 618.621 183.91C618.64 184.795 618.565 185.677 618.4 186.54Z" fill="#263238"/>
<path d="M483.794 109.185C499.396 107.959 510.567 94.3639 508.746 78.8203C506.925 63.2768 492.801 51.6704 477.2 52.8968C461.598 54.1231 450.426 67.7179 452.247 83.2614C454.068 98.805 468.192 110.411 483.794 109.185Z" fill="#FFC336"/>
<path opacity="0.2" d="M483.794 109.185C499.396 107.959 510.567 94.3639 508.746 78.8203C506.925 63.2768 492.801 51.6704 477.2 52.8968C461.598 54.1231 450.426 67.7179 452.247 83.2614C454.068 98.805 468.192 110.411 483.794 109.185Z" fill="white"/>
<path d="M502.524 64.0161C502.567 64.5933 502.515 65.17 502.372 65.724C502.326 66.2935 502.185 66.8479 501.954 67.3649C501.909 66.7939 501.956 66.2229 502.094 65.6733C502.142 65.0975 502.288 64.5373 502.524 64.0161Z" fill="#263238"/>
<path d="M505.222 68.1891C505.269 68.7377 505.226 69.2869 505.094 69.8149C505.05 70.3599 504.912 70.89 504.687 71.3824C504.639 70.8339 504.683 70.2846 504.815 69.7567C504.858 69.2114 504.995 68.6812 505.222 68.1891Z" fill="#263238"/>
<path d="M507.259 72.5248C507.312 73.0735 507.268 73.6236 507.131 74.1506C507.09 74.6967 506.954 75.2282 506.728 75.7216C506.676 75.1729 506.719 74.6227 506.856 74.0958C506.899 73.55 507.035 73.0188 507.259 72.5248Z" fill="#263238"/>
<path d="M499.061 60.3351C499.105 60.9061 499.058 61.4772 498.921 62.0267C498.875 62.5962 498.734 63.1506 498.504 63.6676C498.459 63.0966 498.506 62.5255 498.643 61.976C498.688 61.4064 498.829 60.8518 499.061 60.3351Z" fill="#263238"/>
<path d="M495.334 57.5265C495.38 58.0967 495.332 58.6671 495.191 59.2146C495.141 59.7835 495.001 60.3375 494.773 60.8555C494.723 60.2835 494.769 59.7107 494.908 59.1604C494.961 58.5935 495.104 58.0419 495.334 57.5265Z" fill="#263238"/>
<path d="M491.175 55.3743C491.225 55.936 491.184 56.4988 491.056 57.0414C491.015 57.5993 490.88 58.143 490.658 58.6502C490.606 58.09 490.645 57.5284 490.773 56.9872C490.816 56.4279 490.952 55.883 491.175 55.3743Z" fill="#263238"/>
<path d="M487.056 53.7538C487.104 54.325 487.057 54.8966 486.916 55.4455C486.867 56.0144 486.726 56.5683 486.499 57.0864C486.451 56.5128 486.498 55.9388 486.637 55.3872C486.688 54.8209 486.829 54.2695 487.056 53.7538Z" fill="#263238"/>
<path d="M482.54 52.9094C482.59 53.4806 482.543 54.0524 482.401 54.601C482.355 55.1705 482.214 55.7249 481.983 56.242C481.94 55.6726 481.986 55.1032 482.119 54.5544C482.167 53.9836 482.31 53.428 482.54 52.9094Z" fill="#263238"/>
<path d="M478.101 52.7847C478.143 53.3572 478.095 53.9293 477.958 54.4804C477.912 55.0482 477.772 55.6012 477.544 56.1172C477.499 55.5462 477.546 54.9751 477.683 54.4256C477.729 53.8561 477.87 53.3017 478.101 52.7847Z" fill="#263238"/>
<path d="M474.136 53.2339C474.178 53.8064 474.13 54.3786 473.993 54.9296C473.947 55.4974 473.808 56.0504 473.579 56.5664C473.534 55.9954 473.581 55.4244 473.718 54.8748C473.765 54.3054 473.906 53.7509 474.136 53.2339Z" fill="#263238"/>
<path d="M469.992 54.5565C470.037 55.1503 469.991 55.744 469.853 56.3169C469.803 56.9058 469.658 57.4794 469.424 58.0161C469.382 57.4242 469.432 56.8329 469.571 56.2627C469.618 55.6718 469.76 55.0958 469.992 54.5565Z" fill="#263238"/>
<path d="M465.955 56.3214C465.999 56.9118 465.95 57.5019 465.811 58.0707C465.755 58.6584 465.61 59.2311 465.381 59.7699C465.335 59.1794 465.384 58.5889 465.525 58.0206C465.574 57.4315 465.72 56.8577 465.955 56.3214Z" fill="#263238"/>
<path d="M462.23 58.7343C462.277 59.318 462.257 59.9027 462.17 60.477C462.182 61.0714 462.084 61.659 461.882 62.2108C461.813 61.6246 461.82 61.0347 461.903 60.456C461.89 59.8613 462.001 59.275 462.23 58.7343Z" fill="#263238"/>
<path d="M458.797 61.9874C458.827 62.6541 458.761 63.3181 458.598 63.9587C458.536 64.6119 458.382 65.25 458.142 65.8548C458.106 65.1956 458.168 64.5384 458.324 63.9039C458.391 63.2431 458.55 62.5981 458.797 61.9874Z" fill="#263238"/>
<path d="M455.204 67.2237C455.239 67.9276 455.181 68.6295 455.031 69.3114C454.975 70.0118 454.825 70.6982 454.584 71.352C454.549 70.6472 454.606 69.9443 454.753 69.2607C454.811 68.5615 454.963 67.8765 455.204 67.2237Z" fill="#263238"/>
<path d="M469.256 110.138C483.75 116.683 500.408 110.516 506.463 96.3642C512.518 82.2124 505.677 65.4345 491.183 58.8899C476.689 52.3452 460.031 58.512 453.976 72.6638C447.921 86.8156 454.762 103.593 469.256 110.138Z" fill="#FFC336"/>
<path opacity="0.2" d="M468.611 101.26C478.595 108.175 491.906 106.144 498.34 96.7238C504.774 87.3033 501.895 74.0608 491.91 67.1458C481.925 60.2309 468.615 62.262 462.181 71.6824C455.747 81.1029 458.626 94.3454 468.611 101.26Z" fill="white"/>
<path d="M468.668 101.185C463.96 97.9334 460.648 93.0322 459.437 87.5246C458.227 82.0171 459.214 76.3384 462.189 71.6977C462.061 71.8529 461.934 72.0081 461.836 72.1877C458.669 76.8246 457.536 82.5903 458.687 88.2163C459.256 91.002 460.369 93.6695 461.962 96.0666C463.554 98.4638 465.596 100.543 467.969 102.187C470.343 103.831 473.002 105.006 475.794 105.646C478.587 106.286 481.459 106.377 484.246 105.916C487.033 105.455 489.681 104.449 492.038 102.957C494.395 101.465 496.415 99.5149 497.983 97.2189C498.11 97.0638 498.204 96.8807 498.311 96.7157C495.074 101.169 490.166 104.128 484.63 104.963C479.094 105.797 473.368 104.442 468.668 101.185Z" fill="#FAFAFA"/>
<path opacity="0.3" d="M491.869 67.2184C496.577 70.4727 499.886 75.3763 501.093 80.8849C502.3 86.3935 501.309 92.0719 498.33 96.7108C498.458 96.5556 498.585 96.4004 498.683 96.2209C501.85 91.5839 502.983 85.8182 501.833 80.1922C500.682 74.5663 497.343 69.5408 492.55 66.2215C487.757 62.9021 481.902 61.5607 476.273 62.4924C470.644 63.4241 465.703 66.5526 462.537 71.1896C462.409 71.3447 462.315 71.5278 462.208 71.6928C465.445 67.233 470.356 64.2697 475.896 63.4339C481.436 62.5982 487.168 63.9561 491.869 67.2184Z" fill="black"/>
<path d="M485.781 93.4379C487.457 90.9838 487.329 88.5531 485.993 86.668C487.801 86.7856 489.641 85.9381 490.967 83.9967C492.62 81.5787 492.394 78.9035 490.165 76.4966L492.201 73.5176L489.355 71.5488L487.463 74.3178L485.852 73.1992L487.74 70.4267L484.891 68.4619L483.004 71.2344L480.408 69.4369L478.597 68.1812L476.719 70.9339L478.53 72.1896L469.393 85.574L467.395 84.1917L465.517 86.9444L467.511 88.3232L470.106 90.1208L467.904 93.3459L470.749 95.3147L472.948 92.0937L474.563 93.2082L472.364 96.4292L475.206 98.4022L477.48 95.0721C480.98 96.8673 483.869 96.2315 485.781 93.4379ZM482.125 74.6992L485.971 77.3534C488.103 78.8321 488.729 80.5362 487.531 82.2881C486.333 84.0401 484.55 84.0389 482.413 82.5567L478.045 79.5349L481.607 74.335L482.125 74.6992ZM477.457 91.174L472.804 87.9454L472.474 87.7154L476.198 82.266L481.181 85.717C483.509 87.3293 484.196 89.0362 482.906 90.9252C481.617 92.8141 479.785 92.7863 477.457 91.174Z" fill="#FFC336"/>
<path opacity="0.3" d="M485.781 93.4379C487.457 90.9838 487.329 88.5531 485.993 86.668C487.801 86.7856 489.641 85.9381 490.967 83.9967C492.62 81.5787 492.394 78.9035 490.165 76.4966L492.201 73.5176L489.355 71.5488L487.463 74.3178L485.852 73.1992L487.74 70.4267L484.891 68.4619L483.004 71.2344L480.408 69.4369L478.597 68.1812L476.719 70.9339L478.53 72.1896L469.393 85.574L467.395 84.1917L465.517 86.9444L467.511 88.3232L470.106 90.1208L467.904 93.3459L470.749 95.3147L472.948 92.0937L474.563 93.2082L472.364 96.4292L475.206 98.4022L477.48 95.0721C480.98 96.8673 483.869 96.2315 485.781 93.4379ZM482.125 74.6992L485.971 77.3534C488.103 78.8321 488.729 80.5362 487.531 82.2881C486.333 84.0401 484.55 84.0389 482.413 82.5567L478.045 79.5349L481.607 74.335L482.125 74.6992ZM477.457 91.174L472.804 87.9454L472.474 87.7154L476.198 82.266L481.181 85.717C483.509 87.3293 484.196 89.0362 482.906 90.9252C481.617 92.8141 479.785 92.7863 477.457 91.174Z" fill="black"/>
<path d="M484.91 94.748C486.589 92.2898 486.458 89.8631 485.122 87.978C486.93 88.0957 488.771 87.2481 490.099 85.3026C491.749 82.8887 491.524 80.2135 489.297 77.8025L491.337 74.8195L488.491 72.8506L486.599 75.6196L484.985 74.5051L486.877 71.7361L484.027 69.7638L482.109 72.5387L479.514 70.7411L477.703 69.4855L475.825 72.2382L477.636 73.4938L468.499 86.8783L466.501 85.496L464.622 88.2487L466.617 89.6275L469.208 91.4215L467.009 94.6425L469.854 96.6114L472.053 93.3904L473.664 94.509L471.465 97.73L474.31 99.6988L476.582 96.3729C480.109 98.1773 482.999 97.5415 484.91 94.748ZM481.254 76.0092L485.11 78.6779C487.25 80.156 487.871 81.8567 486.669 83.6127C485.468 85.3687 483.688 85.3634 481.552 83.8813L477.184 80.8594L480.749 75.6555L481.254 76.0092ZM476.586 92.484L471.915 89.2683L471.585 89.0383L475.307 83.5929L480.309 87.0195C482.637 88.6317 483.324 90.3386 482.032 92.2317C480.739 94.1248 478.918 94.0922 476.589 92.4799L476.586 92.484Z" fill="#FFC336"/>
<path d="M468.5 86.5915C468.318 86.4416 470.152 83.4135 472.626 79.7889C475.1 76.1643 477.265 73.3394 477.448 73.4893C477.63 73.6392 475.792 76.6714 473.318 80.296C470.844 83.9206 468.693 86.7291 468.5 86.5915Z" fill="#FAFAFA"/>
<path d="M482.983 84.8992C482.838 85.0748 481.523 84.3837 480.001 83.3384C478.479 82.293 477.36 81.2846 477.488 81.0951C477.615 80.9056 478.947 81.6106 480.466 82.6601C481.985 83.7096 483.11 84.7097 482.983 84.8992Z" fill="#FAFAFA"/>
<path d="M477.491 93.1654C477.347 93.341 476.031 92.6499 474.509 91.6045C472.987 90.5591 471.869 89.5508 471.996 89.3612C472.123 89.1717 473.456 89.8767 474.978 90.9221C476.5 91.9675 477.635 92.9554 477.491 93.1654Z" fill="#FAFAFA"/>
<path d="M398.71 102.242C398.71 102.242 408.108 102.508 419.216 127.849C419.216 127.849 431.788 151.643 419.069 154.053C408.248 156.106 400.144 143.222 396.275 135.39C394.1 130.816 392.462 126.026 391.394 121.117C389.733 113.165 390.519 103.871 398.71 102.242Z" fill="#FFC336"/>
<path opacity="0.4" d="M398.71 102.242C398.71 102.242 408.108 102.508 419.216 127.849C419.216 127.849 431.788 151.643 419.069 154.053C408.248 156.106 400.144 143.222 396.275 135.39C394.1 130.816 392.462 126.026 391.394 121.117C389.733 113.165 390.519 103.871 398.71 102.242Z" fill="black"/>
<path d="M399.403 102.264C399.403 102.264 411.695 101.057 422.793 126.403C422.793 126.403 433.074 152.043 420.143 153.266C411.277 154.1 403.721 141.776 399.852 133.944C397.821 129.833 395.322 123.689 394.415 119.215C392.73 111.249 393.23 103.28 399.403 102.264Z" fill="#FFC336"/>
<path opacity="0.2" d="M418.819 147.96C423.104 146.243 422.649 135.875 417.802 124.802C412.955 113.73 405.551 106.146 401.266 107.863C396.981 109.58 397.436 119.948 402.283 131.02C407.131 142.093 414.534 149.677 418.819 147.96Z" fill="white"/>
<path d="M417.284 140.32L415.88 136.779C416.247 134.991 415.989 133.111 415.148 131.443C413.751 128.818 412.219 128.304 412.219 128.304C412.219 128.304 413.834 126.252 412.004 122.511C409.625 117.622 408.027 118.217 408.027 118.217L406.309 113.891L404.299 114.606L405.762 118.292L405.181 118.498L403.675 114.709L401.563 115.463L403.174 119.175L402.193 119.505L409.756 138.566L411.176 138.058L412.662 141.81L414.476 141.159L413.088 137.659L414.016 137.326L415.403 140.827L417.284 140.32ZM407.703 127.036L405.825 122.298C405.825 122.298 408.638 120.778 409.986 123.548C411.334 126.318 407.703 127.036 407.703 127.036ZM410.901 134.664L409.274 130.591C409.274 130.591 411.47 128.783 412.791 131.387C414.325 134.372 410.901 134.664 410.901 134.664Z" fill="#FFC336"/>
<path opacity="0.4" d="M417.284 140.32L415.88 136.779C416.247 134.991 415.989 133.111 415.148 131.443C413.751 128.818 412.219 128.304 412.219 128.304C412.219 128.304 413.834 126.252 412.004 122.511C409.625 117.622 408.027 118.217 408.027 118.217L406.309 113.891L404.299 114.606L405.762 118.292L405.181 118.498L403.675 114.709L401.563 115.463L403.174 119.175L402.193 119.505L409.756 138.566L411.176 138.058L412.662 141.81L414.476 141.159L413.088 137.659L414.016 137.326L415.403 140.827L417.284 140.32ZM407.703 127.036L405.825 122.298C405.825 122.298 408.638 120.778 409.986 123.548C411.334 126.318 407.703 127.036 407.703 127.036ZM410.901 134.664L409.274 130.591C409.274 130.591 411.47 128.783 412.791 131.387C414.325 134.372 410.901 134.664 410.901 134.664Z" fill="black"/>
<path d="M418.805 139.757L417.401 136.216C417.768 134.43 417.509 132.55 416.665 130.884C415.269 128.259 413.741 127.749 413.741 127.749C413.741 127.749 415.356 125.697 413.526 121.956C411.151 117.062 409.554 117.665 409.554 117.665L407.838 113.335L405.826 114.054L407.293 117.744L406.711 117.95L405.209 114.156L403.097 114.918L404.709 118.63L403.731 118.956L411.286 138.018L412.71 137.505L414.2 141.261L416.011 140.615L414.626 137.11L415.546 136.778L416.982 140.393L418.805 139.757ZM409.228 126.476L407.357 121.73C407.357 121.73 410.166 120.207 411.521 122.977C412.877 125.746 409.228 126.476 409.228 126.476ZM412.426 134.105L410.799 130.031C410.799 130.031 412.995 128.224 414.315 130.82C415.847 133.817 412.426 134.105 412.426 134.105Z" fill="#FFC336"/>
<path d="M400.748 102.357C400.748 102.357 400.965 102.351 401.39 102.44C401.594 102.477 401.84 102.523 402.13 102.603C402.419 102.684 402.758 102.764 403.13 102.891C405.238 103.58 407.233 104.598 409.038 105.907C410.291 106.802 411.471 107.797 412.565 108.88C413.81 110.13 414.958 111.472 415.999 112.892C418.309 116.155 420.309 119.617 421.972 123.232C425.733 130.886 427.276 138.591 427.007 144.089C426.871 146.85 426.129 149.025 425.256 150.285C425.136 150.432 425.055 150.591 424.963 150.728L424.665 151.092C424.512 151.287 424.339 151.466 424.148 151.625C424.013 151.778 423.85 151.903 423.666 151.995C423.598 151.94 424.255 151.391 424.986 150.104C425.945 148.241 426.436 146.161 426.418 144.036C426.532 138.657 424.951 131.119 421.213 123.559C419.566 119.971 417.602 116.525 415.345 113.264C414.345 111.884 413.247 110.575 412.06 109.347C411.012 108.272 409.884 107.277 408.686 106.37C406.948 105.053 405.04 103.98 403.018 103.183C401.571 102.609 400.725 102.427 400.748 102.357Z" fill="#FAFAFA"/>
<path opacity="0.4" d="M419.425 147.634C419.425 147.634 427.353 143.497 419.196 124.275C411.04 105.054 401.275 107.838 401.275 107.838C401.275 107.838 409.369 105.548 418.077 125.292C425.648 142.5 419.425 147.634 419.425 147.634Z" fill="black"/>
<path d="M409.614 152.111C409.529 152.041 410.086 151.63 410.787 151.228C411.193 150.942 411.653 150.737 412.143 150.625C411.795 150.976 411.386 151.263 410.934 151.472C410.525 151.74 410.081 151.954 409.614 152.111Z" fill="#263238"/>
<path d="M414.006 153.969C413.921 153.9 414.358 153.54 414.932 153.232C415.505 152.923 415.997 152.705 416.027 152.764C415.766 153.067 415.438 153.307 415.067 153.466C414.743 153.688 414.386 153.858 414.006 153.969Z" fill="#263238"/>
<path d="M406.399 149.675C406.783 149.282 407.234 148.958 407.732 148.718C408.176 148.403 408.673 148.166 409.203 148.018C408.818 148.41 408.367 148.733 407.87 148.974C407.426 149.291 406.929 149.528 406.399 149.675Z" fill="#263238"/>
<path d="M403.63 146.859C404.043 146.451 404.521 146.114 405.047 145.861C405.522 145.523 406.053 145.266 406.618 145.1C405.731 145.841 404.724 146.433 403.637 146.851L403.63 146.859Z" fill="#263238"/>
<path d="M401.037 143.285C401.45 142.877 401.928 142.54 402.454 142.287C402.931 141.951 403.461 141.694 404.025 141.526C403.611 141.932 403.133 142.268 402.608 142.523C402.132 142.861 401.602 143.118 401.037 143.285Z" fill="#263238"/>
<path d="M398.847 139.733C399.26 139.326 399.738 138.989 400.264 138.736C400.741 138.4 401.271 138.143 401.835 137.974C401.42 138.38 400.942 138.716 400.418 138.972C399.942 139.309 399.411 139.566 398.847 139.733Z" fill="#263238"/>
<path d="M396.649 136.189C397.061 135.782 397.54 135.445 398.065 135.192C398.542 134.856 399.073 134.599 399.636 134.43C398.747 135.174 397.738 135.768 396.649 136.189Z" fill="#263238"/>
<path d="M395.067 132.276C395.479 131.869 395.955 131.531 396.479 131.275C396.957 130.94 397.487 130.684 398.05 130.514C397.638 130.921 397.162 131.259 396.638 131.515C396.16 131.849 395.63 132.106 395.067 132.276Z" fill="#263238"/>
<path d="M393.556 128.319C394.445 127.577 395.453 126.985 396.541 126.564C396.128 126.972 395.65 127.309 395.124 127.562C394.648 127.896 394.119 128.152 393.556 128.319Z" fill="#263238"/>
<path d="M392.132 124.31C392.547 123.905 393.025 123.568 393.549 123.312C394.026 122.976 394.556 122.719 395.12 122.551C394.706 122.956 394.228 123.293 393.703 123.548C393.227 123.885 392.697 124.143 392.132 124.31Z" fill="#263238"/>
<path d="M391.133 120.267C392.021 119.525 393.029 118.932 394.117 118.512C393.702 118.917 393.224 119.253 392.7 119.509C392.225 119.845 391.696 120.1 391.133 120.267Z" fill="#263238"/>
<path d="M390.596 115.851C391.485 115.109 392.493 114.517 393.581 114.096C393.166 114.502 392.688 114.838 392.164 115.094C391.689 115.429 391.159 115.685 390.596 115.851Z" fill="#263238"/>
<path d="M391.012 111.506C391.372 111.136 391.795 110.831 392.263 110.606C392.688 110.304 393.165 110.08 393.674 109.945C393.316 110.31 392.896 110.611 392.432 110.833C392.006 111.142 391.525 111.37 391.012 111.506Z" fill="#263238"/>
<path d="M392.033 107.461C392.393 107.09 392.816 106.786 393.284 106.56C393.707 106.259 394.184 106.037 394.691 105.904C394.332 106.275 393.908 106.579 393.439 106.804C393.017 107.107 392.541 107.33 392.033 107.461Z" fill="#263238"/>
<path d="M410.924 122.451C410.709 122.548 410.374 122.307 410.008 122.06C409.641 121.814 409.302 121.57 409.317 121.336C409.331 121.224 409.475 121.144 409.683 121.123C409.964 121.126 410.24 121.214 410.474 121.377C410.708 121.54 410.889 121.769 410.99 122.033C411.06 122.241 411.021 122.401 410.924 122.451Z" fill="#FAFAFA"/>
<path d="M414.225 130.793C413.997 130.845 413.696 130.502 413.326 130.157C412.956 129.812 412.62 129.529 412.673 129.299C412.699 129.19 412.834 129.103 413.093 129.152C413.396 129.208 413.678 129.354 413.901 129.57C414.125 129.785 414.28 130.061 414.346 130.36C414.387 130.612 414.346 130.784 414.225 130.793Z" fill="#FAFAFA"/>
<path d="M413.747 122.431C413.717 122.468 413.594 122.306 413.426 122.078L412.832 121.071C412.544 120.578 412.219 120.105 411.862 119.657C411.453 119.123 410.938 118.677 410.351 118.347C410.228 118.28 410.1 118.225 409.967 118.183C409.861 118.149 409.752 118.125 409.641 118.113L409.313 118.097L409.21 117.841C408.273 115.367 407.691 113.446 407.898 113.384C408.106 113.321 408.992 115.123 410 117.573L409.577 117.301C409.788 117.299 410 117.334 410.202 117.404C410.387 117.455 410.567 117.527 410.737 117.618C411.44 118.009 412.044 118.559 412.497 119.222C412.827 119.713 413.104 120.237 413.324 120.784C413.491 121.161 413.622 121.553 413.714 121.952C413.801 122.236 413.803 122.415 413.747 122.431Z" fill="#FAFAFA"/>
</g>
<defs>
<clipPath id="clip0_112_2370">
<rect width="285.114" height="156.936" fill="white" transform="translate(126.422 748.108) rotate(-116.195)"/>
</clipPath>
<clipPath id="clip1_112_2370">
<rect width="274.556" height="163.784" fill="white" transform="translate(446.166 0.382202) rotate(39.4119)"/>
</clipPath>
</defs>
</svg>
