<svg width="14" height="8" viewBox="0 0 14 8" fill="none" xmlns="http://www.w3.org/2000/svg">
<path d="M13.0004 7.49999C12.7352 7.49993 12.4809 7.39454 12.2934 7.20699L7.70741 2.62099C7.51728 2.4385 7.26395 2.3366 7.00041 2.3366C6.73687 2.3366 6.48354 2.4385 6.29341 2.62099L1.70741 7.20699C1.5188 7.38915 1.2662 7.48994 1.00401 7.48766C0.741809 7.48538 0.490997 7.38022 0.305589 7.19481C0.120181 7.0094 0.0150115 6.75859 0.0127331 6.49639C0.0104547 6.23419 0.111249 5.98159 0.293408 5.79299L4.87941 1.20699C5.45103 0.661516 6.21079 0.357178 7.00091 0.357178C7.79103 0.357178 8.55079 0.661516 9.12241 1.20699L13.7074 5.79299C13.8472 5.93284 13.9424 6.11101 13.981 6.30496C14.0196 6.49891 13.9998 6.69994 13.9241 6.88264C13.8484 7.06534 13.7203 7.22151 13.5559 7.33139C13.3915 7.44128 13.1982 7.49995 13.0004 7.49999Z" fill="white"/>
</svg>
